<?xml version="1.0" standalone="no"?>
<!DOCTYPE svg PUBLIC "-//W3C//DTD SVG 1.1//EN" "http://www.w3.org/Graphics/SVG/1.1/DTD/svg11.dtd" >
<svg xmlns="http://www.w3.org/2000/svg" xmlns:xlink="http://www.w3.org/1999/xlink" version="1.1">
<metadata></metadata>
<defs>
<font id="balsamiq_sansbold" horiz-adv-x="1175" >
<font-face units-per-em="2048" ascent="1638" descent="-410" />
<missing-glyph horiz-adv-x="552" />
<glyph unicode="&#xfb01;" horiz-adv-x="1173" d="M25 915q0 -61 40.5 -100t90.5 -39h24q2 -61 2 -186l2 -221v-52v-39.5v-39.5q0 -41 -2 -86q-2 -72 41.5 -112t102.5 -40q55 0 97 34t46 97q6 76 2 152v53l-2 209q0 76 -4 231h63q70 0 110 42t40 102q0 57 -37 98t-104 43l-91 2v55q0 70 39 110t111 40q68 0 131 -25l39 -18 q25 -12 51.5 -21.5t52.5 -9.5q57 0 96.5 39t39.5 96q0 94 -105.5 149.5t-267.5 55.5q-131 0 -237.5 -52t-168.5 -149q-63 -98 -63 -225v-53h-23q-43 0 -79.5 -41t-36.5 -99zM772 422q0 -186 2 -283q2 -66 44.5 -102.5t99.5 -36.5t100 38t43 105l-2 273q0 297 8 524 q2 70 -41 108.5t-104 38.5q-57 0 -98.5 -34.5t-43.5 -100.5q-8 -168 -8 -530z" />
<glyph unicode="&#xfb02;" horiz-adv-x="1193" d="M25 915q0 -61 40.5 -100t90.5 -39h24q2 -61 2 -186l2 -221q0 -94 -6 -217q-2 -72 41.5 -112t102.5 -40q55 0 97 34t46 97q6 80 6 205l-2 209q0 76 -4 231h61q70 0 110 42t40 102q0 57 -37 98t-104 43l-89 2v55q0 70 42 110t128 40q80 0 130.5 -19.5t99.5 -54.5 q37 -23 45 -27l-98 144q6 -170 6 -463v-64q2 -119 -2 -270q-2 -47 -2 -131l-2 -240q0 -68 43 -105.5t100 -37.5q55 0 98 37t45 102q2 76 2 301v490l-2 309q0 131 -121.5 202.5t-324.5 71.5q-131 0 -237.5 -50t-168.5 -142q-63 -92 -63 -213v-53h-23q-43 0 -79.5 -41 t-36.5 -99z" />
<glyph horiz-adv-x="0" />
<glyph horiz-adv-x="682" />
<glyph unicode="&#xd;" horiz-adv-x="681" />
<glyph unicode=" "  horiz-adv-x="552" />
<glyph unicode="&#x09;" horiz-adv-x="552" />
<glyph unicode="&#xa0;" horiz-adv-x="552" />
<glyph unicode="!" horiz-adv-x="532" d="M121 80q4 -45 45 -84q39 -41 84 -45t83 18.5t60.5 61.5t18.5 83t-45 83q-39 41 -83 45t-83 -18.5t-61.5 -60.5t-18.5 -83zM123 459q2 -70 46 -105t100.5 -33.5t98.5 37t42 105.5v835q0 57 -29 91t-72 45.5t-86 0t-71.5 -45t-28.5 -91.5v-839z" />
<glyph unicode="&#x22;" horiz-adv-x="890" d="M104 1057q0 -72 42 -108t98.5 -37t100.5 33t46 104q8 193 2 352q-2 70 -46 104.5t-100.5 33.5t-98.5 -37t-42 -105q-2 -156 -2 -340zM502 1063q0 -72 42 -107.5t98 -36.5t100 32.5t46 103.5q8 193 3 352q-2 70 -46.5 104.5t-100.5 33.5t-98 -36.5t-42 -105.5 q-2 -156 -2 -340z" />
<glyph unicode="#" horiz-adv-x="1316" d="M116.5 508q-10.5 -43 2 -86t47.5 -70.5t92 -25.5q39 2 78 2q-6 -80 -14 -154q-8 -55 16 -93t65 -53.5t85 -9t77 37t39 85.5q10 88 19 195h135q-6 -92 -15 -180q-6 -55 19.5 -92t66.5 -52.5t84 -9.5t75 37t38 88q10 100 18 209q53 0 107 -2q70 0 105.5 42t36.5 98 t-32.5 100t-105.5 47q-49 0 -100 2q2 43 2 92q0 43 2 102q45 0 90 -2q57 -2 92 25.5t47 70.5t2 86t-43 73t-90 32q-45 0 -94 2q2 100 6 184q2 72 -39 109t-97 39t-101.5 -32t-49.5 -104q-4 -88 -6 -198q-47 0 -106 -2q8 88 18 170q8 55 -15.5 92t-64.5 54.5t-85 12 t-76.5 -35t-40.5 -86.5q-14 -104 -23 -215h-57q-70 -2 -105 -46.5t-34 -100.5t37 -98t106 -42q16 0 32 2l-4 -76l-4 -117q-49 0 -104 -2q-57 -2 -90 -31.5t-43.5 -72.5zM639 621l6 96l4 96q70 2 123 4q0 -57 -2 -98v-96q-65 0 -131 -2z" />
<glyph unicode="$" horiz-adv-x="1349" d="M131 1092q-33 -219 148 -359q90 -70 309 -143q205 -70 264 -103q78 -43 86 -90q6 -43 -35 -94q-41 -53 -160 -80q-129 -10 -188 4.5t-98 48.5q-14 25 -25 58q-4 25 -6 35q-2 8 -4 30q-2 27 -6 54q-18 63 -63.5 88.5t-94.5 14.5t-86 -52t-39 -107q2 -45 8 -80 q8 -33 21 -71q16 -57 57 -115q39 -63 114 -110.5t159 -63.5q83 -16 165 -14q82 0 160 18t152 55q72 35 137 92.5t98 145.5q33 86 17 188q-31 186 -232 297q-78 43 -311 121q-170 57 -225 101q-27 20 -35 39.5t-4 50.5q16 115 166 114q98 0 146 -12t97 -43q53 -29 74 -70 q12 -35 16 -69q18 -53 56.5 -76t82.5 -19.5t81.5 27t55 64.5t-0.5 94q-6 29 -10 39t-15 39q-16 39 -47 82q-51 70 -133 121t-181.5 79.5t-199.5 28.5q-113 0 -213 -37t-169.5 -115.5t-88.5 -205.5zM571 -78q-6 -84 26 -122t76 -35.5t81 38.5t41 99l2 65l6 705l4 596l6 237 q-12 113 -115 113q-90 4 -120 -88v-690l6 -164l-9 -537z" />
<glyph unicode="%" horiz-adv-x="1933" d="M115 1116q-8 -76 11 -141.5t58 -120.5q66 -90 170 -133q104 -41 221 -2q113 37 186 138t91 214q23 133 -35 238q-70 125 -223 157q-63 14 -141 -6q-2 0 -43 -10l-27 -6q-66 -10 -100 -68l-17 -10q-72 -49 -106 -109q-39 -66 -45 -141zM406 1114l20 14l37 25q23 14 37 25 q12 4 20 6l17 4q25 -6 30 -17q8 -18 4 -55q-8 -47 -34.5 -83t-51.5 -44q-37 -12 -67 31q-37 51 -12 94zM461.5 80q9.5 -43 42.5 -73t75 -40t83.5 6.5t68.5 67.5l688 1268q25 49 14.5 93t-43 73.5t-75.5 40t-84 -7t-66 -68.5l-688 -1268q-25 -49 -15.5 -92zM1083 430 q-12 -78 7 -158q18 -80 62 -141t124 -100t180 -39q96 2 182 57q88 53 142 133q39 57 55 123q14 66 -2 143.5t-74 143.5q-55 61 -155 92l-9 4q-25 41 -69.5 59.5t-91.5 4.5q-8 -2 -23 -4l-39 -9q-68 -14 -115 -43q-72 -45 -116.5 -116.5t-57.5 -149.5zM1360 381q2 41 43 70 l113 -37q25 -8 30 -15q20 -23 -4 -59q-20 -29 -47 -45t-43 -16q-43 0 -68.5 30.5t-23.5 71.5z" />
<glyph unicode="&#x26;" horiz-adv-x="1357" d="M76 410q0 -125 57 -217.5t160 -143.5q98 -49 223 -49q299 0 494 293q80 119 114 188q35 70 35 119q0 61 -42 105.5t-99 42.5q-90 -2 -131 -91l-27 -57q-18 -37 -45 -78t-49 -73q-59 -88 -113.5 -127t-136.5 -39q-68 0 -108.5 39.5t-40.5 107.5q0 63 47 131t164 164 q100 84 159.5 136t96 93t67.5 90q47 78 47 166q0 123 -87 200t-230 77q-109 0 -202 -49t-148 -140q-57 -90 -58 -202q0 -117 69.5 -253t188.5 -276.5t267 -273.5l258 -240q57 -57 116 -57q63 0 106.5 44t43.5 107q0 61 -53 109l-275 233q-43 37 -125 129l-41 46 q-117 129 -194.5 246.5t-77.5 195.5q0 47 23.5 75.5t68.5 28.5q66 0 66 -59q0 -37 -39 -74q-41 -37 -179 -139l-53 -39q-115 -86 -184.5 -161.5t-101 -154.5t-31.5 -173z" />
<glyph unicode="'" horiz-adv-x="458" d="M109 1346q0 -293 10 -461q4 -59 46 -93t95 -34t94 45q39 43 35 98q-10 160 -10 445q0 66 -41 99.5t-94.5 33.5t-94 -34t-40.5 -99z" />
<glyph unicode="(" horiz-adv-x="735" d="M129 274q18 -205 96 -387q23 -57 68 -131q6 -14 18 -35l25 -40l20 -35q27 -49 69 -64.5t84 -5.5t74.5 41t41 74t-18.5 94l-67 115q-35 59 -52 98q-59 141 -73.5 304t14.5 325t86 317q55 147 141 303q27 49 19 93t-40 75t-75 41t-84 -5t-69 -65q-92 -166 -158 -342 t-101.5 -371.5t-17.5 -398.5z" />
<glyph unicode=")" horiz-adv-x="708" d="M70.5 -326.5q23.5 -50.5 74 -75t104.5 -11t85 76.5q119 246 181.5 447.5t70.5 396.5q6 201 -47.5 406.5t-169.5 447.5q-31 63 -85.5 76.5t-104.5 -11t-73.5 -74.5t5.5 -114q201 -414 188 -721q-4 -156 -58.5 -330t-164.5 -401q-29 -63 -5.5 -113.5z" />
<glyph unicode="*" horiz-adv-x="956" d="M105.5 1164q-5.5 -44 17 -82t76.5 -56l77 -29l-43 -53q-37 -45 -32 -104q6 -63 53 -97t104.5 -31t96.5 52l77 94l99 -88q53 -45 108.5 -37t92 49t39.5 96.5t-48 104.5l-71 61q68 23 89 74t3.5 104.5t-64.5 84t-114 12.5l-29 -10v32q-2 70 -46 105t-100.5 34t-98.5 -37 t-42 -106l2 -63l-55 18q-53 18 -94 3t-66.5 -51t-31 -80z" />
<glyph unicode="+" horiz-adv-x="1546" d="M250 575q-10 -43 2 -86t47 -70.5t92 -25.5q127 4 225 6v-241q0 -57 29 -91t72 -45.5t86 0t71.5 45t28.5 91.5q0 90 -2 241q119 -2 256 -6q70 0 106.5 42t39 98.5t-31.5 100.5t-106 46l-266 4q0 113 2 205q0 70 -42 105.5t-98 36.5t-100.5 -33.5t-46.5 -104.5v-209 l-231 -4q-57 -2 -90 -32t-43 -73z" />
<glyph unicode="," horiz-adv-x="454" d="M-20 -254q0 -55 37 -90t92 -35q80 0 135 84q49 76 80 148q18 43 33.5 102t15.5 94q0 59 -40 97t-97 38q-45 0 -77 -25.5t-46 -68.5q-6 -18 -15 -55q-10 -51 -26 -88q-12 -27 -45 -80q-25 -37 -33 -53q-14 -29 -14 -68z" />
<glyph unicode="-" horiz-adv-x="837" d="M104 553q0 -53 33 -94t101 -41h362q68 0 100.5 41t32.5 94t-32.5 94t-100.5 41h-362q-68 0 -101 -41t-33 -94z" />
<glyph unicode="." horiz-adv-x="450" d="M70 128q4 -48 47 -91t91 -47t89 19.5t64.5 64.5t19.5 89t-47 91t-91 47t-89 -19.5t-64.5 -64.5t-19.5 -89z" />
<glyph unicode="/" horiz-adv-x="978" d="M139 74q-16 -53 2.5 -94t56.5 -63.5t82 -24t81 23.5t53 80l438 1315q14 55 -6.5 95t-59 60.5t-83 18.5t-80 -28.5t-50.5 -80.5z" />
<glyph unicode="0" horiz-adv-x="1275" d="M98 618q14 -150 72.5 -283.5t165 -225.5t264.5 -115q147 -18 262 45q117 59 191 172q125 190 129 451q2 186 -33 352q-57 283 -215 375q-74 39 -186 59q-14 2 -48 6q-35 35 -80 44t-90 -13q-14 -8 -38.5 -18.5t-28.5 -10.5q-70 -31 -111 -65q-141 -127 -207 -340 q-66 -215 -47 -433zM389 647q-8 104 10.5 205.5t55.5 181.5t86 123q6 6 20 14q33 -8 72 -16q10 0 34.5 -4t37.5 -4q59 -10 86 -25q18 -8 39.5 -63t31.5 -109q27 -133 25 -284q-2 -168 -74 -283q-69 -100 -180 -88q-100 12 -163.5 104.5t-80.5 247.5z" />
<glyph unicode="1" horiz-adv-x="862" d="M78 1038q-12 -43 2 -85t48 -70.5t78 -33.5t91 25l102 68q6 -606 0 -803q-2 -57 26 -92t71 -47t86 -2t72.5 43t31.5 90q4 137 0 875q-2 152 -4 231q0 55 -2 86q-4 37 -8 57q-6 18 -15 35q-39 66 -114 72q-96 6 -156 -72q-25 -33 -39 -86q0 -37 -12 -49l-31 -43 q-16 -20 -47 -44t-57 -40l-64 -41q-47 -31 -59 -74z" />
<glyph unicode="2" horiz-adv-x="1226" d="M127 158q41 -113 184 -150q96 -25 264 -18q113 4 170 4q20 0 62.5 -1t91.5 -1t89.5 -1t58.5 -3q55 0 89.5 28.5t47 71.5t1.5 86t-44 72.5t-90 32.5q-303 6 -306 6q-61 0 -182 -4q-68 -4 -117 0q12 18 29 34l64 60q401 442 446 532q57 125 27 264q-35 154 -145.5 237 t-250.5 85q-125 0 -241.5 -64.5t-181.5 -179.5q-33 -51 -46 -127q0 -2 -8 -45q-2 -18 -6 -28q-16 -72 16.5 -117t87 -58.5t106.5 11t71 92.5l10 53q0 20 6 39q6 25 10 33q27 45 75 71.5t99 26.5q96 0 117 -96q8 -39 -6 -70q-18 -39 -274 -317q-258 -281 -297 -344 q-66 -115 -27 -215z" />
<glyph unicode="3" horiz-adv-x="1196" d="M93 1159.5q11 -51.5 54 -84.5t96.5 -32t94.5 53q10 14 27 39l18 28l12 15q88 53 170 39.5t142 -76.5q47 -51 45 -99q-4 -41 -66 -75q-14 -8 -45 -14.5t-47 -10.5q-10 2 -19 4q-55 6 -99 -28.5t-52 -90.5q-4 -39 13.5 -74.5t49.5 -56.5q51 -45 117 -28q236 -49 246 -205 q4 -72 -8 -94q-25 -43 -79 -69t-119.5 -33t-125 5.5t-94.5 46.5q-8 8 -18 35l-17 39q-12 29 -22 49q-31 59 -83.5 70.5t-99.5 -13t-67.5 -72.5t8.5 -108q6 -10 14 -30l19 -43q30 -70 69 -111q63 -68 153.5 -102.5t192 -38.5t198.5 22.5t177 81t127 135.5q55 94 45 246 q-14 215 -188 340q82 88 88 205q12 164 -115 301q-76 82 -180 127t-233 37q-131 -8 -248 -86q-45 -31 -84 -88l-21 -33q-8 -12 -14 -18q-43 -53 -32 -104.5z" />
<glyph unicode="4" horiz-adv-x="1206" d="M57 563q0 -84 64.5 -130t169.5 -56q125 -10 309 -12l-2 -222q0 -68 43 -105.5t100 -37.5q55 0 98.5 37t45.5 102q2 106 2 230l147 4q68 0 105 43t37 100t-37 100t-105 43l-145 -6q-6 391 -19 707q-2 53 -44 91t-97 38q-94 0 -156 -115q-162 -307 -438 -631 q-41 -47 -59.5 -88t-18.5 -92zM424 647l176 219q2 -68 2 -217q-117 4 -178 -2z" />
<glyph unicode="5" horiz-adv-x="1181" d="M93 206q11 -52 73 -85l135 -68q31 -16 57 -26q100 -35 258 -29q104 4 209 59q213 113 262 305q43 174 -57 347q-57 96 -149.5 168.5t-205 107.5t-231.5 16q2 18 19 183h471q57 0 91 28.5t45 71.5t0 86t-45 71.5t-91 28.5q-379 0 -580 -2q-47 0 -84 -27.5t-49 -72.5 q-16 -25 -20 -53q-31 -281 -60 -510q-6 -57 30 -102.5t93 -53.5q27 -2 51 4q29 2 54 15q4 2 73 43q20 12 29 12q88 18 179 -27t141 -129q43 -72 26 -135q-18 -74 -123 -129q-47 -25 -90 -27q-102 -4 -151 15q-18 6 -36 14t-55 27l-69 39q-61 29 -111.5 7t-75 -71t-13.5 -101 z" />
<glyph unicode="6" horiz-adv-x="1241" d="M100 780q-16 -248 93 -473q53 -111 153.5 -193.5t235.5 -117.5q156 -33 276.5 13t196 150.5t90.5 241.5q25 197 -90 363q-55 80 -154 133q-66 35 -144.5 52.5t-158.5 10t-147 -41.5q-25 -14 -48 -31q29 133 99.5 215t154.5 92q29 -2 40.5 -2t21.5 -3t35 -15l28 -19 q10 -8 35 -25l45 -32q47 -33 91 -28t77 36t48.5 74t3 87t-59.5 74q-43 20 -85 53t-90 61t-112 32q-47 6 -106 0q-125 -14 -226 -84q-102 -70 -163.5 -172.5t-96.5 -216.5q-37 -115 -43 -234zM420 506l67 69q59 59 99 80q25 14 67 11q119 -8 169 -75t40 -153 q-10 -88 -67 -131q-58 -47 -148 -24q-162 41 -227 223z" />
<glyph unicode="7" horiz-adv-x="1130" d="M62 1336.5q1 -56.5 37 -98.5t106 -42q78 2 364 2h148q-14 -25 -39 -80q-4 -6 -29.5 -56t-59.5 -124t-69 -145.5t-57 -120.5l-68 -148q-23 -49 -73 -172l-62 -149q-25 -51 -11.5 -93t48.5 -70t79 -34t85 13.5t61 72.5q12 27 64 152q51 123 71 168l62 137q14 31 50 99.5 t80 151.5t81 152q94 178 112 256q43 125 -20 207q-25 33 -68 47q-12 6 -26 8q-16 4 -37 7q-20 2 -86 4q-94 4 -234 4q-215 0 -370 -2q-70 -2 -105 -46t-34 -100.5z" />
<glyph unicode="8" horiz-adv-x="1230" d="M119 373q14 -170 148.5 -275.5t353.5 -105.5q150 0 274 69q125 68 186 185q63 119 34.5 248t-142.5 233q86 82 112.5 196.5t-6.5 217.5q-27 92 -90 165.5t-152 116.5t-198 43q-129 0 -232.5 -53t-170 -141t-86.5 -197q-18 -98 6 -192.5t90 -165.5q-68 -70 -101.5 -160 t-25.5 -184zM387 395q-4 55 32 107.5t99 68.5q10 4 39 2q88 -6 92 -6q35 0 64 17q25 -14 53 -37q121 -90 76 -176q-23 -43 -82 -76t-139 -33q-113 0 -170.5 37t-63.5 96zM416 1026q12 70 70.5 120t152.5 50q68 0 116 -37t64 -94q16 -53 -4 -100t-82 -78q-23 -10 -53 -15 q-45 2 -105 -10l-45 -10q-72 20 -99.5 67.5t-14.5 106.5z" />
<glyph unicode="9" horiz-adv-x="1200" d="M68.5 956.5q7.5 -116.5 66.5 -213.5q66 -104 180.5 -163.5t266.5 -61.5q57 0 129 21q10 2 32 10q-10 -227 -24 -385q-6 -57 19.5 -93t67.5 -51.5t85 -8.5t74.5 38t35.5 86q43 506 46 1049q10 41 -4.5 82t-51.5 65q-299 199 -559 135q-119 -29 -205 -108 q-84 -80 -125 -189q-41 -96 -33.5 -212.5zM338 1008.5q8 68.5 50 123t112 72.5q111 29 260 -49q0 -172 -4 -326q-12 0 -25 -4q-4 0 -96 -26q-33 -11 -49 -11q-162 2 -221 97q-35 55 -27 123.5z" />
<glyph unicode=":" horiz-adv-x="491" d="M70 128q4 -48 47 -91t91 -47t89 19.5t64.5 64.5t19.5 89t-47 91t-91 47t-89 -19.5t-64.5 -64.5t-19.5 -89zM70 890q4 -48 47 -91t91 -47t89 19.5t64.5 64.5t19.5 89t-47 91t-91 47t-89 -19.5t-64.5 -64.5t-19.5 -89z" />
<glyph unicode=";" horiz-adv-x="460" d="M35 -195q-14 -66 18.5 -108.5t86 -55t101.5 11t62 89.5l59 278q14 66 -18.5 109t-85.5 55.5t-101 -11t-63 -89.5zM80 890q4 -48 47 -91t91 -47t89 19.5t64.5 64.5t19.5 89t-47 91t-91 47t-89 -19.5t-64.5 -64.5t-19.5 -89z" />
<glyph unicode="&#x3c;" horiz-adv-x="1546" d="M156 541q-18 -51 5 -102.5t77 -69.5q72 -27 153 -54l344 -114q289 -97 469 -185q61 -27 109.5 -4t71 71t10 98t-71.5 81q-197 92 -502 195l-143 47l598 258q61 27 75.5 77t-6 99t-67.5 73.5t-109 0.5l-372 -164l-164 -70l-201 -82l-176 -67h-2q-74 -16 -98 -88z" />
<glyph unicode="=" horiz-adv-x="1546" d="M227 718q2 -56 39 -98t107 -42q381 10 792 12q57 0 91 28.5t45.5 71.5t-1 86t-46 72t-89.5 29q-418 -4 -800 -13q-72 -2 -106 -46t-32 -100zM230 312.5q-3 -56.5 30 -101.5t102 -49q150 -8 424 -10q264 -3 385 -7q57 -2 92 26t48.5 70t3.5 86t-43 73.5t-88 31.5 q-113 4 -383 6q-272 0 -422 11q-70 2 -108 -39t-41 -97.5z" />
<glyph unicode="&#x3e;" horiz-adv-x="1546" d="M165 109.5q13 -52.5 56 -83t109 -14.5q188 51 485 166l313 127q72 29 148 55q29 10 49 33q37 25 53 66q18 51 -4 102t-76 72l-940 358q-49 18 -89 5t-65.5 -47t-30.5 -76t15.5 -77.5t71.5 -54.5l629 -241l-174 -70q-272 -109 -455 -156q-63 -16 -85.5 -64t-9.5 -100.5z " />
<glyph unicode="?" horiz-adv-x="1019" d="M55 1077q-8 -55 15.5 -93t64.5 -55.5t85 -12t77 35t41 84.5q4 23 4 54v22q0 6 2 10v13q16 23 58 42t104 19q78 2 132 -27.5t44 -68.5q-6 -25 -49 -68q-20 -23 -62 -59q-43 -39 -57 -53q-90 -88 -123 -168q-20 -47 -26 -115q-2 -10 -4.5 -32.5t-4.5 -35.5 q-10 -55 12.5 -93t63.5 -56.5t85 -14t78 34t44 84.5q0 4 8 84q4 25 6 33q12 27 62 74q14 14 57 55l68 64q90 94 116 186q39 133 -38 266q-63 106 -180 153.5t-240 43.5q-121 -4 -234 -58q-115 -51 -172 -155q-31 -55 -35 -131v-41q-2 -14 -2 -21zM350 133q4 -45 45 -84 q39 -41 84 -45t83 18.5t60.5 61.5t18.5 83t-45 83q-39 41 -83 45t-83 -18.5t-61.5 -60.5t-18.5 -83z" />
<glyph unicode="@" horiz-adv-x="1888" d="M123 905q-31 -147 3 -280t112 -250q76 -119 193.5 -206t254.5 -130q141 -43 275.5 -40t262.5 37t251 85q51 23 64 65.5t-4 84.5t-57 63.5t-94 -0.5q-119 -51 -215 -76t-208 -29q-113 -4 -209 31q-131 39 -229.5 128t-143.5 198q-47 106 -34 229t93 227q92 119 267 170 q176 49 358 13q184 -37 291.5 -146.5t103.5 -271.5q-2 -96 -10 -115q-16 -39 -55 -64.5t-84 -31.5t-80 14q-23 12 -15 80l11 55q8 33 10 39q6 37 6 62v2q20 12 37 35q27 39 18.5 85t-47.5 74q-12 8 -31.5 24.5t-23.5 20.5q-51 41 -96 58q-86 33 -176.5 13.5t-171 -74 t-142.5 -128.5q-59 -74 -95 -166t-26.5 -185t84.5 -171q74 -76 162 -88t170 23q74 33 144 98q29 -33 71 -57q104 -51 211 -42t199 74q92 66 133 164q18 45 22.5 89t4.5 79v25q4 137 -43.5 251.5t-131.5 194.5q-168 158 -405 203q-158 33 -318.5 13.5t-300 -89t-231.5 -190.5 q-102 -131 -135 -277zM718.5 684q12.5 61 67.5 127q59 74 126 103.5t104 17.5q2 -2 4 -2q-2 -4 -6 -8q-12 -23 -17 -54q-2 -2 -4 -18q-2 -18 -4 -33q-14 -72 -57 -133q-53 -75 -119 -104q-45 -18 -78 14q-29 29 -16.5 90z" />
<glyph unicode="A" horiz-adv-x="1251" d="M18 193q-11 -26 -11 -52q0 -28 13 -57q26 -56 80 -76q27 -10 54 -10t54 10q54 20 81 76l100 270q141 6 283 6q86 0 172 -2l119 -270q23 -52 63 -72q32 -16 66 -16q8 0 17 1q44 5 80 31.5t50 68.5q6 17 6 37q0 28 -12 59l-141 368l-179 441l-151 376q-23 43 -67 67 q-32 17 -65 17q-12 0 -24 -2q-43 -2 -77.5 -26.5t-51.5 -63.5zM508 647l117 295l108 -295h-130h-95z" />
<glyph unicode="B" horiz-adv-x="1443" d="M154 1286q10 -117 14 -230.5t6 -242.5q1 -64 1 -137.5t-1 -155.5q-2 -246 -2 -342q-4 -14 -4 -28q0 -43 22.5 -78t59.5 -54q29 -16 65 -16q8 0 17 2q20 -2 55 -4t67.5 -3t47.5 -1q79 -4 144 -4q44 0 81 2q289 12 461 133q117 84 155 184q22 54 21 120q0 58 -16 124 q-43 162 -195 242q27 16 43 55q43 106 43 199q0 29 -4 57q-23 141 -148 235q-147 111 -395 125q-48 4 -107 4q-39 0 -83 -2q-14 -2 -46 -3t-66 -2t-52 -1q-39 -2 -70 -22q-54 -10 -86 -54q-29 -40 -28 -90v-12zM446 1174q41 2 66 2q48 2 89 2t75 -2q164 -10 246 -70 q29 -25 32 -47q1 -7 1 -14q0 -30 -19 -74q-28 -68 -188 -82q-30 -2 -67 -2q-92 0 -224 14q-4 147 -11 273zM455 281q0 18 2 309l28 -4q27 0 201 2q36 1 67 1q79 0 134 -7q166 -18 184 -97q9 -35 9 -56q0 -9 -2 -17q-7 -20 -54 -54q-104 -76 -309 -84q-27 -1 -58 -1 q-62 0 -141 3q-23 2 -61 5z" />
<glyph unicode="C" horiz-adv-x="1454" d="M66 729q0 -84 28.5 -190.5t74.5 -202.5t99 -156q82 -94 220 -149.5t298 -55.5q150 0 281 45.5t207 149.5q31 45 50 87t40 97l18 52q12 31 13 55q0 57 -44 97t-100 40q-80 0 -121 -82l-32 -82q-25 -72 -45 -100q-29 -39 -86.5 -61.5t-139.5 -22.5q-109 0 -207 32.5 t-139 82.5q-53 66 -94 167t-41 201q0 123 64.5 232.5t171.5 177.5q102 65 218 65h3q70 0 137.5 -24.5t108.5 -75.5l90 -107q41 -49 100 -49q55 0 99 42t44 98q0 47 -47 102q-59 74 -103 119t-89 73.5t-105 53.5q-117 45 -237 45q-129 0 -248 -48t-218 -135.5t-167 -203.5 q-102 -174 -102 -369z" />
<glyph unicode="D" horiz-adv-x="1425" d="M156 735q3 -332 3 -484q0 -76 -1 -106q0 -57 41 -99t98 -44q13 -2 27 -2h139q56 -1 94 -1t59 1q211 10 340 72q123 61 215.5 170.5t137.5 244.5q43 133 45 293v11q0 152 -52 282q-54 135 -161 232q-55 51 -123 88t-144 55q-78 16 -137 27q-41 6 -95 7h-36q-36 0 -68 -1 q-50 -2 -73 -4q-39 -2 -119 -11q-18 0 -37 -6h-5q-56 0 -98 -39q-44 -41 -46 -96q-5 -63 -5 -304q0 -121 1 -286zM440 891q0 104 2 299q78 6 146 6q89 0 158 -10q122 -18 202 -90q66 -58 96 -158q25 -83 24 -174q0 -18 -1 -37q-6 -111 -49 -203q-66 -139 -189 -198 q-73 -35 -225 -45q-20 -1 -44 -1q-49 0 -116 3q0 86 -1 192.5t-2 215t-1 200.5z" />
<glyph unicode="E" horiz-adv-x="1331" d="M154 743q3 -337 3 -481q0 -72 -1 -96q0 -43 24 -80q16 -35 50 -58.5t75 -23.5q525 -6 828 -6q55 0 89 28q32 29 44 71q6 21 6 42t-6 42q-12 42 -45 71t-88 29q-279 0 -695 4q1 31 1 78q0 93 -3 245q94 2 604 2q57 0 91 29q33 29 45 71q6 21 6 42t-6 42q-12 42 -45 70.5 t-91 28.5q-508 0 -606 -2q2 170 8 295q115 2 342 2q227 -2 342 -2q55 0 89 28q35 29 45 71q5 19 4 38q0 23 -6 46q-12 42 -46 70.5t-90 28.5q-75 -1 -175.5 -1t-227.5 1q-254 0 -404 -2q-45 -2 -79.5 -27.5t-51.5 -66.5q-10 -23 -12 -49q-18 -192 -18 -514v-66z" />
<glyph unicode="F" horiz-adv-x="1236" d="M154 1321q4 -90 7 -199.5t4 -208t3 -157.5v-211t-1 -218.5t-1 -183.5q0 -57 28.5 -91t71.5 -45q22 -5 43 -5l43 5q43 11 72 45t29 91v482q293 2 538 6q69 2 103 46q33 43 33 97q-1 59 -37 102q-36 42 -107 42q-244 -6 -532 -7q-2 143 -7 275q78 1 172 1q188 0 443 -3 q63 0 103 42t43 98v7q0 52 -42 96q-43 43 -100 43q-240 2 -430.5 2t-331.5 -2h-10q-59 -4 -99 -47q-38 -41 -38 -96v-6z" />
<glyph unicode="G" horiz-adv-x="1505" d="M66 706q2 -163 79 -313q61 -121 166 -213t232 -137t258 -45h8q127 0 252 58q129 61 227 180q80 96 105 188q8 37 11 85q2 29 2 58q0 19 -1 39v47v5q0 60 -43 102q-43 43 -102 43q-209 0 -375 -6q-55 -2 -88 -32t-43 -72q-3 -17 -3 -35q0 -24 7 -49q14 -42 49 -69 q33 -26 83 -26h7q133 6 197 6h28q-2 -12 -6 -26q-6 -29 -47 -76q-88 -106 -221 -130q-36 -7 -72 -7q-95 0 -186 47q-127 63 -195 196q-47 99 -47 198q0 41 8 82q27 140 133 247q102 106 235 129q33 6 65 6q103 0 212 -56q25 -16 53.5 -39.5t43.5 -46.5l32 -45l41 -53 q43 -55 99 -58h8q51 0 92 32q45 34 58 88q2 12 2 25q0 41 -31 83q-27 35 -57.5 75t-65.5 79q-29 31 -60.5 56.5t-72.5 45.5q-152 90 -315 96q-16 1 -32 1q-145 0 -268 -54q-133 -57 -241 -168q-106 -106 -164 -243q-57 -131 -57 -287v-11z" />
<glyph unicode="H" horiz-adv-x="1515" d="M152 1331q-2 -78 -2 -191q0 -170 4 -419q4 -314 4 -481v-95q0 -57 28.5 -91t71.5 -46q22 -6 45 -6l41 5q43 11 71.5 45t28.5 89q0 166 -4 502q368 12 577 12h56v-514q0 -57 28.5 -91t72.5 -45q22 -6 43 -5.5t43 5.5q43 11 71.5 45t28.5 91q0 1051 2 1184q0 70 -42 105.5 t-98 36.5h-4q-55 1 -97 -33q-44 -34 -46 -105q-2 -162 -2 -387q-217 0 -637 -12q-1 79 -1 149q0 140 3 244q0 70 -42 106.5t-98 38.5h-6q-52 0 -94 -32q-44 -34 -46 -105z" />
<glyph unicode="I" horiz-adv-x="698" d="M86 133q2 -59 45 -99t102 -40l240 6q59 2 99 45t40 102q-2 51 -35.5 90t-84.5 48v166q0 307 -5 727q51 10 85 49t34 90q0 59 -41 102t-100 43l-232 2q-59 0 -102 -41t-43 -100q0 -53 33 -92t82 -49q3 -365 3 -644q0 -140 -1 -259q-51 -8 -85 -50.5t-34 -95.5z" />
<glyph unicode="J" horiz-adv-x="1112" d="M24 457q-8 -20 -8 -44t9 -51q4 -12 8 -34q12 -47 12 -49q20 -80 55 -132q57 -82 135 -126t156 -44q76 0 156 29q102 39 181 127t110 197q37 129 49 317q8 96 9 173v26q0 65 -4 134q-5 83 -13 204q49 0 98 -4h6q66 0 101 39q38 41 41 97v9q0 51 -29 92q-33 45 -103 49 q-99 5 -228 5t-286 -5q-61 -2 -99 -46t-38 -101t47 -100q41 -39 96 -39h5q59 2 102 4q8 -115 15 -246q3 -66 3 -132t-3 -134q-7 -135 -44 -264q-12 -45 -47 -83t-76 -55q-18 -7 -33 -7q-40 0 -69 44q-8 10 -16 43l-7 27q-4 16 -4 18q-8 33 -16 58q-18 53 -56 75 q-35 21 -74 21h-7q-43 -2 -80 -26.5t-54 -65.5z" />
<glyph unicode="K" horiz-adv-x="1392" d="M156 1350q-2 -126 -2 -253q0 -478 24 -976q4 -73 49 -105q41 -30 92 -29h9q56 3 98 39q39 35 39 101v6q-8 193 -14 359l172 141l460 -592q39 -51 97 -55h12q50 0 92 30q47 34 53 97q1 11 1 21q0 46 -29 83l-471 606q209 190 409 420q39 43 41 87v7q0 40 -22 75 q-24 38 -62 58q-31 16 -66 17q-8 0 -17 -1q-44 -5 -83 -46q-274 -309 -596 -584q-2 114 -2 237t2 253q0 70 -42 105.5t-98 36.5h-3q-54 0 -97 -34q-44 -35 -46 -104z" />
<glyph unicode="L" horiz-adv-x="1179" d="M154 1321l6 -576q6 -383 8 -591q2 -59 43 -101q43 -55 113 -57q34 -1 122 -1t230 1q283 2 350 2q72 0 106.5 42t34.5 97.5t-34.5 97t-106.5 41.5q-90 0 -281 -2q-193 -2 -292 -2l-7 516l-6 537q-2 71 -46 105q-43 34 -97 33h-3q-56 -1 -98 -36.5t-42 -105.5z" />
<glyph unicode="M" horiz-adv-x="1765" d="M154 1321q10 -156 14 -301q2 -49 2 -123t1 -158t1 -164.5v-142.5q-2 -203 -2 -289q0 -57 28.5 -91t71.5 -45q22 -5 43 -5l43 5q43 11 72 45t29 91q0 2 2 392q0 387 -2 391l315 -398q16 -20 39 -34q4 -4 10 -9q36 -24 77 -24q14 1 30 3q58 12 92 60q147 217 299 408 q5 -435 5 -640q0 -102 -1 -147v-8q-1 -52 25 -84q28 -35 71 -47q23 -7 47 -7l39 5q43 10 73 43t32 90q2 74 2 182q0 163 -4 404q-3 200 -3 348.5t3 245.5v5q0 56 -39 97q-41 43 -101 45h-4q-81 0 -123 -71q-229 -246 -450 -553l-455 571q-35 47 -92 55q-27 10 -57 9 q-59 -3 -98 -49q-35 -41 -35 -94v-11z" />
<glyph unicode="N" horiz-adv-x="1538" d="M158 1333q-3 -83 -3 -197q0 -171 7 -411q10 -403 10 -584q0 -57 28.5 -91t71.5 -45q22 -5 43 -5l43 5q43 11 72 45t29 91q0 186 -8 469q-8 281 -11 363q94 -115 322 -436q209 -317 346 -480q43 -52 105 -52q14 0 28 3q57 4 96 44t41 98q6 726 6 1049v136q-2 70 -46 105 q-43 34 -97 34h-3q-56 -1 -98 -37t-42 -106q2 -119 2 -266q0 -221 -4 -506l-99 141q-225 319 -340 439q-39 47 -116 141q-78 92 -113 135q-29 33 -68 45q-27 10 -55 13h-5q-56 0 -97 -39q-43 -41 -45 -101z" />
<glyph unicode="O" horiz-adv-x="1499" d="M66 664q4 -254 153 -455q72 -98 190.5 -159.5t270.5 -67.5h26q153 0 280 66q138 72 238.5 196.5t153.5 269.5q54 147 56 308v11q0 155 -66 300q-70 150 -213 247q-63 43 -128.5 65.5t-104.5 27.5q-41 4 -107 6q-16 0 -31 2q-14 2 -47 2h-43q-66 0 -116 -13 q-129 -37 -231.5 -121.5t-162.5 -193.5q-61 -111 -92 -231q-27 -104 -27 -222q0 -19 1 -38zM352 674v18q0 184 79 315q83 138 228 191q29 10 56 6q29 0 39 -2q10 -4 32 -6q23 -2 62 -4t63 -10q23 -8 40.5 -17.5t43.5 -27.5q106 -73 140 -213q12 -49 12 -102q0 -98 -41 -210 q-39 -102 -103.5 -182t-144.5 -125q-77 -43 -159 -43h-7q-104 2 -179 56.5t-117 146.5t-44 209z" />
<glyph unicode="P" horiz-adv-x="1282" d="M154 987q0 -125 1 -261t2 -261t2 -216t1 -120q0 -59 43 -100q41 -43 96 -43h5q58 2 100 41t42 102q0 137 -4 446q20 -6 76 -10t114 -6q29 -1 50.5 -1t36.5 1q125 6 245.5 55.5t200.5 137.5q65 70 87 163q10 43 10 87q0 52 -14 106q-26 100 -99 190q-143 176 -422 195 q-23 1 -49 2q-133 0 -342 -35q-6 -2 -10 -2q-10 2 -21 2q-59 0 -102 -40t-45 -99q-2 -29 -3 -119t-1 -215zM440 862q0 188 2 326q128 20 219 20q25 0 48 -2q154 -8 219 -88q43 -53 46 -99v-9q0 -40 -24 -68q-33 -39 -100 -66.5t-143 -29.5q-18 -1 -37.5 -1t-38.5 1 q-39 2 -92 6l-97 10h-2z" />
<glyph unicode="Q" horiz-adv-x="1548" d="M66 733q0 -135 38.5 -257t131.5 -226q92 -106 225 -174q92 -43 173 -64q71 -17 143 -17h21q83 3 185 34q55 18 115 47q86 -45 207 -94q34 -16 64 -16q16 0 31 4q42 14 67.5 47.5t29.5 77.5q1 8 1 16q0 35 -16 68q-18 40 -67 61l-72 30q23 27 39 54q59 100 84 224 q18 87 18 178q0 38 -4 77q-10 131 -55 252q-70 182 -198 301q-80 74 -153 108.5t-159 36.5h-15q-47 0 -124 -10l-22 -4q-40 34 -86 34q-31 0 -64 -16q-2 -2 -29.5 -14t-64.5 -29.5t-66.5 -32t-35.5 -18.5q-106 -78 -184.5 -188.5t-117.5 -233.5q-40 -120 -40 -250v-6z M354 831q14 98 72 195q57 92 145 156q8 4 14.5 8t14.5 8q25 -6 49 -6q61 6 166 20q66 8 92 9q51 -2 129 -74q61 -55 102.5 -141t55.5 -182q8 -52 8 -103q0 -44 -6 -87q-12 -93 -55 -165q-16 -27 -51 -57q-70 49 -150 116q-40 37 -88 37q-8 0 -16 -1q-56 -7 -95 -48 q-35 -36 -35 -87q0 -6 1 -13q4 -59 47 -97l49 -43q-10 -1 -21 -1q-82 0 -196 55q-90 45 -150 127q-59 80 -78 177q-10 55 -10 111q0 43 6 86z" />
<glyph unicode="R" horiz-adv-x="1402" d="M154 1329q0 -190 4 -573t4 -615q0 -57 28.5 -91t71.5 -45q22 -5 43 -5l43 5q43 11 72 45t29 91q0 193 -3 471h62q43 2 123 4q2 0 41 1t61 4q96 -12 148 -60q47 -43 84 -135q35 -106 82 -317q14 -55 50 -81t80 -27h4q43 1 79 21q38 22 58 61q12 24 13 53q0 20 -6 42 q-31 152 -60.5 253t-65.5 172t-85 128q193 115 205 311q1 11 0 22q0 186 -160 298q-113 80 -307 108q-131 20 -273 20q-131 0 -272 -17h-10q-59 0 -101 -42t-42 -102zM440 1198q78 5 148 5q120 0 219 -15q129 -18 190 -62q35 -24 35 -60v-7q-2 -47 -69 -86q-74 -41 -195 -62 q-12 -2 -29 -4q-45 5 -97 5q-87 0 -193 -13h-7q-2 174 -2 299z" />
<glyph unicode="S" horiz-adv-x="1243" d="M74 424q0 -135 73.5 -237.5t200.5 -155.5q118 -49 263 -49h22q135 0 261 56t204 159q78 100 78 229q0 121 -53.5 201t-182.5 151q-78 43 -311 121q-121 39 -187.5 82t-66.5 111q0 53 58.5 86.5t148.5 33.5q76 0 116.5 -12t92.5 -41q39 -23 62.5 -49.5t35.5 -75.5 q10 -37 49 -61.5t80 -24.5q59 0 104 44t45 106q0 115 -78.5 206t-207.5 140q-119 45 -248 45h-21q-135 0 -254.5 -51.5t-193.5 -147.5t-74 -225q0 -168 112.5 -265.5t336.5 -170.5q205 -70 264 -103q86 -49 86 -102q0 -80 -74 -123t-178 -43q-193 0 -240 57q-25 29 -31 63 t-6 85t-36.5 93t-96.5 42q-59 0 -106 -46t-47 -128z" />
<glyph unicode="T" horiz-adv-x="1165" d="M54 1228q36 -42 106 -42q113 2 276 2q-8 -155 -8 -373v-90q3 -344 3 -487q0 -72 -1 -93q0 -70 42 -105.5t98 -36.5h4q55 -1 97 33q44 34 46 105q1 21 1 93q0 144 -3 493v91q0 221 8 370q160 2 289 2q55 0 88 28.5t43 71.5q4 19 4 38q-1 24 -7 48q-12 43 -45.5 72 t-90.5 29h-136.5h-186.5t-202.5 -1t-186.5 -2t-136 -1q-70 -3 -105 -47q-34 -43 -34 -97q0 -58 37 -101z" />
<glyph unicode="U" horiz-adv-x="1458" d="M115 809q-2 -54 -2 -103q0 -114 10 -200q18 -174 84 -266q88 -126 227 -188q123 -54 248 -55q16 0 33 1q139 8 272 76.5t213 185.5q141 207 150 555q1 28 1 61q0 89 -8 211q-12 201 -12 242q-2 71 -46 105q-42 32 -94 32h-7q-56 -2 -98 -38.5t-42 -106.5q2 -45 15 -250 q6 -123 6 -208v-40q-6 -264 -102 -403q-57 -84 -160 -119q-55 -18 -111 -18q-46 0 -92 12q-102 27 -160 108q-23 33 -32 136q-8 71 -9 172q0 42 2 90q2 74 17 286q8 131 13 211v16q0 69 -40 111q-41 41 -100 43q-59 0 -101.5 -41t-44.5 -100q0 -51 -12 -219 q-14 -201 -18 -299z" />
<glyph unicode="V" horiz-adv-x="1259" d="M45 1280q43 -115 150 -408l159 -440q63 -174 144 -360q23 -53 78 -76q26 -11 53 -11l57 13q10 4 21 12q47 25 65 76q45 117 131 360l156 431q70 188 164 397q15 34 15 64q0 16 -4 31q-12 42 -47.5 69.5t-79.5 33.5q-11 2 -22 2q-32 0 -62 -14q-40 -20 -62 -71 q-137 -315 -334 -869q-57 150 -154 426l-158 432q-25 68 -77 86q-25 8 -49 8q-28 0 -56 -10q-53 -20 -81 -68q-16 -27 -17 -60q0 -25 10 -54z" />
<glyph unicode="W" horiz-adv-x="1892" d="M41 1303q68 -268 158 -625q100 -383 145 -569q10 -53 51 -86q33 -27 74 -27q10 0 20 2q9 -1 18 -1q38 1 71 21q40 26 59 72l309 850q43 -102 94 -262q94 -299 195 -584q23 -56 69 -80q29 -16 61 -15q18 0 38 5q43 4 74.5 33t44.5 72l67 231l80 244q18 63 78 301 q59 238 117 407q7 26 7 48q1 26 -9 48q-18 42 -56.5 64.5t-82.5 23.5h-3q-42 0 -78 -24q-36 -25 -53 -78q-57 -172 -131 -487q-76 -315 -92 -367l-90 309l-146 412q-37 168 -77 199q-40 28 -87 28h-3q-43 0 -80 -23.5t-54 -64.5q-160 -432 -311 -845q-137 555 -199 825 q-12 55 -46.5 81.5t-78.5 30.5q-7 1 -13 0q-37 0 -70 -16q-39 -20 -61 -59q-14 -25 -13 -57q0 -17 4 -37z" />
<glyph unicode="X" horiz-adv-x="1214" d="M41 114q14 -54 58 -86q40 -30 90 -29h9q56 3 97 58l315 441q180 -250 324 -439q35 -55 87 -61q9 -1 18 -1q42 -1 78 23q45 28 61 78q5 15 5 31q0 35 -26 74q-158 231 -381 518l361 518q31 42 31 83q0 14 -2 26q-12 54 -58 86q-42 31 -94 30h-6q-56 -2 -99 -57l-311 -457 q-199 295 -313 459q-37 55 -89 61q-8 1 -17 0q-43 0 -80 -25q-44 -30 -58 -80q-4 -13 -4 -27q0 -37 29 -76q121 -197 366 -533l-364 -504q-31 -42 -31 -83q0 -14 4 -28z" />
<glyph unicode="Y" horiz-adv-x="1204" d="M20 1352q-2 -10 -2 -21q0 -34 21 -71q74 -139 225 -388l205 -340v-116q0 -51 2 -140v-141q2 -57 31.5 -90t72.5 -43q20 -5 39 -5q24 0 48 7q43 12 70 47q26 33 26 84v8q-2 74 -2 234t-2 207q70 123 190 305q225 340 238 360q26 41 26 78q0 7 -2 15q-6 44 -36.5 76 t-72.5 44q-20 7 -41 7q-22 0 -44 -7q-43 -14 -72 -61l-233 -352l-111 -172q-240 397 -307 518q-27 49 -69 65q-26 11 -52 11q-16 0 -33 -5q-43 -10 -74.5 -40.5t-40.5 -73.5z" />
<glyph unicode="Z" horiz-adv-x="1261" d="M37 154v-6q0 -52 35 -94q37 -44 94 -46q178 -8 457 -8q389 8 464 8q66 0 100 42t34 96.5t-34 96.5t-100 42q-80 0 -471 -9q-98 4 -165 5l41 51q434 526 536 653q100 125 166 236q2 6 6 12q31 39 31 92q0 57 -40 98t-95 41q-74 0 -180 -2q-104 -2 -218 -4 q-57 -1 -110.5 -1t-102.5 1q-145 2 -280 10q-7 1 -14 1q-44 -1 -73 -23q-34 -26 -48 -67q-8 -26 -8 -52q0 -16 4 -32q8 -42 37.5 -72.5t84.5 -34.5q132 -9 360 -9q130 0 292 3q-63 -115 -566 -684q-133 -180 -192 -246q-43 -41 -45 -98z" />
<glyph unicode="[" horiz-adv-x="796" d="M147 -51q-14 -96 23 -166q61 -119 250 -158q47 -8 110 -16q10 0 34 -2t32 -4q55 -8 93 15.5t55.5 64.5t12.5 85t-35 76.5t-85 40.5q-12 2 -37 4t-39 5q-49 6 -82 12q-29 6 -47 12q12 61 12 94v189q0 18 -1 64t-1 106.5t-2 122.5q-2 121 -2 215q-2 236 -2 344v108 q12 18 29 25q16 4 65.5 7t90.5 9q55 6 84.5 39t36 77t-10 85t-53.5 65.5t-94 16.5q-16 0 -55.5 -4t-81 -9.5t-62.5 -11.5q-147 -43 -219 -200q-10 -23 -12 -46v-18q-2 -14 -2 -37q-2 -37 -2 -106q0 -111 2 -348q2 -61 3 -136t1 -148t2 -124v-96v-197q0 -4 -4 -22.5t-7 -32.5 z" />
<glyph unicode="\" horiz-adv-x="978" d="M127 1311l438 -1315q16 -55 53 -80t81 -23.5t82 24t56.5 63t2.5 94.5l-434 1302q-14 53 -50.5 80t-80.5 29t-82.5 -18.5t-59 -60.5t-6.5 -95z" />
<glyph unicode="]" horiz-adv-x="704" d="M40 -216q-5 -44 12.5 -84t55.5 -64.5t93 -16.5q14 2 16 2q2 -2 21 -2h43q111 2 178 59q35 31 53 82q8 27 16 62q10 53 17 141q10 139 10 369q0 156 -6 385l-4 227v78q-2 51 -2 76q0 6 2 21.5t4 25.5l8 37q18 127 -48.5 206.5t-195.5 81.5q-16 0 -45.5 -1t-38.5 1 q-57 10 -95 -12t-56.5 -63t-14 -85t33 -78t83.5 -44q31 -4 86 -4q-10 -55 -10 -86q0 -27 2 -78v-76q0 -2 6 -229q4 -227 4 -383q0 -221 -8 -348q-4 -45 -8 -78q-59 0 -92 -4q-55 -8 -85 -41t-35 -77z" />
<glyph unicode="^" horiz-adv-x="1079" d="M118.5 639.5q24.5 -47.5 74 -68t99.5 -6t77 75.5q94 223 202 428l209 -436q29 -61 80 -73.5t99.5 10t71 70.5t-4.5 108q-211 444 -332 671q-27 49 -80 65.5t-102 -9.5q-45 -23 -63 -72q-8 -10 -15 -21q-172 -301 -315 -634q-25 -61 -0.5 -108.5z" />
<glyph unicode="_" horiz-adv-x="1163" d="M-54.5 -174q-11.5 -43 0 -86t45.5 -71.5t91 -28.5h999q57 0 91 28.5t45.5 71.5t0 86t-45 71.5t-91.5 28.5h-999q-57 0 -91 -28.5t-45.5 -71.5z" />
<glyph unicode="`" horiz-adv-x="446" d="M2 1498q-6 -56 35 -105l160 -176q39 -46 98 -50q63 -2 103 37t46.5 95.5t-34.5 105.5l-160 176q-39 45 -98 49q-63 2 -103.5 -37t-46.5 -95z" />
<glyph unicode="a" d="M74 449q0 -59 12 -123q16 -96 86 -179q72 -80 178 -120q86 -29 160 -29q80 4 160 37q68 27 114 84q16 -67 54 -93q36 -24 79 -24h7q57 2 93 44t44 101q4 29 4 62q-2 31 -6 133l-4 111q-6 217 -11 307l-14 141q-6 53 -46 90t-91 37l-21 -2h-10q-45 31 -92 43 q-72 16 -133 16q-170 0 -303 -104t-207 -274q-53 -121 -53 -258zM356 442q0 63 33 144q41 102 109.5 159.5t142.5 57.5q18 0 51 -8l19 -13l28 -22l21 -15q10 -119 10 -290q-16 -6 -29 -21l-34 -49l-31 -29q-20 -20 -37 -30q-66 -39 -127 -39q-27 0 -57 10q-98 35 -99 145z " />
<glyph unicode="b" horiz-adv-x="1204" d="M113 150v-5q0 -55 39 -97q41 -44 100 -46h4q64 0 106 70l25 -17q102 -54 229 -54q38 0 78 5q135 14 231.5 82t147.5 174q53 110 52 230q0 80 -23 165q-57 227 -221 351q-94 72 -205 88q-29 4 -59 4q-88 0 -185 -35l-29 -12v145q-2 100 -2 133q-2 71 -46 105 q-43 34 -97 33h-3q-56 -1 -98 -36.5t-42 -105.5q5 -370 5 -647q0 -333 -7 -530zM406 444q2 98 2 238l2 2q12 33 49 64q66 45 80 51q37 15 72 15q52 0 98 -34q84 -63 116 -194q14 -47 14 -91q0 -57 -24 -110q-40 -84 -149 -96q-20 -2 -38 -2q-64 0 -106 22q-14 6 -39 37 l-34 45q-23 31 -43 53z" />
<glyph unicode="c" horiz-adv-x="1120" d="M80 465q8 -96 53 -183t115.5 -155t159.5 -102q84 -33 174 -41q18 -2 37 -2q72 0 147 26q96 29 166 101q45 45 78 122q8 14 19 41t18 41q18 35 18 66q1 13 -3 25q-10 42 -43.5 71t-75.5 39q-15 4 -30 4q-26 0 -53 -12q-41 -18 -67 -66q-2 -4 -45 -98q-14 -33 -25 -43 q-31 -31 -81 -38q-10 -1 -22 -1q-43 0 -100 21q-68 27 -108.5 87t-44.5 117q-1 11 -1 22q0 51 22 109q28 70 77 121q65 69 139 69q32 0 66 -13q12 -6 37 -27q74 -63 77 -66q43 -34 86 -34h4q44 2 78 28q34 27 52 66q12 27 13 55q0 13 -3 27q-8 43 -53 78l-37 30 q-23 20 -27 25q-61 51 -117 74q-83 36 -164 36q-18 1 -38 -1q-100 -10 -179 -50q-80 -41 -143 -106q-88 -90 -136 -216q-41 -108 -41 -212q0 -18 1 -35z" />
<glyph unicode="d" horiz-adv-x="1196" d="M146.5 219q68.5 -117 177.5 -178q108 -61 225 -61q98 0 162.5 38.5t109.5 104.5q6 -70 42 -103.5t91 -33.5q61 0 95 40t34 113q0 184 -10 1190q-2 66 -45 102.5t-98 36.5q-57 0 -100.5 -37.5t-43.5 -105.5q2 -31 5 -270q-96 37 -201 37q-145 0 -263 -81t-184 -218 q-65 -135 -65 -294q0 -163 68.5 -280zM362 516q0 82 28 149.5t78 108.5t120 41q80 0 133 -35q31 -23 51 -39q18 -18 23 -22q0 -82 4 -258q-10 -10 -25 -47q-29 -82 -65 -119q-43 -43 -109 -43q-106 0 -172 74.5t-66 189.5z" />
<glyph unicode="e" horiz-adv-x="1177" d="M82 496q0 -141 64.5 -258t187.5 -187q123 -69 287 -69q106 0 209.5 34.5t168.5 94.5q66 59 66 125q0 47 -36 82.5t-89 35.5q-47 0 -73.5 -21.5t-57.5 -51.5q-29 -27 -65.5 -40.5t-98.5 -15.5h-18q-121 1 -183 53q-66 56 -79 156l71 -2q129 -6 242 -6q119 0 272 14 q76 6 121 45t45 109q0 137 -57.5 248.5t-169.5 177.5q-113 65 -270 65h-5q-156 0 -278.5 -75.5t-188.5 -204.5q-65 -129 -65 -304v-5zM369 643q14 106 79.5 151.5t169.5 47.5h9q119 0 165 -52q48 -54 52 -141q-66 -16 -207 -18q-29 -1 -58 -1q-113 0 -210 13z" />
<glyph unicode="f" horiz-adv-x="765" d="M25 897q0 -57 34.5 -94t96.5 -37h24q2 -61 2 -176q0 -168 -6 -365l-2 -73v-6q0 -68 41 -106q43 -40 102 -40q57 0 99.5 35t44.5 96l2 78q6 184 6 336q0 66 -4 221h76q70 0 109.5 42t39.5 101q0 57 -37 98.5t-104 43.5l-103 2v4q0 29 -2 51q-2 23 0 37q6 61 72 61 q39 0 88 -20q45 -16 72 -17q49 0 82 38t33 87q0 94 -94.5 142.5t-229.5 48.5q-143 -4 -223 -89t-80 -239v-113h-29q-49 0 -79.5 -39.5t-30.5 -107.5z" />
<glyph unicode="g" horiz-adv-x="1161" d="M74 512q0 -152 60.5 -269.5t160.5 -181.5q99 -65 215 -65h4q88 0 165 30.5t118 96.5q-18 -125 -75.5 -207t-156.5 -82q-51 0 -96 25.5t-90 85.5q-39 53 -107 53q-57 0 -96 -39t-39 -98q0 -37 19.5 -72t64.5 -74q78 -70 155 -103.5t175 -33.5q96 0 170 31t135 92 q88 92 138 203.5t55 234.5q3 208 3 408.5t-3 392.5q-2 68 -36 105.5t-89 37.5q-102 0 -129 -63q-119 65 -225 65h-3q-145 0 -257.5 -72.5t-174.5 -201.5q-61 -131 -61 -299zM344 512q0 143 54.5 225t168.5 82q68 0 113 -15.5t92 -51.5q2 -47 2 -306q-10 -25 -27.5 -55.5 t-39.5 -52.5q-76 -76 -160 -76q-92 0 -147.5 68.5t-55.5 181.5z" />
<glyph unicode="h" horiz-adv-x="1118" d="M113 1350q0 -240 8 -633t8 -584q0 -68 43 -104.5t100 -36.5t100.5 37t43.5 104q0 190 -8 586q35 39 98 69q59 27 123 27q86 0 106 -61q6 -16 10 -88l3 -84l-3 -111l-12 -334v-6q0 -63 39 -97q41 -36 98 -36q53 0 92 32.5t42 94.5l12 342v80q0 94 -2 129q-4 117 -29 190 q-35 100 -132 162t-216 62q-84 0 -150 -33q-45 -23 -86 -53q-2 104 -2 346q0 68 -43 104.5t-100 36.5t-100 -37t-43 -104z" />
<glyph unicode="i" horiz-adv-x="501" d="M92 1319q4 -47 45 -88t87 -45q7 -1 13 -1q39 1 73 21q40 24 62 63q19 34 19 72v14q-4 46 -45 85q-41 43 -87 47q-7 1 -13 0q-38 1 -72 -19q-38 -24 -62 -63q-20 -33 -21 -72q0 -7 1 -14zM102 139q2 -71 46 -105q43 -34 98 -33h3q56 1 98 37t42 105q-2 138 -2 273 q0 269 8 524v8q1 52 -25 84q-28 34 -71 48q-25 8 -50 8l-36 -4q-43 -10 -72.5 -42t-31.5 -90q-9 -259 -9 -544q0 -132 2 -269z" />
<glyph unicode="j" horiz-adv-x="546" d="M-92 -251q-2 -12 -2 -24q0 -31 12 -61q16 -41 53 -66q28 -18 66 -18q12 0 26 2q0 4 31 0h27.5h25.5q104 0 170 45q66 43 93 144q16 59 24 147q12 117 12 365q0 76 -2 168t-5 187t-7 177q-6 123 -6 135q-2 57 -31.5 90t-72.5 42q-19 5 -37 5l-49 -7q-43 -13 -71 -48 q-26 -33 -26 -83v-7q4 -27 7.5 -90.5t5.5 -145t4 -167.5q4 -143 6 -258q0 -211 -12 -334q-2 -23 -4.5 -43.5t-6.5 -36.5q-25 1 -45 1h-20q-27 -1 -43 -3q-57 -6 -87 -39t-36 -77zM114 1317q3 -45 44 -84q41 -41 85 -44h10q38 0 71 19q38 23 61 61q19 32 19 68v14 q-5 44 -46 83q-39 41 -83 45q-7 1 -13 1q-37 0 -68 -20q-38 -22 -60 -60q-20 -34 -20 -73v-10z" />
<glyph unicode="k" horiz-adv-x="1073" d="M113 1321q21 -644 21 -1009q0 -95 -1 -171q0 -70 42 -105q43 -36 99 -37h3q55 0 97 34q44 35 46 104v166q4 4 8 6l82 78q117 -172 287 -346q39 -41 83 -45q7 -1 14 -1q36 1 68 19q38 22 62 59q20 33 20 70v12q-4 44 -43 83q-168 172 -282 354l244 250q39 43 41 87v7 q0 40 -22 75q-24 39 -62 59q-30 16 -65 16q-9 0 -18 -2q-44 -6 -83 -46q-176 -188 -336 -344q-6 281 -19 639q-4 69 -49 103q-42 32 -95 32h-6q-56 -2 -97 -38q-39 -35 -39 -102v-7z" />
<glyph unicode="l" horiz-adv-x="514" d="M113 121q0 -70 42 -105.5t98 -37.5h5q53 0 95 34q44 35 46 105q0 70 1 170t1 213.5v225.5v204q-2 244 -2 407q0 57 -28.5 91t-71.5 46q-22 6 -43 5l-43 -5q-43 -12 -71.5 -45.5t-28.5 -91.5l2 -626q1 -197 1 -328q0 -262 -3 -262z" />
<glyph unicode="m" horiz-adv-x="1746" d="M113 938q6 -600 6 -795q0 -57 28.5 -91t71.5 -45q22 -5 43 -5l43 5q43 11 72 45t29 91q0 203 -5 576v8q4 16 7 23q22 35 70 54q36 14 79 14q13 0 27 -1q55 -4 92 -29.5t49 -64.5q10 -33 16 -76q0 -8 2 -16q7 -49 9 -126q1 -43 1 -78q0 -28 -1 -50l-4 -119q-4 -86 -7 -121 v-6q0 -61 37 -95q40 -34 94 -36h6q51 0 90 30q42 32 44 99q0 96 4 177t6 162v28q0 70 -8 153q2 14 4 33v7v5l4 17v7v5q4 16 6 22q23 35 71 55q37 15 79 14q13 0 26 -1q55 -4 92 -29.5t50 -64.5q10 -33 16 -86t9 -107.5t3 -89.5q-2 -78 -7 -160.5t-5 -136.5v-6q0 -61 37 -95 q39 -34 93 -36h6q50 0 90 31q42 33 44 98q0 43 5 129t8 176q0 43 -4.5 110.5t-13.5 137.5t-23 117q-41 127 -145.5 198.5t-231.5 83.5q-21 2 -43 2q-72 -1 -144 -21q-94 -26 -168 -89q-109 98 -266 112q-24 2 -47 2q-107 0 -205 -45q-43 39 -100 39q-59 -2 -100 -44 t-41 -101z" />
<glyph unicode="n" horiz-adv-x="1142" d="M111 903q6 -57 9 -140t6 -176t4 -181.5t1 -158v-104.5q0 -57 28.5 -91t71.5 -45q22 -5 43 -5l43 5q43 11 72 45t29 91q0 96 -2 283q-2 184 -2 256q0 18 1 27.5t9 35.5q23 35 71 55q37 15 79 14q13 0 26 -1q55 -4 92 -29.5t49 -64.5q16 -49 22.5 -130t6.5 -143 q-2 -82 -7 -169t-5 -140v-6q0 -61 37 -95q39 -34 93 -36h6q50 0 90 30q42 32 44 99q0 43 5 132t7 185q0 47 -4 113t-13 130.5t-24 111.5q-41 127 -133 203.5t-237 78.5q-166 -6 -260 -125q-18 100 -129 107q-60 0 -100 -44q-31 -34 -31 -87q0 -15 2 -31z" />
<glyph unicode="o" horiz-adv-x="1167" d="M82 444q20 -166 123 -294q100 -129 278 -164q73 -15 137 -15q79 0 144 23q96 35 168 119t106 178q35 92 45 192q8 44 8 91q0 55 -11 114q-21 109 -79.5 200t-150.5 136q-66 33 -258 63q-31 15 -63 15q-26 0 -52 -10q-8 -4 -24 -9q-41 -12 -43 -12q-74 -23 -121 -63 q-80 -68 -130 -160q-49 -92 -69 -196q-12 -65 -13 -129q0 -40 5 -79zM367 477q-3 26 -4 51q1 65 23 127q30 86 87 136l21 8q2 0 36 10q59 -14 107.5 -19.5t89.5 -23.5q37 -18 55 -70q19 -52 20 -118v-8q0 -62 -14 -124q-16 -66 -45.5 -115.5t-72.5 -66.5q-22 -8 -55.5 -8 t-77.5 8q-150 31 -170 213z" />
<glyph unicode="p" d="M113 -266q0 -70 42 -106t98 -37h3q54 0 97 34q44 35 46 105q2 178 4 333q55 -37 113 -53q44 -13 92 -13q103 0 223 60q102 51 165 132t88 179q21 78 21 159q0 19 -1 39q-6 100 -41 190q-82 209 -258 291q-85 38 -173 38q-121 0 -249 -71q-42 67 -119 67h-2 q-59 0 -101 -42t-42 -101q0 -850 -6 -1204zM406 418v235q74 113 141 139q30 12 61 12q38 0 78 -18q70 -33 115 -133q21 -65 21 -126q0 -44 -11 -86q-27 -99 -106 -140q-60 -29 -92 -29q-8 0 -15 2q-49 0 -100.5 34t-91.5 110z" />
<glyph unicode="q" horiz-adv-x="1177" d="M78 526q4 -129 51 -249.5t139 -196.5q105 -81 227 -81h14q130 5 265 91q-2 -152 -6 -356q0 -70 42 -107t98 -39h7q52 0 94 32q44 34 46 106q10 480 10 885q0 173 -2 333q-2 59 -44 100t-101 41q-41 -2 -76 -24.5t-51 -59.5q-153 89 -294 89h-9q-146 -3 -252 -105 q-88 -82 -126 -208q-33 -109 -33 -217q0 -17 1 -34zM348 562q2 69 23 116q29 70 57 90q57 45 130 45q48 0 104 -20q47 -20 77.5 -51t42.5 -60l-2 -207q-49 -139 -122 -174q-37 -17 -83.5 -17t-101.5 17q-70 51 -99 122q-26 66 -26 131v8z" />
<glyph unicode="r" horiz-adv-x="817" d="M113 920q0 -184 2 -412q-4 -23 0 -47q0 -117 2 -320q0 -57 43 -98q43 -43 97 -43h5q57 2 99 42t42 103q-2 236 -4 365q-3 52 -3 93q0 55 5 93q133 63 322 129q63 23 81 72q9 24 8 49q0 24 -8 50q-18 50 -63 78q-25 15 -54 15q-25 0 -54 -10q-164 -57 -246 -102 q-16 59 -52 82.5t-79 23.5q-59 0 -101 -42t-42 -121z" />
<glyph unicode="s" horiz-adv-x="1007" d="M55 285q0 -29 19 -64l18 -33l14 -24q35 -57 78 -92q57 -41 142.5 -63.5t175.5 -22.5q49 0 94 6q135 20 232.5 90t115.5 197q2 14 2 40q0 82 -39 149t-106 112q-43 31 -82 49q-41 16 -74 30q-49 23 -96 37q-70 23 -107 39q-31 14 -43 23q-14 8 -14 20q0 18 27 29 q37 10 88 10q55 0 116 -20q16 -6 52 -31l49 -37q43 -29 86 -29q55 0 93 43t38 97q0 57 -43 94q-135 123 -316 141q-41 4 -61 4q-104 0 -203 -39q-150 -61 -190 -161q-20 -43 -21 -93q0 -59 31 -120q45 -94 195 -160q33 -16 108 -43l90 -35q96 -39 123 -63q23 -23 23 -48v-8 q-4 -45 -113 -67q-43 -6 -72 -6q-39 0 -92 16q-35 14 -47 39l-12 24l-25 41q-41 61 -110 62q-55 0 -99.5 -40t-44.5 -93z" />
<glyph unicode="t" horiz-adv-x="684" d="M-20 958q0 -55 37.5 -91t88.5 -36h39q-2 -45 -2 -133q0 -217 2 -276v-41q2 -86 10.5 -130t43.5 -89q41 -41 123 -88l53 -31q20 -12 43 -20q39 -27 80 -27q57 0 98 46t41 103q0 72 -64 115q-27 20 -63 37l-16 8l-19 10l-16 9l-21 14q-2 0 -10 8q-8 96 -8 227q0 80 2 123 q2 41 2 125h76q76 0 114.5 40t38.5 97q0 59 -36.5 98.5t-110.5 39.5h-76l4 139q0 68 -44 106.5t-101 38.5q-55 0 -97 -35.5t-45 -101.5v-63l-2 -88h-36q-51 0 -90 -38t-39 -96z" />
<glyph unicode="u" horiz-adv-x="1148" d="M98 574q-2 -28 -2 -51q0 -34 4 -56q8 -106 43 -200.5t107 -164t190 -102.5q38 -6 73 -6q163 0 259 135q0 -104 117 -149q59 0 102 40q43 43 43 101q2 259 2 464t-2 357q-2 57 -32 91q-29 33 -72 45q-21 6 -41 6q-22 0 -44 -6q-42 -12 -71 -47.5t-29 -92.5q3 -190 3 -421 v-118q-12 -8 -25 -20q-55 -87 -111 -107q-34 -12 -64 -12q-19 0 -36 4q-68 16 -99.5 68.5t-39.5 152.5q-4 21 -4 52q0 21 2 47q4 64 11 130t13 109l15 107q1 12 1 23q0 51 -30 83q-37 38 -90 45q-9 1 -18 1q-43 0 -81 -24q-46 -28 -55 -95q-4 -33 -12 -99.5t-15.5 -143 t-11.5 -146.5z" />
<glyph unicode="v" horiz-adv-x="972" d="M16 991q-8 -19 -7 -39q0 -33 20 -69q162 -334 293 -766q2 -4 2 -11q16 -69 79 -98q26 -10 51 -10q26 0 52 12q50 22 74 72l32 80q27 68 35 88q6 18 31 76l35 82l32 71l146 303l43 92q26 43 26 80q0 16 -4 30q-16 48 -59 74q-32 19 -67 18q-13 0 -26 -2q-50 -9 -83 -62 q-117 -217 -236 -518q-109 287 -221 520q-31 60 -82 70q-14 3 -28 2q-36 0 -70 -19q-48 -27 -68 -76z" />
<glyph unicode="w" horiz-adv-x="1341" d="M33 868q100 -393 190 -688q31 -104 72 -145t100 -41q117 0 162 153l115 400l145 -443q16 -49 54 -78.5t87 -29.5t90.5 29.5t59.5 87.5q90 295 197 768q6 29 6 55q0 47 -21 84q-33 57 -106 57q-115 0 -144 -139l-86 -430l-129 438q-16 59 -53 87t-84 28t-85 -31t-56 -92 l-53 -195q-43 -176 -72 -258l-14 54q-63 238 -103 417q-27 121 -133 121q-78 -1 -119 -63q-27 -41 -27 -92q0 -26 7 -54z" />
<glyph unicode="x" horiz-adv-x="901" d="M7 928q0 -45 34 -88l231 -295q-111 -170 -202 -326q-23 -39 -23 -76q0 -9 1 -18q7 -45 38 -78t74 -45q20 -6 40 -6l46 8q43 14 73 64q63 111 142 223l166 -234q33 -47 75 -58q18 -5 36 -5q24 0 49 9q42 15 71 51t33 81v10q0 40 -29 82l-229 324l201 291q33 44 33 87 q-1 3 -1 6q-2 46 -29.5 82t-68.5 53q-27 11 -55 11q-15 0 -30 -3q-44 -9 -77 -54l-157 -229l-183 231q-37 45 -82 53q-14 2 -27 2q-30 0 -58 -12q-39 -18 -65 -55q-26 -39 -27 -86z" />
<glyph unicode="y" horiz-adv-x="937" d="M20 988q-6 -18 -6 -38q0 -27 11 -57l288 -782q2 -10 9 -19q-35 -55 -74 -102q-29 -37 -79 -79t-95 -85q-43 -43 -43 -92v-8q4 -54 41 -93t89 -45q6 -1 12 -1q46 0 89 42q10 12 51 49l82 74q39 35 66 70q39 49 75.5 103.5t69.5 117.5l58 111q25 49 53 122l45 119 q51 125 78.5 261.5t66.5 250.5q7 25 7 47q0 36 -18 63q-30 44 -81 59q-21 6 -42 6q-29 0 -58 -12q-49 -21 -66 -85q-113 -420 -160 -545l-198 555q-20 53 -58 75q-30 18 -65 18q-9 0 -18 -2q-44 -5 -79.5 -30.5t-50.5 -67.5z" />
<glyph unicode="z" horiz-adv-x="1003" d="M33 932q0 -55 39 -94t104 -41q45 0 139 -4q61 -2 117 -5q28 -1 56 -1t55 1q-78 -94 -147.5 -175t-131.5 -150q-147 -172 -176 -211q-29 -41 -39 -64.5t-10 -46.5q0 -68 57 -112q33 -25 88 -25l193 -2q33 -2 84 -2q186 0 387 10q61 4 94 43t33 92q0 57 -39 99 q-36 38 -94 37h-11q-203 -10 -397 -11q84 88 160 181l240 290q47 57 69.5 98.5t22.5 80.5q0 53 -40 94t-100 43q-358 10 -626 10q-61 0 -94 -41t-33 -94z" />
<glyph unicode="{" horiz-adv-x="1015" d="M111 592q-18 -53 5 -104.5t74 -69.5q27 -10 78 -21l2 -14q2 -33 2 -39q4 -35 -4 -123q-8 -113 0 -176q31 -246 205 -358q123 -78 354 -101q66 -4 103 33t42 90t-24.5 96t-95.5 52q-166 14 -231 57q-70 45 -86 164q-4 35 4 121q10 113 4 174q-2 4 -4 33t-7 49 q-10 66 -43 110q10 12 21 27q57 78 80 227l12 103l12 108q14 94 35 129q20 33 53 37l9 -4q6 -2 16 -6q10 -6 12 -6q27 -12 49 -21q63 -20 107.5 8.5t61 78.5t-3 99.5t-83.5 71.5q-4 2 -16 6q-35 16 -37 17q-72 33 -133 26q-281 -27 -336 -395q-6 -37 -12 -108 q-8 -72 -14 -105q-12 -84 -29 -106q-6 -8 -27 -23q-74 -49 -78 -51q-8 -6 -14 -14q-45 -25 -63 -72z" />
<glyph unicode="|" horiz-adv-x="503" d="M102 137q-2 -72 39 -108.5t97.5 -38.5t101.5 31.5t49 103.5q4 111 7 224.5t5 246.5v219v533q0 57 -28.5 91t-71.5 45t-86 0t-71.5 -45t-28.5 -91q0 -82 1 -196t1 -233.5v-222.5q-2 -57 -3 -154.5t-4.5 -206t-7.5 -198.5z" />
<glyph unicode="}" horiz-adv-x="935" d="M31.5 1290q17.5 -47 95.5 -78q20 -8 49 -16q12 -6 37 -6h47.5t30.5 -4l18 -6q43 -39 47 -224q0 -4 1 -30.5t3 -61.5t4.5 -66.5t4.5 -43.5l10 -56q8 -33 29.5 -83t46.5 -78q14 -20 34 -39q-98 -123 -102 -289v-57q0 -39 -2 -54l-6 -41q-4 -29 -14.5 -51t-28.5 -51 q-12 -20 -96 -47l-58 -35q-39 -27 -65 -47q-55 -41 -60.5 -91t28.5 -90t95.5 -52.5t141.5 20.5q16 12 45 31l61 37q92 61 137 131q31 47 51 94q23 57 32 131t9 115v51q0 29 10.5 66.5t45.5 72.5q39 41 76.5 79t47 80t-31.5 95q-10 12 -23 22q-12 14 -26 25q-14 12 -39 27 l-29 18q-16 8 -20 12q-23 31 -29 86q-8 53 -12 177q0 66 -7.5 140.5t-37 148t-97.5 132.5q-43 39 -114 60q-2 0 -39 12l-25 6q-94 14 -162.5 -10.5t-99.5 -69.5t-13.5 -92z" />
<glyph unicode="~" horiz-adv-x="1441" d="M106.5 507q-8.5 -42 9 -80t51.5 -62.5t76 -25.5t83 34q4 2 61 55q16 14 25 18q41 16 84 11.5t122 -33.5q12 -6 47 -18.5t71 -22.5t50 -14q103 -23 218 -7l28 11q16 4 43 16t43 21l21 12q10 6 16 8l6 4q61 29 73.5 80t-10 99.5t-70.5 71t-107 -4.5q-23 -10 -56 -29.5 t-45 -21.5q-20 -6 -48 -4t-50 8q-6 0 -34 9t-58.5 19.5t-46.5 16.5q-57 20 -86 27q-72 20 -155 23t-167 -36q-47 -20 -96 -65q-16 -16 -33 -29l-14 -16q-43 -33 -51.5 -75z" />
<glyph unicode="&#xa1;" horiz-adv-x="571" d="M121 891q4 -45 45 -84q39 -41 84 -45t83 18.5t60.5 61.5t18.5 83t-45 83q-39 41 -83 45t-83 -18.5t-61.5 -60.5t-18.5 -83zM145 541q-2 -123 1.5 -256t9.5 -314l6 -256q2 -72 46 -105.5t100.5 -31.5t98.5 39t42 107q-2 68 -5.5 163t-6.5 199t-5 197q-2 131 0 254 q0 70 -42 105.5t-98 36.5t-100.5 -34t-46.5 -104z" />
<glyph unicode="&#xa2;" horiz-adv-x="1167" d="M80 567q-14 -147 41 -297q55 -147 176 -233l-29 -84q-18 -53 -1.5 -94t53 -66.5t79.5 -29t82.5 19.5t57.5 76l32 94h17q160 2 272 80q59 41 115 119l35 49q16 25 28 39q35 43 34 87t-26.5 79.5t-64.5 54t-83 11.5t-81 -52q-16 -20 -41 -55l-33 -48q-27 -37 -43 -47 q-14 -10 -32 -16q59 190 125 430l43 -47q37 -43 81 -49t82.5 13.5t63 56t23.5 81.5t-37 86l-33 41l-41 47q-14 16 -42 40t-56 42l18 68q16 55 -3.5 95t-57 61.5t-82.5 21.5t-81 -24.5t-50 -79.5l-19 -68q-199 4 -338 -119q-162 -141 -184 -383zM365 541q10 129 88 194 q31 27 69 39q-66 -240 -123 -426q-45 80 -34 193z" />
<glyph unicode="&#xa3;" horiz-adv-x="1273" d="M96 682q2 -59 44 -100t102 -41q43 2 92 2q4 -80 -66 -178v-3q-8 -4 -22.5 -12t-18.5 -12q-47 -29 -71 -64q-63 -88 -15 -182q47 -88 150 -92q43 -2 94 16l51 21q125 8 170 2q53 -8 78 -16q2 -2 29 -17q47 -27 103.5 -35t152.5 -4q25 2 65.5 11.5t63.5 17.5l32 12l13 4 q55 14 79.5 50t24.5 81t-21.5 83t-61.5 57.5t-95 3.5q-39 -10 -61 -19q-23 -8 -31 -10q-8 -4 -21 -4q-76 -4 -102 0q-35 23 -68 35q-55 20 -143 33q-31 4 -68 6q49 109 43 225q82 2 146 2q70 2 104.5 46t33.5 100.5t-37 98.5t-105 42q-84 -2 -221 -6q-29 61 -39 92 q-35 84 14 147q20 27 64.5 47.5t99.5 22.5q104 4 141 -55q6 -10 15 -39l6 -27l2 -16q8 -35 14 -58q18 -55 55 -78.5t81 -21.5t81 25.5t55.5 63.5t1.5 93q-4 12 -8 33q-10 47 -10 49q-18 78 -51 131q-66 100 -173.5 145.5t-221.5 39.5q-109 -4 -211.5 -50.5t-165.5 -128.5 q-143 -186 -58 -422v-2q-57 -4 -96 -46t-39 -99z" />
<glyph unicode="&#xa4;" horiz-adv-x="1189" d="M89 1034q5 -45 46 -84l78 -71q-33 -74 -39 -156q-12 -123 33 -231l-55 -56q-41 -39 -45.5 -83t17 -83t59.5 -61.5t82 -19.5t83 42l53 52q117 -53 221.5 -50t198.5 52l45 -47q39 -41 83 -46.5t83 16t61.5 58.5t20.5 82t-39 86l-53 55q49 84 42 195t-79 201l70 59 q41 37 47 81t-12.5 84t-54.5 65.5t-81 24.5t-88 -38l-121 -104v-2q-45 63 -122 61h-23q-39 2 -41 2q-76 4 -133 -20l-20 -8l-74 69q-41 39 -86 41t-82 -20.5t-58.5 -61.5t-16.5 -84zM459 698q6 84 57 125l12 -8q31 -12 78 -29q8 -2 30.5 -10t33.5 -12q53 -18 73 -37 q76 -70 -6 -154q-43 -45 -102 -53t-125 29q-25 18 -40 57t-11 92z" />
<glyph unicode="&#xa5;" horiz-adv-x="1259" d="M92 866q0 -59 41 -101t100 -44l148 -2l33 -60h-144q-57 0 -91 -28.5t-45 -71.5t0 -86t45 -71.5t91 -28.5h211q0 -86 -2 -232q0 -70 42 -105.5t98.5 -36.5t100.5 33.5t46 104.5q2 135 0 232l215 -9q57 -2 92 26t48.5 71t4 86t-42 72.5t-90.5 31.5q-92 2 -190 6l45 72 l164 -2q59 0 101 41t44 100q0 55 -35 95t-86 49l123 174q33 47 30 91t-32 77.5t-69.5 49t-85 5.5t-76.5 -55q-168 -233 -312 -461l-254 446q-29 47 -71.5 61.5t-84.5 2t-73 -43t-38 -74.5t22 -93l106 -182q-53 -4 -90 -44t-39 -96z" />
<glyph unicode="&#xa6;" horiz-adv-x="501" d="M102 1034q0 -70 42 -105.5t98.5 -36.5t100.5 33.5t46 104.5l4 299q0 70 -42 105.5t-98 37t-100 -33.5t-47 -105zM104 147q0 -70 42 -106.5t98.5 -38.5t100.5 31.5t46 105.5l8 322q0 70 -42 106.5t-98 38.5t-100 -31.5t-46 -105.5z" />
<glyph unicode="&#xa7;" horiz-adv-x="1234" d="M119 569q16 -70 60 -123t96.5 -94t99.5 -67q57 -39 103 -65.5t88 -54.5t91 -67q90 -76 84 -137q-4 -29 -29.5 -53.5t-76.5 -34.5q-49 -10 -89 2t-57 37l-4 16q-2 6 -4 19.5t-2 15.5q-6 31 -12 53q-16 53 -53 78t-81 24t-82 -23.5t-56.5 -63.5t-1.5 -97q2 -6 6 -22l6 -41 q16 -76 51 -127q76 -104 197.5 -140.5t240.5 -9.5q123 25 218.5 111t111.5 223q10 88 -18 168q55 47 84 101q109 209 -7 387q-70 109 -252 215l-135 73q-82 45 -114 66l-47 33l-9 8q-35 29 -39 49q-10 39 3.5 62.5t56.5 37.5q53 16 102 9t80 -31q2 -4 2 -8q25 -82 27 -88 q20 -53 60 -74t84 -15.5t80 32t49 68.5t-7 95q-4 6 -9 27.5t-9 34.5q-25 82 -74 131q-61 59 -147.5 88.5t-170.5 29.5q-84 -2 -159 -28q-90 -31 -156 -94.5t-91.5 -152.5t1.5 -198q10 -37 29 -69q-156 -154 -119 -316zM399 629q6 23 45 57q47 -29 115 -65l129 -70 q123 -72 156 -123q25 -37 -8 -100l-5 -4q-43 35 -95 70.5t-122 76.5l-86 53q-111 72 -129 105z" />
<glyph unicode="&#xa8;" horiz-adv-x="696" d="M-1 1367q5 -48 40 -85q39 -47 97.5 -50t105.5 28t59 88q10 51 -4 102q-14 49 -66 68q-23 12 -49 14q-16 2 -37.5 1t-46.5 -9q-55 -20 -79.5 -64.5t-19.5 -92.5zM397.5 1401.5q-12.5 -66.5 34.5 -121.5q37 -45 95.5 -48t107.5 27t57 87q8 53 -4 88q-16 45 -37 63 q-23 18 -45 27q-27 8 -61 8q-53 2 -86 -25q-49 -39 -61.5 -105.5z" />
<glyph unicode="&#xa9;" horiz-adv-x="1644" d="M136 824.5q-34 -148.5 5 -279.5q37 -133 121 -248t213.5 -191.5t276.5 -103.5q164 -27 319.5 23.5t265.5 154.5q109 102 163 258t28 324q-18 117 -83 235.5t-159 215t-205 141.5q-33 12 -83 23.5t-98 19.5t-77 12q-49 10 -90 -20q-25 -2 -43 -5q-223 -37 -416 -278 q-104 -133 -138 -281.5zM348 739q12 125 98 232q139 176 277 196q2 6 57 4q53 -4 80 -2q18 0 35 7q66 -10 104 -27q106 -41 199 -170q92 -127 113 -254q18 -111 -17 -213q-74 -211 -288 -279q-105 -34 -218 -14q-141 23 -247.5 103.5t-155.5 187.5q-49 104 -37 229z M478 701.5q5 -58.5 24.5 -117t48.5 -99.5q53 -76 135 -118.5t197 -28.5q61 6 133 47l45 25q20 12 33 18q53 25 65 70t-7 88t-61 63.5t-96 -4.5q-23 -10 -53 -27l-41 -24q-31 -16 -47 -19q-63 -6 -106 48.5t-29 140.5q10 57 47 70q72 20 217 -82q49 -35 94 -22t73 52t24.5 85 t-52.5 81q-242 170 -424 115q-94 -27 -147 -98.5t-68 -161.5q-10 -43 -5 -101.5z" />
<glyph unicode="&#xaa;" horiz-adv-x="856" d="M57 1106q0 -135 81 -214t204 -79q135 0 217 123q12 -45 63.5 -83t108.5 -38q47 0 76 27.5t29 68.5t-48 76q-33 25 -51 47.5t-18 50.5q0 31 12 80q12 45 12 66q0 51 -28 57q6 33 -11.5 67t-39.5 54q-82 66 -213 66q-94 0 -185.5 -48.5t-148.5 -132.5q-59 -86 -60 -188z M270 1122q0 61 49.5 102.5t118.5 41.5q27 0 43 -9q2 0 23 -20q4 -2 7 -4l9 -6q8 -6 15 -8q-16 -18 -19 -66q-4 -49 -46 -90t-95 -41q-45 0 -75 25.5t-30 74.5z" />
<glyph unicode="&#xab;" horiz-adv-x="1341" d="M125 592q-23 -119 102 -227q58 -49 224 -162q47 -31 91 -26t77.5 34t48 71t2 85t-59.5 73q-111 74 -157 109l170 104q49 31 62 73t0 83t-46 71.5t-77 37t-91 -22.5q-35 -23 -106 -66q-70 -43 -99 -61q-123 -84 -141 -176zM647 553q0 -98 107 -191q57 -48 223 -161 q37 -25 80 -25t78 25q35 16 55 47q33 49 21.5 107.5t-60.5 90.5q-111 74 -158 109l170 104q49 31 62.5 73t0 83t-46 72t-76.5 37t-91 -23l-2 -2q-6 -2 -13 -6q-35 -23 -106 -66q-70 -43 -98 -61q-123 -84 -142 -176q-4 -18 -4 -37z" />
<glyph unicode="&#xac;" horiz-adv-x="1546" d="M197.5 664q9.5 -43 42 -73t90.5 -32q231 -8 729 0q-2 -39 2 -223q2 -72 46 -105.5t100.5 -31.5t98.5 38.5t42 106.5q-2 45 -2 90q-2 45 -3 51v31q0 10 2.5 47t4.5 76t4 57q2 59 -37 103.5t-98 48.5q-18 0 -37 -4q-8 2 -19 2q-596 -8 -821 0q-57 2 -92 -25.5t-48.5 -70.5 t-4 -86z" />
<glyph unicode="&#xad;" horiz-adv-x="837" d="M104 553q0 -53 33 -94t101 -41h362q68 0 100.5 41t32.5 94t-32.5 94t-100.5 41h-362q-68 0 -101 -41t-33 -94z" />
<glyph unicode="&#xae;" horiz-adv-x="1601" d="M117 772q-29 -274 116 -500q72 -111 200 -188t294 -100q154 -23 296 21t247 132q102 88 174 213t95.5 260t-7.5 281q-31 145 -119 266q-106 143 -207 201l-39 18q-29 10 -72.5 21.5t-72.5 17.5q-16 4 -43 8t-49.5 8.5t-28.5 4.5q-25 25 -59 24q-158 0 -291 -58.5 t-221 -156.5q-90 -98 -145.5 -220t-67.5 -253zM291 754q14 143 83.5 262t183.5 190.5t261 77.5q16 -14 39 -18q29 -4 81 -13.5t103.5 -21.5t77.5 -29q68 -37 150 -147q70 -94 92 -205t4 -213q-18 -104 -74 -199q-55 -96 -134 -163.5t-185 -100.5q-108 -32 -221 -18 q-168 25 -280 117t-153 216q-43 123 -28 265zM502 438q-2 -53 29.5 -81.5t74.5 -29.5t77 24.5t36 78.5q4 86 4 178h22l80 8l31 -59q16 -29 18 -33l11 -20q4 -6 14 -30.5t22.5 -51.5t18.5 -39q20 -51 60 -62.5t79 6t58.5 56.5t-0.5 86q-57 135 -97 205q43 20 76 45 q70 51 90 125q20 72 -18 149q-39 76 -128 122t-205 58.5t-241 -14.5h-6q-45 0 -75.5 -32.5t-30.5 -77.5q6 -463 0 -611zM721 956q104 12 176 -10t96 -49q-4 -2 -8 -6q-68 -51 -256 -66q-4 0 -6 -2q-2 41 -2 133z" />
<glyph unicode="&#xaf;" horiz-adv-x="815" d="M2 1376.5q2 -53.5 38 -92.5t105 -37q54 -6 93 -6h182q127 -2 256 8q70 2 103.5 43t32.5 93.5t-36 92.5t-104 40q-84 -4 -180.5 -6.5t-188.5 -1.5t-166 6q-70 -2 -103.5 -44t-31.5 -95.5z" />
<glyph unicode="&#xb0;" horiz-adv-x="763" d="M74.5 1203.5q-11.5 -105.5 40.5 -193.5q49 -91 135 -136q68 -37 137.5 -31.5t131 39t102.5 76.5q43 45 69.5 102.5t20.5 133.5t-64 133q-43 47 -123 76q-2 2 -51 18q-23 8 -37 15q-6 4 -12 6q-41 25 -88 10q-6 -2 -21 -4q-16 -2 -32 -6q-72 -14 -113 -53 q-84 -80 -95.5 -185.5zM291 1143q-10 53 22 86q4 2 11 2q0 2 14 4t18 2q20 -8 47 -16q4 -2 22.5 -8.5t23.5 -8.5q35 -14 45 -24h2q0 -2 1 -9.5t1 -13.5q-6 -20 -33 -53q-33 -33 -68 -43t-45 2q-51 27 -61 80z" />
<glyph unicode="&#xb1;" horiz-adv-x="1546" d="M312 156.5q1 -52.5 35 -91t99 -38.5q415 14 644 -11q53 -8 86.5 14.5t49 61.5t9.5 80t-35 70.5t-80 33.5q-276 31 -682 17q-63 -2 -95 -43t-31 -93.5zM333 830.5q1 -56.5 37 -98.5t107 -42q94 2 158 2q4 -66 8 -172q4 -70 49 -102.5t101.5 -29.5t97.5 41t39 108 q-6 90 -8 149q70 -4 137 -12q55 -8 92 16.5t53.5 65.5t10 85t-36 76.5t-86.5 38.5q-84 10 -172 17q2 74 8 145q6 55 -19.5 91t-67.5 51.5t-85 8.5t-75 -38t-36 -88q-8 -80 -10 -164q-68 0 -166 -2q-70 -2 -103.5 -46t-32.5 -100.5z" />
<glyph unicode="&#xb2;" horiz-adv-x="851" d="M80 729q0 -74 58.5 -129t142.5 -55q27 0 96 8q61 10 112 10q25 0 107 -10q53 -8 78 -8q53 0 90 30.5t37 79.5q0 41 -22.5 65.5t-63.5 39.5q-35 14 -79 18t-106 4q-78 0 -129 -4t-88 -24q16 31 56.5 60.5t91.5 53.5q164 80 221 140q68 68 68 186q0 76 -42 138.5t-114 99.5 q-74 35 -164 34q-86 0 -166 -35.5t-129 -97.5q-51 -61 -51 -133q0 -47 34 -80t79 -33q66 0 96 60q31 59 61.5 79.5t77.5 20.5q41 0 67.5 -18.5t26.5 -44.5q0 -33 -37 -62q-39 -31 -118 -71q-18 -14 -45 -27q-119 -70 -182.5 -138.5t-63.5 -156.5z" />
<glyph unicode="&#xb3;" horiz-adv-x="778" d="M49 770q0 -35 18.5 -70.5t49.5 -66.5q92 -88 258 -88q104 0 181 43t118 110q39 68 39 142q0 72 -46 136t-155 107v-55q164 47 164 209q0 63 -38 118.5t-108 90.5q-70 33 -157 33q-76 0 -125 -15.5t-94 -44.5q-82 -55 -82 -125q0 -41 26.5 -66.5t63.5 -25.5q31 0 49 12.5 t53 45.5q45 39 109 38q47 0 75.5 -23.5t28.5 -55.5q0 -31 -26.5 -53.5t-75.5 -22.5t-82 -28t-33 -66q0 -41 31 -66t76 -25q63 0 103 -32.5t40 -79.5q0 -51 -33 -82t-86 -31q-94 0 -139 78q-37 61 -107 61q-37 0 -66.5 -28.5t-29.5 -73.5z" />
<glyph unicode="&#xb4;" horiz-adv-x="446" d="M2 1299.5q6 -56.5 46.5 -95.5t103.5 -37q59 4 98 50l160 176q41 49 34.5 105t-46.5 95t-103 37q-59 -4 -98 -49l-160 -176q-41 -49 -35 -105.5z" />
<glyph unicode="&#xb5;" horiz-adv-x="1257" d="M-14 -254q-10 -57 12 -95t63 -56.5t85 -14.5t78 33t44 84q35 199 101 446q23 -10 47 -16q178 -41 346 82l-17 -68q-14 -55 6.5 -95t59.5 -61.5t83 -20.5t80 26.5t50 81.5q145 592 184 796q2 16 2 35q8 47 -15.5 91t-70.5 65q-53 25 -108 2t-78 -78q-115 -264 -215 -405 q-137 -190 -238 -175q-4 4 -10 9l-26 24l-5 4q66 256 97 430q10 57 -12.5 95.5t-63.5 56.5t-85 14t-78 -32.5t-44 -83.5q-37 -211 -133 -576q-106 -403 -139 -598z" />
<glyph unicode="&#xb6;" horiz-adv-x="1353" d="M106 922q-4 -117 43.5 -224.5t151.5 -175.5q51 -33 129 -49l45 -10q20 -4 33 -8q6 -2 12 -2q0 -410 -4 -719q0 -70 42 -106t98.5 -37t100.5 34t46 105q4 377 4 1448q39 -4 86 -11q2 -219 8 -696q4 -481 4 -737q0 -57 29 -91t72 -45.5t86 0t71.5 45t28.5 91.5 q0 258 -6 774t-6 774q0 63 -47 104q-33 37 -80 46q-57 10 -98.5 16t-85.5 11t-107 7q-96 2 -168 -10q-72 -14 -158 -51t-153 -98q-80 -72 -127 -174q-45 -102 -50 -211zM393 911q2 53 23.5 102.5t54.5 80.5q25 20 49 34v-383q-18 4 -26 7q-29 6 -37 12q-68 43 -64 147z" />
<glyph unicode="&#xb7;" horiz-adv-x="331" d="M-2 662.5q4 -52.5 51 -97.5q45 -47 97.5 -51t96.5 22.5t69.5 70.5t21.5 95.5t-51 96.5q-45 47 -96.5 51t-95.5 -21.5t-70.5 -69.5t-22.5 -96.5z" />
<glyph unicode="&#xb8;" horiz-adv-x="491" d="M0 -350q0 -70 66.5 -112t162.5 -42q66 0 125.5 29t98.5 78t39 112q0 84 -67 140.5t-165 56.5q-37 0 -55 -8l49 -33q0 63 131 135q-47 59 -123 64q-72 -49 -130 -106.5t-58 -106.5q0 -70 88 -78q27 -2 55 -2q27 -2 45 -8q41 -8 41 -50q0 -20 -17.5 -36.5t-43.5 -16.5 q-29 0 -46.5 8.5t-33.5 26.5q-35 39 -80 39q-33 0 -57.5 -24.5t-24.5 -65.5z" />
<glyph unicode="&#xb9;" horiz-adv-x="649" d="M43 1145q2 -45 31.5 -75t77.5 -30q29 0 48 8.5t44 24.5q47 33 63 51v-250l2 -225q0 -51 33 -78.5t76 -27.5q53 0 91 27.5t38 78.5l-4 328q-2 82 2 334v47q0 51 -32 85t-77 34q-74 0 -117 -37l-108 -86q-33 -27 -66 -51q-35 -27 -53 -46q-53 -49 -49 -112z" />
<glyph unicode="&#xba;" horiz-adv-x="796" d="M59 1118q8 -92 62.5 -172t144.5 -117q117 -43 218.5 -14t170.5 107q45 53 67.5 117.5t12.5 140.5q-12 76 -63 141q-41 53 -119 94l-37 19q-23 20 -51 26q-61 39 -121 0q-59 -4 -104 -26q-98 -45 -143.5 -132.5t-37.5 -183.5zM281 1137q-6 68 53 96q8 2 33 4h41 q35 -16 41 -20q37 -16 47 -31q43 -57 -9 -117q-27 -29 -62.5 -39t-72.5 4q-31 12 -49 40t-22 63z" />
<glyph unicode="&#xbb;" horiz-adv-x="1341" d="M115.5 732q13.5 -42 62.5 -73l170 -104q-47 -35 -158 -109q-49 -33 -60 -91t22 -107q20 -31 55 -47q35 -25 78 -25t80 25q166 113 223 161q106 92 106 191q0 18 -4 37q-18 92 -141 176q-29 18 -98 61q-72 43 -107 66q-6 4 -12 6l-2 2q-47 29 -91 23t-77 -37t-46.5 -72 t0 -83zM656.5 726q13.5 -42 62.5 -73l170 -104q-47 -35 -158 -109q-47 -31 -59.5 -73.5t2 -84.5t48.5 -71t78 -34t91 26q166 113 223 162q125 109 103 227q-18 92 -142 176q-29 18 -98 61q-72 43 -107 66q-47 29 -91 22.5t-76.5 -37t-46 -71.5t0 -83z" />
<glyph unicode="&#xbc;" horiz-adv-x="1882" d="M43 1145q2 -45 31.5 -75t77.5 -30q29 0 48 8.5t44 24.5q47 33 63 51v-250l2 -225q0 -51 33 -78.5t76 -27.5q53 0 91 27.5t38 78.5l-4 328q-2 82 2 334v47q0 51 -32 85t-77 34q-74 0 -117 -37l-108 -86q-33 -27 -66 -51q-35 -27 -53 -46q-53 -49 -49 -112zM417.5 87 q18.5 -44 61.5 -66.5t90 -13t76 62.5q84 158 338 575q233 385 336 600q27 55 6 99.5t-66 65t-91 8t-70 -65.5q-104 -221 -324 -580q-266 -434 -346 -588q-29 -53 -10.5 -97zM1020 315q0 -47 36 -81t109 -40q131 -14 260 -10v-125q0 -45 30 -70.5t71 -25.5q39 0 67.5 26.5 t30.5 67.5q2 39 2 86v43l80 2q45 0 70.5 29.5t25.5 70.5q0 39 -25.5 69t-70.5 30q-20 0 -39 2q-20 0 -41 -2v79q-4 258 -8 361q-2 33 -33 57.5t-67 24.5q-37 0 -65 -21.5t-60 -64.5q-111 -152 -308 -365q-41 -43 -53 -74.5t-12 -68.5zM1270 378q66 59 155 172q2 -41 3 -170 h-78q-53 0 -80 -2z" />
<glyph unicode="&#xbd;" horiz-adv-x="1914" d="M43 1145q2 -45 31.5 -75t77.5 -30q29 0 48 8.5t44 24.5q47 33 63 51v-250l2 -225q0 -51 33 -78.5t76 -27.5q53 0 91 27.5t38 78.5l-4 328q-2 82 2 334v47q0 51 -32 85t-77 34q-74 0 -117 -37l-108 -86q-33 -27 -66 -51q-35 -27 -53 -46q-53 -49 -49 -112zM417.5 87 q18.5 -44 61.5 -66.5t90 -13t76 62.5q84 158 338 575q233 385 336 600q27 55 6 99.5t-66 65t-91 8t-70 -65.5q-104 -221 -324 -580q-266 -434 -346 -588q-29 -53 -10.5 -97zM1151 151q0 -74 58.5 -129t142.5 -55q27 0 96 8q61 10 112 10q25 0 107 -10q53 -8 78 -8 q53 0 90 30.5t37 79.5q0 41 -22.5 65.5t-63.5 39.5q-35 14 -79 18t-106 4q-78 0 -129 -4t-88 -24q16 31 56.5 60.5t91.5 53.5q164 80 221 140q68 68 68 186q0 76 -42 138.5t-114 99.5q-74 35 -164 34q-86 0 -166 -35.5t-129 -97.5q-51 -61 -51 -133q0 -47 34 -80t79 -33 q66 0 96 60q31 59 61.5 79.5t77.5 20.5q41 0 67.5 -18.5t26.5 -44.5q0 -33 -37 -62q-39 -31 -118 -71q-18 -14 -45 -27q-119 -70 -182.5 -138.5t-63.5 -156.5z" />
<glyph unicode="&#xbe;" horiz-adv-x="1955" d="M49 770q0 -35 18.5 -70.5t49.5 -66.5q92 -88 258 -88q104 0 181 43t118 110q39 68 39 142q0 72 -46 136t-155 107v-55q164 47 164 209q0 63 -38 118.5t-108 90.5q-70 33 -157 33q-76 0 -125 -15.5t-94 -44.5q-82 -55 -82 -125q0 -41 26.5 -66.5t63.5 -25.5q31 0 49 12.5 t53 45.5q45 39 109 38q47 0 75.5 -23.5t28.5 -55.5q0 -31 -26.5 -53.5t-75.5 -22.5t-82 -28t-33 -66q0 -41 31 -66t76 -25q63 0 103 -32.5t40 -79.5q0 -51 -33 -82t-86 -31q-94 0 -139 78q-37 61 -107 61q-37 0 -66.5 -28.5t-29.5 -73.5zM538.5 87q18.5 -44 61.5 -66.5 t90 -13t76 62.5q84 158 338 575q233 385 336 600q27 55 6 99.5t-66 65t-91 8t-70 -65.5q-104 -221 -324 -580q-266 -434 -346 -588q-29 -53 -10.5 -97zM1124 315q0 -47 36 -81t109 -40q131 -14 260 -10v-125q0 -45 30 -70.5t71 -25.5q39 0 67.5 26.5t30.5 67.5q2 39 2 86v43 l80 2q45 0 70.5 29.5t25.5 70.5q0 39 -25.5 69t-70.5 30q-20 0 -39 2q-20 0 -41 -2v79q-4 258 -8 361q-2 33 -33 57.5t-67 24.5q-37 0 -65 -21.5t-60 -64.5q-111 -152 -308 -365q-41 -43 -53 -74.5t-12 -68.5zM1374 378q66 59 155 172q2 -41 3 -170h-78q-53 0 -80 -2z" />
<glyph unicode="&#xbf;" horiz-adv-x="876" d="M41 16q4 -96 45 -178t104 -135t146 -80q82 -27 164 -19.5t164 52.5q80 45 139 125q29 41 45 100l6 33l6 18q18 57 -7.5 98.5t-71.5 56.5t-91 -2t-63 -75q-6 -16 -11 -41q-2 -4 -2 -10l-4 -8q0 -6 -2 -10l-2 -13q-41 -55 -93 -71.5t-103.5 -1t-85 60.5t-37.5 113 q-2 70 13 104.5t50 56.5q14 10 43 29l56 35q82 57 118 133q25 49 23 117v53q4 61 -30 94t-83 37t-89 -22.5t-44 -87.5q-2 -20 0 -48v-38q-8 -16 -35 -35l-45 -29q-37 -23 -57 -37q-176 -127 -166 -375zM334 897q4 -45 45 -84q39 -41 84 -45t83 18.5t60.5 61.5t18.5 83 t-45 83q-39 41 -83 45t-83 -18.5t-61.5 -60.5t-18.5 -83z" />
<glyph unicode="&#xc0;" horiz-adv-x="1239" d="M9 103.5q14 -42.5 48.5 -70t78.5 -33.5t85.5 13.5t61.5 72.5l120 279l437 4l116 -281q23 -51 63 -70.5t84 -13.5t79 34t47 70t-10 95q-182 418 -435 1175q-18 55 -70 82t-110 8q-59 -18 -84 -75q-8 -12 -14 -27q-156 -395 -486 -1169q-25 -51 -11 -93.5zM360.5 1866.5 q-6.5 -56.5 34.5 -105.5l160 -176q39 -45 98 -49q63 -2 103.5 37t46.5 95t-35 106l-160 176q-39 45 -98 49q-63 2 -103 -37t-46.5 -95.5zM524 651l113 273l96 -271z" />
<glyph unicode="&#xc1;" horiz-adv-x="1251" d="M18 193q-23 -54 2 -109q25 -57 79.5 -76.5t108.5 0t81 76.5l100 270q225 10 455 4l119 -270q23 -51 62.5 -71.5t83.5 -15.5t80 31.5t50 68.5t-6 96l-141 368l-179 441l-151 376q-23 43 -67 67t-89 15q-43 -2 -77.5 -26.5t-51.5 -63.5zM467 1719q-6 -56 27 -104.5 t94 -58.5q59 -8 106 29l193 139q51 37 57 93.5t-26.5 104.5t-94.5 58q-57 8 -106 -28l-193 -140q-51 -37 -57 -93zM508 647l117 295l108 -295h-130h-95z" />
<glyph unicode="&#xc2;" horiz-adv-x="1224" d="M11 109q14 -43 48.5 -70t78.5 -33t84.5 13.5t60.5 72.5l110 262q225 10 232 11q4 0 223 -7q51 -139 88 -258q18 -55 55 -78.5t81 -21.5t81 25.5t55.5 63.5t1.5 93q-59 193 -215 594q-150 387 -202 572q-16 57 -67.5 85.5t-109.5 12.5q-8 -2 -16 -6q-39 -4 -70.5 -27.5 t-46.5 -62.5l-463 -1147q-23 -51 -9 -94zM318.5 1707q-7.5 -50 18.5 -93t81 -53q51 -10 96 20l133 94l129 -96q43 -33 93.5 -20.5t82 52.5t21.5 93t-53 82l-193 143q-41 29 -94 19q-4 -2 -10.5 -2t-10.5 -2q-23 -4 -43 -19l-196 -135q-47 -33 -54.5 -83zM512 647l117 289 l100 -264l8 -25q-116 4 -225 0z" />
<glyph unicode="&#xc3;" horiz-adv-x="1224" d="M12 112q15 -42 49.5 -70t77.5 -33t83.5 15.5t60.5 71.5l110 262q225 10 232 11q4 0 223 -7q51 -139 88 -258q18 -55 55 -78.5t81 -21.5t81 25.5t55.5 63.5t1.5 93q-59 193 -215 594q-150 387 -202 572q-16 57 -64.5 78.5t-103.5 23.5q-45 2 -83 -22.5t-59 -77.5 l-237 -609l-226 -538q-23 -53 -8 -95zM162 1659q0 -55 28.5 -87t81.5 -32q41 0 59.5 15.5t43.5 50.5q20 27 42.5 42t63.5 15q35 0 63.5 -13.5t84.5 -45.5q53 -31 97 -47.5t99 -16.5q84 0 154 40t111 103q39 61 38 127q0 53 -29.5 85t-82.5 32q-47 0 -69.5 -16.5t-45.5 -50.5 q-20 -31 -38.5 -45.5t-53.5 -14.5q-39 0 -68.5 13.5t-76.5 44.5t-91.5 48t-109.5 17q-70 0 -139.5 -40t-115.5 -100.5t-46 -123.5zM512 651l117 289l100 -264l8 -25q-116 4 -225 0z" />
<glyph unicode="&#xc4;" horiz-adv-x="1224" d="M11 113q14 -43 48.5 -70t78.5 -33t84.5 13.5t60.5 72.5l110 262q225 10 232 11q4 0 223 -7q51 -139 88 -258q18 -55 55 -78.5t81 -21.5t81 25.5t55.5 63.5t1.5 93q-59 193 -215 594q-150 408 -202 592q-16 57 -67.5 86t-109.5 12q-8 -2 -16 -6q-39 -4 -70.5 -27.5 t-46.5 -62.5l-463 -1167q-23 -51 -9 -94zM269 1729.5q1 -46.5 48 -91.5q41 -43 91.5 -48t96.5 16.5t74.5 59.5t26.5 84t-47 89q-41 39 -92 45t-97 -14.5t-74 -57t-27 -83zM512 651l117 289l100 -264l8 -25q-116 4 -225 0zM693 1719q1 -46 48 -91q41 -43 91.5 -48t96.5 16.5 t74.5 59.5t26.5 84t-47 89q-41 39 -92 45t-97 -14.5t-74 -57.5t-27 -83z" />
<glyph unicode="&#xc5;" horiz-adv-x="1251" d="M18 193q-23 -54 2 -109q25 -57 79.5 -76.5t108.5 0t81 76.5l100 270q225 10 455 4l119 -270q23 -51 62.5 -71.5t83.5 -15.5t80 31.5t50 68.5t-6 96l-141 368l-179 441l-151 376q-23 43 -67 67t-89 15q-43 -2 -77.5 -26.5t-51.5 -63.5zM370 1784.5q-3 -64.5 17.5 -120.5 t67.5 -87q49 -33 92.5 -46t102.5 -15q100 -2 159.5 51t72.5 135t-28 166q-35 72 -101.5 103.5t-141.5 43.5q-25 -2 -37 -6q-6 2 -15 2h-8h-8q-16 -4 -31 -10q-10 -4 -22 -8q-14 -4 -17 -6q-47 -29 -73.5 -83.5t-29.5 -119zM508 647l117 295l108 -295h-130h-95zM544 1787 q3 38 44 54q12 -2 27 -2q14 -2 26 -8q41 -12 59.5 -44t5 -61.5t-64.5 -33.5q-47 -6 -73.5 25.5t-23.5 69.5z" />
<glyph unicode="&#xc6;" horiz-adv-x="1947" d="M11 111q14 -43 48.5 -70t78.5 -33t84 13.5t61 72.5l108 264q23 0 74 3.5t99 5.5t63 2h41q4 0 32.5 -1t67.5 -2t74 -4q4 -123 6 -225v-12q2 -59 45 -100t102 -39q156 6 189 6q31 0 86 2t105 3t63 1h309q57 0 91 28.5t45 71.5t0 86t-45 72t-91 29q-326 0 -617 -9 q-4 123 -12 320q287 2 549 2q57 0 91 28.5t45.5 71.5t0 86t-45.5 72t-91 29q-262 0 -561 -4q-6 172 -10 303h103h122q199 -2 391 -2q57 2 90 31.5t43 72.5t-2 86t-47 70.5t-92 25.5q-147 -4 -530 -2q-362 -2 -558 0q-49 -4 -85.5 -37.5t-45.5 -80.5l-12 -25l-453 -1118 q-23 -51 -9 -94zM508 649l219 537q39 0 82 2q6 -174 20 -539q-176 6 -184 6q-10 0 -137 -6z" />
<glyph unicode="&#xc7;" horiz-adv-x="1454" d="M66 729q0 -84 28.5 -190.5t74.5 -202.5t99 -156q82 -94 220 -149.5t298 -55.5q150 0 281 45.5t207 149.5q31 45 50 87t40 97l18 52q12 31 13 55q0 57 -44 97t-100 40q-80 0 -121 -82l-32 -82q-25 -72 -45 -100q-29 -39 -86.5 -61.5t-139.5 -22.5q-109 0 -207 32.5 t-139 82.5q-53 66 -94 167t-41 201q0 123 64.5 232.5t171.5 177.5q104 66 221 65q70 0 137.5 -24.5t108.5 -75.5l90 -107q41 -49 100 -49q55 0 99 42t44 98q0 47 -47 102q-59 74 -103 119t-89 73.5t-105 53.5q-117 45 -237 45q-129 0 -248 -48t-218 -135.5t-167 -203.5 q-102 -174 -102 -369zM541 -346q0 -70 66.5 -114t162.5 -44q68 0 127.5 30t97.5 82t38 122q0 78 -65 130t-155 52q-37 0 -55 -8l35 -33q0 37 22.5 75t65.5 89q-51 39 -125 49q-55 -53 -98 -115.5t-43 -111.5q0 -70 88 -78q27 -2 55 -2q27 -2 45 -8q41 -8 41 -50 q0 -20 -17.5 -36.5t-43.5 -16.5q-29 0 -46.5 8.5t-33.5 26.5q-18 20 -37 31.5t-43 11.5q-33 0 -57.5 -24.5t-24.5 -65.5z" />
<glyph unicode="&#xc8;" horiz-adv-x="1374" d="M154 133q4 -59 47 -99t102 -38q446 16 862 10q70 0 106 42t37 98.5t-34 100.5t-105 46q-403 4 -723 -4q2 104 9 299q41 2 278 6q238 4 363 8q70 4 103.5 49t31.5 101.5t-39 97.5t-109 39q-92 -4 -195.5 -7t-228.5 -3q-125 -2 -196 -5q4 154 2 277q303 10 702 4 q70 0 106 42t37 98.5t-34 100.5t-105 46q-473 6 -833 -10q-33 -2 -62 -17q-45 -14 -73.5 -54t-26.5 -89q8 -211 -2 -596q-12 -387 -14 -496q-6 -23 -6 -47zM485.5 1866.5q-6.5 -56.5 34.5 -105.5l160 -176q39 -45 98 -49q63 -2 103.5 37t46.5 95t-35 106l-160 176 q-39 45 -98 49q-63 2 -103 -37t-46.5 -95.5z" />
<glyph unicode="&#xc9;" horiz-adv-x="1374" d="M154 137q4 -59 47 -99t102 -38q446 16 862 10q70 0 106 42t37 98.5t-34 100.5t-105 46q-403 4 -723 -4q2 104 9 299q41 2 278 6q238 4 363 8q70 4 103.5 49t31.5 101.5t-39 97.5t-109 39q-92 -4 -195.5 -7t-228.5 -3q-125 -2 -196 -4q4 154 2 297q303 10 702 4 q70 0 106 42t37 98t-34 100t-105 46q-473 6 -833 -10q-33 -2 -62 -16q-45 -14 -73.5 -54t-26.5 -90q8 -231 -2 -616q-12 -387 -14 -496q-6 -23 -6 -47zM561 1662q6 -56 46.5 -95t103.5 -37q59 4 98 49l160 176q41 49 34.5 105.5t-46 95.5t-103.5 37q-59 -4 -98 -49 l-160 -177q-41 -49 -35 -105z" />
<glyph unicode="&#xca;" horiz-adv-x="1374" d="M154 137q4 -59 47 -99t102 -38q446 16 862 10q70 0 106 42t37 98.5t-34 100.5t-105 46q-403 4 -723 -4q2 104 9 299q41 2 278 6q238 4 363 8q70 4 103.5 49t31.5 101.5t-39 97.5t-109 39q-92 -4 -195.5 -7t-228.5 -3q-125 -2 -196 -4q4 154 2 276q303 10 702 4 q70 0 106 42t37 98.5t-34 100.5t-105 46h-67q-86 2 -84 2q-219 0 -410 -4l4 4l-90 -6q-96 -2 -186 -6q-33 -2 -62 -17q-45 -14 -73.5 -54t-26.5 -89q8 -211 -2 -596q-12 -387 -14 -496q-6 -23 -6 -47zM445.5 1713q-7.5 -50 18.5 -93t81 -53q51 -10 96 20l113 74l108 -76 q45 -31 95.5 -18.5t81 51.5t20.5 92q-8 53 -53 82l-172 123q-43 29 -95 18q-4 -2 -10 -2t-10 -2q-23 -6 -43 -18l-176 -115q-47 -33 -54.5 -83z" />
<glyph unicode="&#xcb;" horiz-adv-x="1374" d="M154 133q4 -59 47 -99t102 -38q446 16 862 10q70 0 106 42t37 98.5t-34 100.5t-105 46q-403 4 -723 -4q2 104 9 299q41 2 278 6q238 4 363 8q70 4 103.5 49t31.5 101.5t-39 97.5t-109 39q-92 -4 -195.5 -7t-228.5 -3q-125 -2 -196 -5q4 154 2 277q303 10 702 4 q70 0 106 42t37 98.5t-34 100.5t-105 46q-473 6 -833 -10q-33 -2 -62 -17q-45 -14 -73.5 -54t-26.5 -89q8 -211 -2 -596q-12 -387 -14 -496q-6 -23 -6 -47zM363.5 1719q1.5 -46 48.5 -91q41 -43 91 -48t96 16.5t74.5 59.5t26.5 84t-47 89q-41 39 -92 45t-97 -14.5t-74 -57.5 t-26.5 -83zM787 1709q1 -46 49 -91q41 -43 91 -48t96 16.5t74.5 59t26.5 84t-47 89.5q-41 39 -92 45t-97 -14.5t-74 -57.5t-27 -83z" />
<glyph unicode="&#xcc;" horiz-adv-x="595" d="M-7 1818.5q5 -57.5 56 -94.5l193 -139q49 -37 106 -29q61 8 93 56.5t27 106t-56 93.5l-193 140q-49 37 -106 28q-61 -8 -93 -56t-27 -105.5zM154 137q0 -55 28.5 -90t71.5 -47t86 -2t71.5 44t28.5 91q2 195 2 594v346.5v243.5q0 55 -28.5 90t-71.5 47t-86 2t-71.5 -44 t-28.5 -91v-244.5v-347.5q0 -399 -2 -592z" />
<glyph unicode="&#xcd;" horiz-adv-x="595" d="M139 1719q-6 -56 27 -104.5t94 -58.5q59 -8 106 29l193 139q51 37 57 93.5t-26.5 104.5t-94.5 58q-57 8 -106 -28l-193 -140q-51 -37 -57 -93zM154 137q0 -55 28.5 -90t71.5 -47t86 -2t71.5 44t28.5 91q2 195 2 594v346.5v243.5q0 55 -28.5 90t-71.5 47t-86 2t-71.5 -44 t-28.5 -91v-244.5v-347.5q0 -399 -2 -592z" />
<glyph unicode="&#xce;" horiz-adv-x="595" d="M-28 1717.5q-7 -50.5 18.5 -93.5t80.5 -53q51 -10 97 21l133 94l129 -96q45 -31 95 -18.5t81 51t20 92.5q-8 53 -53 82l-192 143q-43 29 -95 18q-4 -2 -10 -2t-10 -2q-23 -6 -43 -18l-197 -135q-47 -33 -54 -83.5zM154 137q0 -55 28.5 -90t71.5 -47t86 -2t71.5 44 t28.5 91q2 195 2 594v346.5v243.5q0 55 -28.5 90t-71.5 47t-86 2t-71.5 -44t-28.5 -91v-244.5v-347.5q0 -399 -2 -592z" />
<glyph unicode="&#xcf;" horiz-adv-x="595" d="M-50 1719q5 -48 40 -85q39 -47 97.5 -50t105.5 28t59 88q10 51 -4 102q-14 49 -66 68q-23 12 -49 14q-16 2 -37.5 1t-46.5 -9q-55 -20 -79.5 -64.5t-19.5 -92.5zM154 137q0 -55 28.5 -90t71.5 -47t86 -2t71.5 44t28.5 91q2 195 2 594v346.5v243.5q0 55 -28.5 90t-71.5 47 t-86 2t-71.5 -44t-28.5 -91v-244.5v-347.5q0 -399 -2 -592zM348.5 1753.5q-12.5 -66.5 34.5 -121.5q37 -45 95.5 -48t107.5 27t57 87q8 53 -4 88q-16 45 -37 63q-23 18 -45 27q-27 8 -61 8q-53 2 -86 -25q-49 -39 -61.5 -105.5z" />
<glyph unicode="&#xd0;" horiz-adv-x="1425" d="M18 795q0 -51 37 -87t88 -36h553q51 0 86 33.5t35 89.5q0 57 -33.5 90t-87.5 33h-553q-51 0 -88 -35t-37 -88zM156 735q4 -498 2 -590q0 -57 41 -99t98 -44q13 -2 27 -2h139q111 -2 153 0q211 10 340 72q123 61 215.5 170.5t137.5 244.5q43 133 45 293q2 158 -52.5 293 t-160.5 232q-55 51 -123 88t-144 55q-78 16 -137 27q-41 6 -95 7t-103.5 -1t-73.5 -4q-39 -2 -119 -11q-18 0 -37 -6q-59 2 -103 -39t-46 -96q-8 -94 -4 -590zM440 891q0 104 2 299q182 14 304 -4.5t202 -89.5q66 -59 95.5 -158.5t23.5 -210.5t-49 -203q-66 -139 -189 -198 q-73 -35 -225 -45q-59 -2 -160 2q0 86 -1 192.5t-2 215t-1 200.5z" />
<glyph unicode="&#xd1;" horiz-adv-x="1538" d="M156 1323q-6 -238 6 -639q10 -403 10 -551q0 -57 28.5 -91t71.5 -45t86 0t72 45t29 91q0 154 -8 436q-8 281 -11 363q94 -115 322 -436q209 -297 346 -459q53 -63 133 -49q57 4 96 44t41 97q8 887 6 1186q-2 70 -46 104.5t-100 33.5t-98 -37t-42 -105q4 -317 -2 -793 l-99 141q-225 319 -340 459q-39 47 -116 146q-80 98 -115 141q-29 33 -68 45q-27 10 -55 12q-59 2 -102 -39t-45 -100zM307 1659q0 -55 29 -87t82 -32q41 0 59.5 15.5t42.5 50.5q20 27 43 42t64 15q35 0 63.5 -13.5t83.5 -45.5q53 -31 97 -47.5t100 -16.5q84 0 153.5 40 t110.5 103q39 61 39 127q0 53 -30 85t-83 32q-47 0 -69.5 -16.5t-44.5 -50.5q-20 -31 -39 -45.5t-54 -14.5q-39 0 -68.5 13.5t-76.5 44.5t-91 48t-110 17q-70 0 -139.5 -40t-115.5 -100.5t-46 -123.5z" />
<glyph unicode="&#xd2;" horiz-adv-x="1511" d="M66 653q4 -162 53 -284q111 -271 420 -359q143 -43 274 -30.5t242 59.5t194 137q84 88 134.5 195.5t60.5 240.5q10 131 -27 267q-23 90 -67.5 176t-94.5 137q-61 63 -113 103t-124 85l-92 58q-39 23 -82 20q-29 8 -58 4q-27 0 -78 -3t-106 -9t-88 -16q-162 -43 -264 -174 q-100 -129 -146 -297q-41 -150 -38 -310zM352 659.5q-2 110.5 27 227.5q31 113 86 183.5t123 88.5q37 10 98.5 11t116.5 8q94 -59 159.5 -106.5t108.5 -108t72 -158.5q23 -104 13.5 -196.5t-56.5 -164.5q-49 -74 -119 -118q-70 -47 -166.5 -58.5t-198.5 17.5 q-174 49 -231 190q-31 74 -33 184.5zM510 1830q-6 -56 35 -106l160 -176q39 -45 98 -49q63 -2 103 37t46 95.5t-34 105.5l-160 176q-39 45 -99 49q-63 2 -103 -37t-46 -95z" />
<glyph unicode="&#xd3;" horiz-adv-x="1511" d="M66 653q4 -162 53 -284q111 -271 420 -359q143 -43 274 -30.5t242 59.5t194 137q84 88 134.5 195.5t60.5 240.5q10 131 -27 267q-23 90 -67.5 176t-94.5 137q-61 63 -113 103t-124 85l-92 58q-39 23 -82 20q-29 8 -58 4q-27 0 -78 -3t-106 -9t-88 -16q-162 -43 -264 -174 q-100 -129 -146 -297q-41 -150 -38 -310zM352 659.5q-2 110.5 27 227.5q31 113 86 183.5t123 88.5q37 10 98.5 11t116.5 8q94 -59 159.5 -106.5t108.5 -108t72 -158.5q23 -104 13.5 -196.5t-56.5 -164.5q-49 -74 -119 -118q-70 -47 -166.5 -58.5t-198.5 17.5 q-174 49 -231 190q-31 74 -33 184.5zM506 1647.5q6 -56.5 46 -95t103 -36.5q59 4 99 49l159 176q41 49 35 105.5t-46 95t-103 36.5q-59 -4 -99 -49l-159 -176q-41 -49 -35 -105.5z" />
<glyph unicode="&#xd4;" horiz-adv-x="1511" d="M66 653q4 -162 53 -284q111 -271 420 -359q143 -43 274 -30.5t242 59.5t194 137q84 88 134.5 195.5t60.5 240.5q10 131 -27 267q-23 90 -67.5 176t-94.5 137q-61 63 -113 103t-124 85l-92 58q-39 23 -82 20q-29 8 -58 4q-27 0 -78 -3t-106 -9t-88 -16q-162 -43 -264 -174 q-100 -129 -146 -297q-41 -150 -38 -310zM352 659.5q-2 110.5 27 227.5q31 113 86 183.5t123 88.5q37 10 98.5 11t116.5 8q94 -59 159.5 -106.5t108.5 -108t72 -158.5q23 -104 13.5 -196.5t-56.5 -164.5q-49 -74 -119 -118q-70 -47 -166.5 -58.5t-198.5 17.5 q-174 49 -231 190q-31 74 -33 184.5zM398.5 1654q-7.5 -50 18.5 -93.5t81 -53.5q51 -10 96 21l133 94l129 -96q45 -31 95 -18.5t81 51t21 92.5q-8 53 -54 82l-192 143q-43 29 -94 18q-4 -2 -10.5 -2t-10.5 -2q-23 -6 -43 -18l-196 -135q-47 -33 -54.5 -83z" />
<glyph unicode="&#xd5;" horiz-adv-x="1511" d="M66 653q4 -162 53 -284q111 -271 420 -359q143 -43 274 -30.5t242 59.5t194 137q84 88 134.5 195.5t60.5 240.5q10 131 -27 267q-23 90 -67.5 176t-94.5 137q-61 63 -113 103t-124 85l-92 58q-39 23 -82 20q-29 8 -58 4q-27 0 -78 -3t-106 -9t-88 -16q-162 -43 -264 -174 q-100 -129 -146 -297q-41 -150 -38 -310zM313 1655q0 -53 28 -84t79 -31q39 0 56.5 14.5t41.5 49.5q20 25 42 40t61 15q33 0 60.5 -13.5t80.5 -43.5q51 -31 93 -46.5t95 -15.5q78 0 145.5 37t107.5 96.5t40 126.5q0 51 -28.5 82t-79.5 31q-45 0 -66.5 -16.5t-44.5 -49.5 q-20 -29 -37.5 -43t-50.5 -14q-39 0 -66.5 13.5t-74.5 41.5q-45 29 -87 46.5t-106 17.5q-66 0 -132.5 -39t-111.5 -97.5t-45 -117.5zM352 659.5q-2 110.5 27 227.5q31 113 86 183.5t123 88.5q37 10 98.5 11t116.5 8q94 -59 159.5 -106.5t108.5 -108t72 -158.5 q23 -104 13.5 -196.5t-56.5 -164.5q-49 -74 -119 -118q-70 -47 -166.5 -58.5t-198.5 17.5q-174 49 -231 190q-31 74 -33 184.5z" />
<glyph unicode="&#xd6;" horiz-adv-x="1511" d="M66 686q4 -170 53 -299q111 -285 420 -377q143 -45 274 -32.5t242 63.5q111 49 194 143q84 92 134.5 206t60.5 253q10 137 -27 281q-23 96 -67.5 186t-94.5 143q-43 45 -77.5 77t-72.5 59.5t-87 62.5l-92 59q-39 25 -82 23q-29 8 -58 4q-29 0 -79 -3t-103 -10t-90 -18 q-162 -45 -264 -182q-100 -137 -146 -313q-41 -158 -38 -326zM352 693.5q-2 115.5 27 238.5q31 119 86 193.5t123 93.5q41 12 98 12t117 8q94 -63 159.5 -112.5t108.5 -113t72 -167.5q23 -111 13.5 -207t-56.5 -172q-49 -78 -119 -125q-70 -49 -166.5 -61.5t-198.5 18.5 q-174 51 -231 201q-31 78 -33 193.5zM369 1707q4 -46 51 -85q51 -43 105.5 -46t100.5 19.5t71.5 62.5t21.5 85t-53 84q-49 43 -102.5 47t-99.5 -19.5t-72.5 -62.5t-22.5 -85zM760 1697q4 -46 51 -85q51 -43 105.5 -46t100.5 19.5t71.5 62.5t21.5 85t-53 84q-49 43 -102.5 47 t-99.5 -19.5t-72.5 -62.5t-22.5 -85z" />
<glyph unicode="&#xd7;" horiz-adv-x="1546" d="M257 876.5q5 -45.5 46 -83.5l262 -250q-131 -141 -250 -287q-35 -43 -33.5 -87t27 -80t65.5 -54.5t84 -10t79 51.5q115 139 231 266l274 -287q37 -41 81 -46t84 15.5t63.5 57.5t21.5 81t-41 85l-284 299l262 252q41 39 46 84t-16.5 84t-58.5 61.5t-82 20.5t-86 -41 l-268 -260l-264 253q-41 39 -86 41t-82 -20.5t-58.5 -61t-16.5 -84z" />
<glyph unicode="&#xd8;" horiz-adv-x="1544" d="M0 23q0 -45 36 -79t81 -34q51 0 82 37l108 119l516 583l635 670q27 29 27 74q0 47 -34 80.5t-79 33.5t-78 -34l-635 -682l-505 -570l-125 -131q-29 -31 -29 -67zM82 653q2 -160 53 -284q18 -43 41 -82l111 -135q108 -97 268 -142q137 -41 268 -31.5t248 60.5 q111 47 195 137q174 184 194 436q10 135 -26 267q-45 197 -170 327l-107 103q-55 47 -147 90q-72 61 -150 59q-23 8 -57 4q-35 0 -88 -3t-103.5 -9t-81.5 -16q-162 -43 -264 -174q-100 -129 -145 -297q-41 -158 -39 -310zM369 530q-37 154 22 365q29 104 86.5 175t126.5 89 q84 25 215 19q53 -33 105 -66l133 -111q70 -76 102 -196q49 -221 -43 -361q-49 -74 -119 -118q-74 -49 -170 -67t-194 9q-70 18 -122 44t-75 69z" />
<glyph unicode="&#xd9;" horiz-adv-x="1458" d="M115 795q-6 -180 8 -303q18 -175 84 -267q88 -127 227 -188.5t281 -52.5q139 8 272 76.5t213 185.5q141 207 150 555q4 106 -7 272q-12 221 -12 262q-2 72 -46 106t-100.5 31.5t-98.5 -39t-42 -106.5q2 -45 15 -270q8 -154 6 -248q-6 -264 -102 -403q-57 -84 -160 -119 q-100 -33 -202.5 -6.5t-160.5 108.5q-23 33 -32 135q-12 100 -7 262q2 74 17 287q8 137 14 223t-41 136q-41 41 -100 43q-59 0 -101.5 -41t-44.5 -101q0 -51 -12 -239q-14 -201 -18 -299zM493.5 1825.5q-6.5 -56.5 34.5 -105.5l160 -176q39 -45 98 -49q63 -2 103.5 37 t46.5 95t-35 106l-160 176q-39 45 -98 49q-63 2 -103 -37t-46.5 -95.5z" />
<glyph unicode="&#xda;" horiz-adv-x="1458" d="M115 795q-6 -180 8 -303q18 -175 84 -267q88 -127 227 -188.5t281 -52.5q139 8 272 76.5t213 185.5q141 207 150 555q4 106 -7 272q-12 221 -12 262q-2 72 -46 106t-100.5 31.5t-98.5 -39t-42 -106.5q2 -45 15 -270q8 -154 6 -248q-6 -264 -102 -403q-57 -84 -160 -119 q-100 -33 -202.5 -6.5t-160.5 108.5q-23 33 -32 135q-12 100 -7 262q2 74 17 287q8 137 14 223t-41 136q-41 41 -100 43q-59 0 -101.5 -41t-44.5 -101q0 -51 -12 -239q-14 -201 -18 -299zM540.5 1631.5q6.5 -56.5 46.5 -95.5t103 -37q59 4 98 49l160 176q41 49 35 105.5 t-46 95.5t-103 37q-59 -4 -99 -49l-160 -176q-41 -49 -34.5 -105.5z" />
<glyph unicode="&#xdb;" horiz-adv-x="1458" d="M115 795q-6 -180 8 -303q18 -175 84 -267q88 -127 227 -188.5t281 -52.5q139 8 272 76.5t213 185.5q141 207 150 555q4 106 -7 272q-12 221 -12 262q-2 72 -46 106t-100.5 31.5t-98.5 -39t-42 -106.5q2 -45 15 -270q8 -154 6 -248q-6 -264 -102 -403q-57 -84 -160 -119 q-100 -33 -202.5 -6.5t-160.5 108.5q-23 33 -32 135q-12 100 -7 262q2 74 17 287q8 131 13 211t-40 127q-41 41 -100 43q-59 0 -101.5 -41t-44.5 -100q0 -51 -12 -219q-14 -201 -18 -299zM423 1697q-7 -50 18.5 -93.5t80.5 -53.5q51 -10 96 21l134 94l129 -96 q45 -31 95 -18.5t80.5 51t20.5 92.5q-8 53 -53 82l-193 143q-43 29 -94 18q-4 -2 -10 -2t-10 -2q-23 -6 -43 -18l-197 -135q-47 -33 -54 -83z" />
<glyph unicode="&#xdc;" horiz-adv-x="1458" d="M115 774q-6 -180 8 -303q18 -174 84 -266q88 -127 227 -188.5t281 -53.5q139 8 272 77t213 185q141 207 150 555q4 106 -7 273q-12 262 -12 303q-2 72 -46 105.5t-100.5 31.5t-98.5 -39t-42 -106q2 -47 15 -312q8 -154 6 -248q-6 -264 -102 -403q-57 -84 -160 -119 q-100 -33 -202.5 -6t-160.5 109q-23 33 -32 135q-12 100 -7 262q2 74 17 287q10 141 13 247.5t-40 151.5q-41 41 -100 43q-59 0 -101.5 -41t-44.5 -100q0 -51 -12 -281q-14 -201 -18 -299zM431 1697.5q-5 -55.5 46 -104.5q39 -41 84 -45t83 18.5t60.5 61.5t18.5 83t-45 83 q-51 49 -106.5 43t-95.5 -45t-45 -94.5zM793.5 1687.5q-5.5 -55.5 46.5 -104.5q39 -41 84 -45t82.5 18.5t60.5 61.5t18.5 83t-45.5 83q-51 49 -106 43t-95 -45t-45.5 -94.5z" />
<glyph unicode="&#xdd;" horiz-adv-x="1204" d="M20.5 1352q-8.5 -43 18.5 -92q74 -139 225 -388l205 -340v-116q0 -51 2 -140v-141q2 -57 31.5 -90t72.5 -43t86.5 2t71 47t25.5 92q-2 74 -2 234t-2 207q70 123 190 305q225 340 238 360q31 49 24.5 93t-37 76t-72.5 44.5t-85 -1t-72 -60.5l-233 -352l-111 -172 q-240 397 -307 518q-27 49 -69 65.5t-85 6t-74.5 -41t-40 -73.5zM442 1719q-6 -56 27 -104.5t94 -58.5q59 -8 106 29l193 139q51 37 57 93.5t-26.5 104.5t-94.5 58q-57 8 -106 -28l-193 -140q-51 -37 -57 -93z" />
<glyph unicode="&#xde;" horiz-adv-x="1325" d="M156 1313q-8 -473 8 -1180q2 -72 46 -105.5t100.5 -31.5t98.5 39t42 106q-2 117 -5 203h9q35 4 139 4q111 0 176 6q246 20 375 142q96 92 131 202q37 113 6 228q-29 106 -107.5 189t-191.5 128q-166 66 -541 55v11q0 82 -43 124t-98 42t-99 -40t-46 -122zM438 1012 q74 4 157 4t157.5 -9.5t124.5 -29.5q106 -43 129 -125q20 -76 -58 -152q-53 -49 -200 -61q-55 -4 -156 -6q-109 0 -152 -2q-2 201 -2 381z" />
<glyph unicode="&#xdf;" horiz-adv-x="1224" d="M100 137q-4 -55 21.5 -90t66.5 -48t83 -4t73 40t35 86q8 162 14 657q6 23 6 47q0 8 -2 39q-2 29 -2 47q2 88 4 160q18 45 60.5 69.5t97.5 24.5q59 2 106.5 -24.5t67.5 -71.5q31 -66 -6 -119l-23 -8q-45 -16 -73 -39q-72 -57 -64 -147q12 -121 148 -166q37 -12 41 -12 q43 -37 59 -70q51 -96 21.5 -175t-117.5 -102q0 -6 -41 -4q-41 0 -84 -2q-55 -4 -86 -34.5t-39 -72.5t6 -83t49 -66.5t90 -21.5h23q23 0 73 3t83 11q115 33 191.5 105.5t112 168t27.5 202t-63 206.5q-41 72 -115 137q139 188 41 404q-59 129 -178 195.5t-252 64.5 q-135 0 -252 -72t-168 -209q-23 -63 -20 -198q0 -25 2 -56q-2 -63 -3 -154t-1 -190.5t-2 -187.5q-4 -125 -11 -240z" />
<glyph unicode="&#xe0;" d="M74 449q0 -59 12 -123q16 -96 86 -179q72 -80 178 -120q86 -29 160 -29q80 4 160 37q68 27 114 84q16 -68 54.5 -93.5t85.5 -23.5q57 2 93 44t44 101q4 29 4 62q-2 31 -6 133l-4 111q-6 217 -11 307l-14 141q-6 53 -46 90t-91 37l-21 -2h-10q-45 31 -92 43 q-72 16 -133 16q-170 0 -303 -104t-207 -274q-53 -121 -53 -258zM324 1498q-6 -56 35 -105l160 -176q39 -46 98 -50q63 -2 103 37t46.5 95.5t-34.5 105.5l-160 176q-39 45 -98 49q-63 2 -103.5 -37t-46.5 -95zM356 442q0 63 33 144q41 102 109.5 159.5t142.5 57.5 q18 0 51 -8l19 -13l28 -22l21 -15q10 -119 10 -290q-16 -6 -29 -21l-34 -49l-31 -29q-20 -20 -37 -30q-66 -39 -127 -39q-27 0 -57 10q-98 35 -99 145z" />
<glyph unicode="&#xe1;" d="M74 449q0 -59 12 -123q16 -96 86 -179q72 -80 178 -120q86 -29 160 -29q80 4 160 37q68 27 114 84q16 -68 54.5 -93.5t85.5 -23.5q57 2 93 44t44 101q4 29 4 62q-2 31 -6 133l-4 111q-6 217 -11 307l-14 141q-6 53 -46 90t-91 37l-21 -2h-10q-45 31 -92 43 q-72 16 -133 16q-170 0 -303 -104t-207 -274q-53 -121 -53 -258zM356 442q0 63 33 144q41 102 109.5 159.5t142.5 57.5q18 0 51 -8l19 -13l28 -22l21 -15q10 -119 10 -290q-16 -6 -29 -21l-34 -49l-31 -29q-20 -20 -37 -30q-66 -39 -127 -39q-27 0 -57 10q-98 35 -99 145z M459 1299.5q6 -56.5 46.5 -95.5t103.5 -37q59 4 98 50l160 176q41 49 34.5 105t-46.5 95t-103 37q-59 -4 -98 -49l-160 -176q-41 -49 -35 -105.5z" />
<glyph unicode="&#xe2;" d="M74 449q0 -59 12 -123q16 -96 86 -179q72 -80 178 -120q86 -29 160 -29q80 4 160 37q68 27 114 84q16 -68 54.5 -93.5t85.5 -23.5q57 2 93 44t44 101q4 29 4 62q-2 31 -6 133l-4 111q-6 217 -11 307l-14 141q-6 53 -46 90t-91 37l-21 -2h-10q-45 31 -92 43 q-72 16 -133 16q-170 0 -303 -104t-207 -274q-53 -121 -53 -258zM282 1350.5q-7 -50.5 18.5 -93.5t80.5 -53q51 -10 97 21l133 94l129 -96q45 -31 95 -18.5t81 51t20 92.5q-8 53 -53 82l-192 143q-43 29 -95 18q-4 -2 -10 -2t-10 -2q-23 -6 -43 -18l-197 -135 q-47 -33 -54 -83.5zM356 442q0 63 33 144q41 102 109.5 159.5t142.5 57.5q18 0 51 -8l19 -13l28 -22l21 -15q10 -119 10 -290q-16 -6 -29 -21l-34 -49l-31 -29q-20 -20 -37 -30q-66 -39 -127 -39q-27 0 -57 10q-98 35 -99 145z" />
<glyph unicode="&#xe3;" d="M74 449q0 -59 12 -123q16 -96 86 -179q72 -80 178 -120q86 -29 160 -29q80 4 160 37q68 27 114 84q16 -68 54.5 -93.5t85.5 -23.5q57 2 93 44t44 101q4 29 4 62q-2 31 -6 133l-4 111q-6 217 -11 307l-14 141q-6 53 -46 90t-91 37l-21 -2h-10q-45 31 -92 43 q-72 16 -133 16q-170 0 -303 -104t-207 -274q-53 -121 -53 -258zM197 1317q0 -109 94 -109q33 0 49.5 11.5t36.5 44.5q31 49 88 49q29 0 58.5 -11.5t72.5 -35.5q55 -31 90 -44.5t78 -13.5q68 0 126.5 35t94 91.5t35.5 121.5q0 47 -25.5 76t-70.5 29q-39 0 -57.5 -13.5 t-40.5 -48.5q-31 -49 -74 -49q-35 0 -59.5 10t-65.5 37q-45 31 -82 45t-90 14q-59 0 -118.5 -35.5t-99.5 -91t-40 -112.5zM356 442q0 63 33 144q41 102 109.5 159.5t142.5 57.5q18 0 51 -8l19 -13l28 -22l21 -15q10 -119 10 -290q-16 -6 -29 -21l-34 -49l-31 -29 q-20 -20 -37 -30q-66 -39 -127 -39q-27 0 -57 10q-98 35 -99 145z" />
<glyph unicode="&#xe4;" d="M74 449q0 -59 12 -123q16 -96 86 -179q72 -80 178 -120q86 -29 160 -29q80 4 160 37q68 27 114 84q16 -68 54.5 -93.5t85.5 -23.5q57 2 93 44t44 101q4 29 4 62q-2 31 -6 133l-4 111q-6 217 -11 307l-14 141q-6 53 -46 90t-91 37l-21 -2h-10q-45 31 -92 43 q-72 16 -133 16q-170 0 -303 -104t-207 -274q-53 -121 -53 -258zM259 1347q5 -48 40 -85q39 -47 97.5 -50t105.5 28t59 88q10 51 -4 102q-14 49 -66 68q-23 12 -49 14q-16 2 -37.5 1t-46.5 -9q-55 -20 -79.5 -64.5t-19.5 -92.5zM356 442q0 63 33 144q41 102 109.5 159.5 t142.5 57.5q18 0 51 -8l19 -13l28 -22l21 -15q10 -119 10 -290q-16 -6 -29 -21l-34 -49l-31 -29q-20 -20 -37 -30q-66 -39 -127 -39q-27 0 -57 10q-98 35 -99 145zM657.5 1381.5q-12.5 -66.5 34.5 -121.5q37 -45 95.5 -48t107.5 27t57 87q8 53 -4 88q-16 45 -37 63 q-23 18 -45 27q-27 8 -61 8q-53 2 -86 -25q-49 -39 -61.5 -105.5z" />
<glyph unicode="&#xe5;" d="M74 449q0 -59 12 -123q16 -96 86 -179q72 -80 178 -120q86 -29 160 -29q80 4 160 37q68 27 114 84q16 -68 54.5 -93.5t85.5 -23.5q57 2 93 44t44 101q4 29 4 62q-2 31 -6 133l-4 111q-6 217 -11 307l-14 141q-6 53 -46 90t-91 37l-21 -2h-10q-45 31 -92 43 q-72 16 -133 16q-170 0 -303 -104t-207 -274q-53 -121 -53 -258zM350 1413q0 -119 74.5 -182.5t199.5 -63.5q106 0 169 64.5t63 163.5q0 70 -39 129t-100.5 96t-130.5 37q-16 0 -29 -2q-12 -2 -23 -2q-10 0 -16 -2l-16 -4q-33 -4 -54 -17q-49 -31 -73.5 -90t-24.5 -127z M356 442q0 63 33 144q41 102 109.5 159.5t142.5 57.5q18 0 51 -8l19 -13l28 -22l21 -15q10 -119 10 -290q-16 -6 -29 -21l-34 -49l-31 -29q-20 -20 -37 -30q-66 -39 -127 -39q-27 0 -57 10q-98 35 -99 145zM516 1415q0 35 16.5 55.5t36.5 20.5q51 0 83 -25.5t32 -70.5 q0 -27 -16.5 -45.5t-49.5 -18.5q-43 0 -72.5 25.5t-29.5 58.5z" />
<glyph unicode="&#xe6;" horiz-adv-x="1832" d="M49 810q0 -48 30 -79t78 -34t101 32q25 16 57 49l35 31q41 29 86 39q88 14 161 -5.5t116 -54.5l14 -16l18 -29l7 -12q-10 -25 -17 -45q-115 -2 -203 -14q-303 -35 -419 -203q-63 -98 -55 -191.5t69 -164.5q61 -68 136 -98.5t200 -32.5q158 12 289 96q53 27 129 76 q145 -161 376 -177q80 -4 142.5 10.5t120.5 39.5q37 14 67 32q31 16 64 35q59 41 69.5 90t-15.5 90t-76 56.5t-111 -13.5l-60 -36q-43 -27 -88 -43.5t-96 -12.5q-141 12 -203 74q-51 51 -57 141q131 -10 323 -10q190 0 326 23q43 4 76 33.5t39 72.5q-2 33 -2 66l-7 41 l-14 49q-6 18 -17.5 43.5t-21.5 48.5q-47 92 -172 184q-45 31 -90 47l-29 13q-6 2 -28.5 6t-43 8t-22.5 6q-244 53 -416 -106l-24 22q-78 57 -171 81t-187.5 21.5t-178.5 -22.5t-143 -55l-45 -35q-43 -37 -70 -66q-47 -53 -47 -101zM354 262q-31 39 4 90q39 47 179 68 q102 16 188 20q6 -27 14 -65q-39 -57 -125 -103q-94 -43 -155 -43q-74 -6 -105 33zM1026 684q35 88 96.5 125t145.5 29q72 -8 116 -39q41 -27 62 -64q25 -30 29 -55q-121 -6 -225.5 -4t-223.5 8z" />
<glyph unicode="&#xe7;" horiz-adv-x="1120" d="M80 465q8 -96 53 -183t115.5 -155t159.5 -102q84 -33 174 -41.5t184 24.5q96 29 166 101q45 45 78 122q8 14 19 41t18 41q25 49 14.5 91t-43.5 71t-75 39t-83 -7.5t-67 -66.5q-2 -4 -45 -98q-14 -33 -25 -43q-31 -31 -81 -38t-122 20q-68 27 -108.5 87t-44.5 117 q-6 61 21.5 131t76.5 121q94 100 205 56q12 -6 37 -27q74 -63 77 -66q45 -35 89.5 -33.5t79 28t52 65.5t9.5 82t-53 78l-37 30q-23 20 -27 25q-61 51 -117 74q-102 45 -202.5 34.5t-178.5 -49.5q-80 -41 -143 -106q-88 -90 -136 -216t-40 -247zM369 -340q0 -70 66.5 -112 t162.5 -42q66 0 125.5 29t98.5 78t39 112q0 84 -67 140.5t-165 56.5q-37 0 -55 -8l49 -33q0 63 131 135q-47 59 -123 64q-72 -49 -130 -106.5t-58 -106.5q0 -70 88 -78q27 -2 55 -2q27 -2 45 -8q41 -8 41 -50q0 -20 -17.5 -36.5t-43.5 -16.5q-29 0 -46.5 8.5t-33.5 26.5 q-35 39 -80 39q-33 0 -57.5 -24.5t-24.5 -65.5z" />
<glyph unicode="&#xe8;" horiz-adv-x="1204" d="M72 543q2 -68 47 -88q41 -172 105.5 -264.5t150.5 -145.5q84 -55 194.5 -70.5t255.5 2.5q92 20 136.5 49t85.5 70q41 49 49 82q14 41 -4.5 81t-60.5 60.5t-96 7t-114 -76.5q-51 -49 -178 -41q-223 31 -244 227q301 -20 408 -16q104 2 160 8q113 8 159 82q37 59 15 152 q-100 442 -494 444q-432 -8 -524 -463q-45 -10 -51 -100zM385 1494q-6 -56 35 -105l160 -177q39 -45 98 -49q63 -2 103 37t46.5 95.5t-34.5 105.5l-160 176q-39 45 -98 49q-63 2 -103.5 -37t-46.5 -95zM397 643q12 129 127 186q123 57 224 9q88 -47 113.5 -99.5t27.5 -85.5 q-20 -10 -80.5 -13t-132.5 -3t-125 2q-80 2 -154 4z" />
<glyph unicode="&#xe9;" horiz-adv-x="1214" d="M82 543q2 -68 47 -88q41 -172 105.5 -264.5t150.5 -145.5q84 -55 195 -70.5t256 2.5q92 20 136 49t85 70q41 49 49 82q14 41 -4.5 81t-60.5 60.5t-96 7t-114 -76.5q-51 -49 -178 -41q-223 31 -243 227q301 -20 407 -16q104 2 160 8q113 8 160 82q37 59 14 152 q-100 442 -494 444q-432 -8 -524 -463q-45 -10 -51 -100zM408 643q12 129 127 186q123 57 223 9q88 -47 113.5 -99.5t27.5 -85.5q-20 -10 -80.5 -13t-132.5 -3t-125 2q-79 2 -153 4zM434 1300.5q6 -57.5 48.5 -97.5t103.5 -36q57 4 98 50l160 176q43 47 36.5 103t-47 96 t-104.5 38q-57 -4 -98 -49l-160 -176q-43 -47 -37 -104.5z" />
<glyph unicode="&#xea;" horiz-adv-x="1204" d="M72 543q2 -68 47 -88q41 -172 105.5 -264.5t150.5 -145.5q84 -55 194.5 -70.5t255.5 2.5q92 20 136.5 49t85.5 70q41 49 49 82q14 41 -4.5 81t-60.5 60.5t-96 7t-114 -76.5q-51 -49 -178 -41q-223 31 -244 227q301 -20 408 -16q104 2 160 8q113 8 159 82q37 59 15 152 q-100 442 -494 444q-432 -8 -524 -463q-45 -10 -51 -100zM310.5 1332q-7.5 -50 18.5 -93t81 -53q51 -10 96 20l133 94l129 -96q45 -31 95 -18.5t81 51.5t21 92q-8 53 -54 82l-192 143q-43 29 -94 19q-4 -2 -10.5 -2t-10.5 -2q-23 -6 -43 -19l-196 -135q-47 -33 -54.5 -83z M397 643q12 129 127 186q123 57 224 9q88 -47 113.5 -99.5t27.5 -85.5q-20 -10 -80.5 -13t-132.5 -3t-125 2q-80 2 -154 4z" />
<glyph unicode="&#xeb;" horiz-adv-x="1177" d="M82 496q0 -141 64.5 -258t187.5 -187q123 -69 287 -69q106 0 209.5 34.5t168.5 94.5q66 59 66 125q0 47 -36 82.5t-89 35.5q-47 0 -73.5 -21.5t-57.5 -51.5q-29 -27 -65.5 -40.5t-98.5 -15.5q-135 -4 -201.5 52.5t-78.5 156.5l71 -2q129 -6 242 -6q119 0 272 14 q76 6 121 45t45 109q0 137 -57.5 248.5t-169.5 177.5q-115 66 -275 65q-156 0 -278.5 -75.5t-188.5 -204.5q-66 -131 -65 -309zM267 1347q5 -48 40 -85q39 -47 97.5 -50t105.5 28t59 88q10 51 -4 102q-14 49 -66 68q-23 12 -49 14q-16 2 -37.5 1t-46.5 -9 q-55 -20 -79.5 -64.5t-19.5 -92.5zM369 643q14 106 79.5 151.5t169.5 47.5q125 2 173.5 -51.5t52.5 -141.5q-66 -16 -207 -18q-147 -4 -268 12zM665.5 1381.5q-12.5 -66.5 34.5 -121.5q37 -45 95.5 -48t107.5 27t57 87q8 53 -4 88q-16 45 -37 63q-23 18 -45 27q-27 8 -61 8 q-53 2 -86 -25q-49 -39 -61.5 -105.5z" />
<glyph unicode="&#xec;" horiz-adv-x="505" d="M-45 1498q-6 -56 35 -105l160 -176q39 -46 98 -50q63 -2 103 37t46.5 95.5t-34.5 105.5l-160 176q-39 45 -98 49q-63 2 -103.5 -37t-46.5 -95zM102 918q20 -258 15 -789q0 -70 42 -105.5t98 -36.5t100 33.5t46 104.5q4 543 -14 809q-4 70 -49 102.5t-101.5 29.5 t-97.5 -41t-39 -107z" />
<glyph unicode="&#xed;" horiz-adv-x="505" d="M90 1299.5q6 -56.5 46.5 -95.5t103.5 -37q59 4 98 50l160 176q41 49 34.5 105t-46.5 95t-103 37q-59 -4 -98 -49l-160 -176q-41 -49 -35 -105.5zM102 918q20 -258 15 -789q0 -70 42 -105.5t98 -36.5t100 33.5t46 104.5q4 543 -14 809q-4 70 -49 102.5t-101.5 29.5 t-97.5 -41t-39 -107z" />
<glyph unicode="&#xee;" horiz-adv-x="505" d="M-68.5 1350.5q-7.5 -50.5 17.5 -93.5t76 -53q49 -10 92 21l125 94l120 -96q43 -31 90.5 -18.5t77 51t19.5 92.5q-8 53 -51 82l-181 143q-41 29 -90 18q-4 -2 -9 -2t-9 -2q-23 -6 -41 -18l-186 -135q-43 -33 -50.5 -83.5zM102 918q20 -258 15 -789q0 -70 42 -105.5 t98 -36.5t100 33.5t46 104.5q4 543 -14 809q-4 70 -49 102.5t-101.5 29.5t-97.5 -41t-39 -107z" />
<glyph unicode="&#xef;" horiz-adv-x="505" d="M-46 1390.5q-13 -67.5 34 -120.5q35 -41 87 -44t95 24.5t55 78.5q10 47 -4 94q-12 43 -57 62q-23 10 -45 12q-16 2 -34.5 1t-41.5 -7q-76 -33 -89 -100.5zM102 918q20 -258 15 -789q0 -70 42 -105.5t98 -36.5t100 33.5t46 104.5q4 543 -14 809q-4 70 -49 102.5 t-101.5 29.5t-97.5 -41t-39 -107zM293 1381.5q-10 -60.5 31 -111.5q33 -41 86 -44t98 24.5t51 78.5q6 47 -4 80q-12 41 -33 55q-20 18 -41 27q-23 6 -55 6q-49 2 -78 -20q-45 -35 -55 -95.5z" />
<glyph unicode="&#xf0;" horiz-adv-x="1280" d="M104 510q0 -147 64.5 -268t185.5 -191q119 -71 277 -71q154 0 278.5 81.5t196.5 229.5q72 147 72 334q0 147 -57.5 300.5t-182.5 305.5q-70 94 -126 162.5t-112.5 127t-126.5 119.5q-45 39 -71.5 51.5t-57.5 12.5q-61 0 -103 -41t-42 -104q0 -41 37 -84q35 -43 115 -117 q92 -88 151.5 -152.5t112.5 -148.5q-20 8 -64.5 13t-79.5 5q-174 0 -307 -137q-160 -160 -160 -428zM219 1243q2 -51 36 -84t89 -33q39 0 84 31l242 154l204 125q78 51 78 123q-2 53 -33.5 86.5t-89.5 33.5q-33 0 -67 -14q-70 -33 -133.5 -69.5t-144.5 -92t-201 -143.5 q-63 -45 -64 -117zM391 518q0 190 109 266q47 35 100 35q37 0 64.5 -4t64.5 -20l80 -37q14 -6 27 -6q6 0 14 2h16q25 -72 25 -179q0 -88 -28.5 -161.5t-83 -118.5t-130.5 -45q-115 0 -186.5 71.5t-71.5 196.5z" />
<glyph unicode="&#xf1;" horiz-adv-x="1142" d="M111 903q6 -57 9 -140t6 -176t4 -181.5t1 -158v-104.5q0 -57 28.5 -91t71.5 -45t86 0t72 45t29 91q0 96 -2 283q-2 184 -2 256q0 18 1 27.5t9 35.5q23 35 71 54.5t105 13.5q55 -4 92 -29.5t49 -64.5q16 -49 22.5 -130t6.5 -143q-2 -82 -7 -169t-5 -140q-2 -66 37 -100.5 t93 -36.5t96 30.5t44 98.5q0 43 5 132t7 185q0 47 -4 113t-13 130.5t-24 111.5q-41 127 -133 203.5t-237 78.5q-166 -6 -260 -125q-18 100 -129 107q-61 0 -100.5 -44t-28.5 -118zM160 1317q0 -109 94 -109q33 0 49.5 11.5t36.5 44.5q31 49 88 49q29 0 58.5 -11.5 t72.5 -35.5q55 -31 90 -44.5t78 -13.5q68 0 126.5 35t94 91.5t35.5 121.5q0 47 -25.5 76t-70.5 29q-39 0 -57.5 -13.5t-40.5 -48.5q-31 -49 -74 -49q-35 0 -59.5 10t-65.5 37q-45 31 -82 45t-90 14q-59 0 -118.5 -35.5t-99.5 -91t-40 -112.5z" />
<glyph unicode="&#xf2;" horiz-adv-x="1167" d="M82 455q20 -166 123 -295q100 -129 278 -164q164 -33 281 8q96 35 168 119t106 178q35 92 45 193q18 96 -3 204.5t-79.5 199.5t-150.5 136q-66 33 -258 64q-57 27 -115 4q-8 -4 -24 -8q-41 -12 -43 -13q-74 -23 -121 -63q-80 -68 -130 -160t-69.5 -196.5t-7.5 -206.5z M293 1477.5q-6 -56.5 35 -105.5l159 -176q40 -45 99 -49q63 -2 103 37t46 95t-35 105l-159 177q-39 45 -99 49q-63 2 -103 -37t-46 -95.5zM367 487q-12 92 18.5 178.5t87.5 135.5l21 8q2 0 36 10q59 -14 107.5 -19t89.5 -24q37 -18 55.5 -69.5t19.5 -118t-14.5 -133 t-45 -115.5t-72.5 -66q-45 -16 -133 0q-150 31 -170 213z" />
<glyph unicode="&#xf3;" horiz-adv-x="1167" d="M82 446q20 -166 123 -294q100 -129 278 -164q164 -33 281 8q96 35 168 119t106 178q35 92 45 192q18 96 -3 205t-79.5 200t-150.5 136q-66 33 -258 64q-57 27 -115 4q-8 -4 -24 -9q-41 -12 -43 -12q-74 -23 -121 -63q-80 -68 -130 -160t-69.5 -196.5t-7.5 -207.5z M367 479q-12 92 18.5 178t87.5 136l21 8q2 0 36 10q59 -14 107.5 -19.5t89.5 -23.5q37 -18 55.5 -69.5t19.5 -118t-14.5 -133t-45 -115.5t-72.5 -66q-45 -16 -133 0q-150 31 -170 213zM375 1258.5q6 -56.5 46 -95.5t103 -37q59 4 99 50l159 176q41 49 35 105t-46 95t-103 37 q-59 -4 -99 -49l-159 -176q-41 -49 -35 -105.5z" />
<glyph unicode="&#xf4;" horiz-adv-x="1167" d="M82 440q20 -166 123 -295q100 -128 278 -163q164 -33 281 8q96 35 168 119t106 178q35 92 45 192q18 96 -3 205t-79.5 200t-150.5 136q-66 33 -258 63q-57 27 -115 4q-8 -4 -24 -8q-41 -12 -43 -12q-74 -23 -121 -63q-80 -68 -130 -160t-69.5 -196.5t-7.5 -207.5z M316.5 1287q-7.5 -50 18.5 -93t81 -53q51 -10 96 20l133 94l129 -96q45 -31 95.5 -18.5t81 51.5t20.5 92q-8 53 -53 82l-193 143q-43 29 -94 19q-4 -2 -10.5 -2t-10.5 -2q-23 -6 -43 -19l-196 -135q-47 -33 -54.5 -83zM367 473q-12 92 18.5 178t87.5 135l21 9q2 0 36 10 q59 -14 107.5 -19.5t89.5 -23.5q37 -18 55.5 -69.5t19.5 -118t-14.5 -133t-45 -116t-72.5 -65.5q-45 -16 -133 0q-150 31 -170 213z" />
<glyph unicode="&#xf5;" horiz-adv-x="1167" d="M82 453q20 -166 123 -295q100 -129 278 -164q164 -33 281 8q96 35 168 119t106 178q35 92 45 193q18 96 -3 204.5t-79.5 199.5t-150.5 136q-66 33 -258 64q-57 27 -115 4q-8 -4 -24 -8q-41 -12 -43 -13q-74 -23 -121 -63q-80 -68 -130 -160t-69.5 -196.5t-7.5 -206.5z M154 1309q0 -109 94 -109q33 0 49 11.5t37 43.5q31 49 88 50q29 0 58.5 -11.5t72.5 -36.5q55 -31 90 -44t78 -13q68 0 126 35t94 91t36 122q0 47 -25.5 75.5t-70.5 28.5q-39 0 -57.5 -13t-41.5 -48q-31 -49 -73 -49q-35 0 -59.5 10t-65.5 37q-45 31 -82 45t-90 14 q-59 0 -119 -35.5t-99.5 -91t-39.5 -112.5zM367 485q-12 92 18.5 178.5t87.5 135.5l21 8q2 0 36 10q59 -14 107.5 -19t89.5 -24q37 -18 55.5 -69.5t19.5 -118t-14.5 -133t-45 -115.5t-72.5 -66q-45 -16 -133 0q-150 31 -170 213z" />
<glyph unicode="&#xf6;" horiz-adv-x="1167" d="M82 444q20 -166 123 -294q100 -129 278 -164q164 -33 281 8q96 35 168 119t106 178q35 92 45 192q18 96 -3 205t-79.5 200t-150.5 136q-66 33 -258 63q-57 27 -115 5q-8 -4 -24 -9q-41 -12 -43 -12q-74 -23 -121 -63q-80 -68 -130 -160t-69.5 -196.5t-7.5 -207.5z M232 1347q5 -48 40 -85q39 -47 97.5 -50t105.5 28t59 88q10 51 -4 102q-14 49 -66 68q-23 12 -49 14q-16 2 -37.5 1t-46.5 -9q-55 -20 -79.5 -64.5t-19.5 -92.5zM367 477q-12 92 18.5 178t87.5 136l21 8q2 0 36 10q59 -14 107.5 -19.5t89.5 -23.5q37 -18 55.5 -69.5 t19.5 -118t-14.5 -133t-45 -115.5t-72.5 -66q-45 -16 -133 0q-150 31 -170 213zM630.5 1381.5q-12.5 -66.5 34.5 -121.5q37 -45 95.5 -48t107.5 27t57 87q8 53 -4 88q-16 45 -37 63q-23 18 -45 27q-27 8 -61 8q-53 2 -86 -25q-49 -39 -61.5 -105.5z" />
<glyph unicode="&#xf7;" horiz-adv-x="1546" d="M218 517q3 -56 41 -97t108 -39q213 12 823 12q57 0 91 29t45 72t0 86t-45 71.5t-91 28.5q-618 0 -840 -12q-70 -4 -102.5 -49.5t-29.5 -101.5zM612 874.5q4 -45.5 45 -83.5q39 -41 84 -45.5t83 18t60.5 61.5t18.5 83t-45 83q-39 41 -83 45t-83 -18.5t-61.5 -60t-18.5 -83 zM614 139q4 -45 45 -84q39 -41 84 -45t83 18.5t60.5 61.5t18.5 83t-45 83q-39 41 -83 45t-83 -18.5t-61.5 -60.5t-18.5 -83z" />
<glyph unicode="&#xf8;" horiz-adv-x="1161" d="M70.5 -10.5q7.5 -34.5 34 -58t60 -23.5t62.5 37l187 227l270 322l240 307l198 231q27 33 17.5 64.5t-38 53t-62 19.5t-58.5 -36l-188 -220l-517 -639l-188 -215q-25 -35 -17.5 -69.5zM82 444q20 -166 123 -294q100 -129 278 -164q164 -33 281 8q96 35 168 119t106 178 q35 92 45 192q18 96 -3 205t-79.5 200t-150.5 136q-66 33 -258 63q-57 27 -115 5q-8 -4 -24 -9q-41 -12 -43 -12q-74 -23 -121 -63q-80 -68 -130 -160t-69.5 -196.5t-7.5 -207.5zM367 477q-12 92 18.5 178t87.5 136l21 8q2 0 36 10q59 -14 107.5 -19.5t89.5 -23.5 q37 -18 55.5 -69.5t19.5 -118t-14.5 -133t-45 -115.5t-72.5 -66q-45 -16 -133 0q-150 31 -170 213z" />
<glyph unicode="&#xf9;" horiz-adv-x="1148" d="M98 573.5q-4 -69.5 2 -106.5q8 -106 43 -200.5t107 -164t190 -102.5q215 -35 332 129q0 -104 117 -149q59 0 102 40q43 43 43 101q4 518 0 821q-2 57 -31.5 91t-72.5 45.5t-85 -1t-71 -47.5t-29 -92q4 -238 3 -539q-12 -8 -25 -20q-55 -88 -110.5 -107.5t-100.5 -7.5 q-68 16 -99.5 68.5t-39.5 152.5q-6 35 -2 98.5t11 130t13 109.5l15 107q8 68 -29 106.5t-90 44.5t-98.5 -22.5t-55.5 -95.5q-4 -33 -12 -99.5t-15.5 -143.5t-11.5 -146.5zM291 1498q-6 -56 35 -105l160 -176q39 -46 98 -50q63 -2 103 37t46.5 95.5t-34.5 105.5l-160 176 q-39 45 -98 49q-63 2 -103.5 -37t-46.5 -95z" />
<glyph unicode="&#xfa;" horiz-adv-x="1132" d="M94 577.5q-4 -67.5 2 -104.5q8 -102 43 -196.5t105.5 -164t189.5 -102.5q174 -45 328 68q41 -59 115 -62q59 0 102 41q43 43 43 101q4 485 0 780q-2 70 -46 104.5t-100.5 33.5t-98.5 -36.5t-42 -105.5q4 -229 2 -502q-12 -8 -24 -20q-84 -96 -123 -123q-41 -29 -86 -17 q-66 16 -97.5 67.5t-39.5 152.5q-6 35 -2 96t11 125.5t13 105.5l14 107q8 66 -28.5 103.5t-89 44.5t-97.5 -21.5t-55 -94.5q-4 -33 -12 -98t-15.5 -140t-11.5 -142.5zM387 1258.5q6 -56.5 46.5 -95.5t103.5 -37q59 4 98 50l160 176q41 49 34.5 105t-46.5 95t-103 37 q-59 -4 -98 -49l-160 -176q-41 -49 -35 -105.5z" />
<glyph unicode="&#xfb;" horiz-adv-x="1148" d="M98 573.5q-4 -69.5 2 -106.5q8 -106 43 -200.5t107 -164t190 -102.5q215 -35 332 129q0 -104 117 -149q59 0 102 40q43 43 43 101q4 518 0 821q-2 57 -31.5 91t-72.5 45.5t-85 -1t-71 -47.5t-29 -92q4 -238 3 -539q-12 -8 -25 -20q-55 -88 -110.5 -107.5t-100.5 -7.5 q-68 16 -99.5 68.5t-39.5 152.5q-6 35 -2 98.5t11 130t13 109.5l15 107q8 68 -29 106.5t-90 44.5t-98.5 -22.5t-55.5 -95.5q-4 -33 -12 -99.5t-15.5 -143.5t-11.5 -146.5zM249 1350.5q-7 -50.5 18.5 -93.5t80.5 -53q51 -10 97 21l133 94l129 -96q45 -31 95 -18.5t81 51 t20 92.5q-8 53 -53 82l-192 143q-43 29 -95 18q-4 -2 -10 -2t-10 -2q-23 -6 -43 -18l-197 -135q-47 -33 -54 -83.5z" />
<glyph unicode="&#xfc;" horiz-adv-x="1148" d="M98 573.5q-4 -69.5 2 -106.5q8 -106 43 -200.5t107 -164t190 -102.5q215 -35 332 129q0 -104 117 -149q59 0 102 40q43 43 43 101q4 518 0 821q-2 57 -31.5 91t-72.5 45.5t-85 -1t-71 -47.5t-29 -92q4 -238 3 -539q-12 -8 -25 -20q-55 -88 -110.5 -107.5t-100.5 -7.5 q-68 16 -99.5 68.5t-39.5 152.5q-6 35 -2 98.5t11 130t13 109.5l15 107q8 68 -29 106.5t-90 44.5t-98.5 -22.5t-55.5 -95.5q-4 -33 -12 -99.5t-15.5 -143.5t-11.5 -146.5zM226 1347q5 -48 40 -85q39 -47 97.5 -50t105.5 28t59 88q10 51 -4 102q-14 49 -66 68q-23 12 -49 14 q-16 2 -37.5 1t-46.5 -9q-55 -20 -79.5 -64.5t-19.5 -92.5zM624.5 1381.5q-12.5 -66.5 34.5 -121.5q37 -45 95.5 -48t107.5 27t57 87q8 53 -4 88q-16 45 -37 63q-23 18 -45 27q-27 8 -61 8q-53 2 -86 -25q-49 -39 -61.5 -105.5z" />
<glyph unicode="&#xfd;" horiz-adv-x="923" d="M14.5 962q-14.5 -42 3.5 -96l289 -762q2 -10 8 -18q-35 -55 -73 -102q-29 -37 -79 -79t-95 -85q-47 -47 -43 -100.5t40.5 -92.5t89 -45t101.5 41q10 12 51 49l82 74q39 35 66 70q39 49 75.5 103t69.5 118l57 110q25 49 54 123l45 119q29 74 54.5 163t47 176t43.5 153 q18 66 -11.5 109.5t-80.5 58t-100.5 -6t-65.5 -84.5q-113 -399 -160 -524l-198 535q-20 53 -58.5 74.5t-82.5 16.5t-79.5 -30.5t-50 -67.5zM307 1273q6 -56 46.5 -95t103.5 -37q59 4 98 49l160 176q41 49 34.5 105.5t-46 95.5t-103.5 37q-59 -4 -98 -50l-160 -176 q-41 -49 -35 -105z" />
<glyph unicode="&#xfe;" horiz-adv-x="1177" d="M113 836q0 -258 4 -580q4 -323 4 -530q0 -57 28.5 -91t71.5 -45.5t86 0t72 45t29 91.5q0 164 -2 323q98 -57 206.5 -63t204.5 39q121 53 199 166.5t88 261.5q10 141 -28 269t-113.5 228.5t-178.5 155.5q-176 94 -350 27q-14 -6 -31 -15q0 35 7 205q2 57 -26 92t-71 48.5 t-86 4t-72.5 -42t-31.5 -90.5q-8 -246 -10 -499zM399 784q55 92 125 121q68 25 142 -14q88 -47 145 -162t47 -260q-6 -80 -45 -137t-96 -84q-125 -55 -242 55q-51 47 -74 139q-2 199 -2 342z" />
<glyph unicode="&#xff;" horiz-adv-x="923" d="M14.5 933q-14.5 -42 3.5 -95l289 -742q2 -10 8 -18q-35 -55 -73 -103q-29 -37 -79 -78.5t-95 -84.5q-47 -47 -43 -100.5t40.5 -92.5t89 -45t101.5 41q10 12 51 49l82 74q39 35 66 69q39 49 75.5 103.5t69.5 118.5l57 110q25 49 54 123l45 119q16 41 36.5 106.5t41 137 t39 133t28.5 94.5q18 66 -11.5 110t-80.5 58t-100.5 -6.5t-65.5 -83.5q-113 -379 -160 -504l-198 514q-20 53 -58.5 74.5t-82.5 16.5t-79.5 -30.5t-50 -67.5zM101 1346.5q5 -48.5 40 -84.5q39 -47 97.5 -50.5t105.5 27.5t59 88q10 51 -4 103q-14 49 -65 67q-23 12 -49 14 q-16 2 -38 1t-46 -9q-55 -20 -80 -64t-20 -92.5zM499.5 1381.5q-12.5 -66.5 35.5 -121.5q37 -45 95 -48.5t107.5 26.5t57.5 87q8 53 -4 88q-16 45 -37 64q-23 18 -45 26q-27 8 -62 8q-53 2 -86 -24q-49 -39 -61.5 -105.5z" />
<glyph unicode="&#x152;" horiz-adv-x="2213" d="M76 623q39 -207 136 -335t255 -222q102 -61 224 -85t245 3q121 25 217 112q12 -31 37 -53q23 -35 59.5 -52t79.5 -11q35 4 64 24q39 0 118.5 2t177 3t187.5 2t149 1q57 0 91 29t45.5 72t0 86t-45 71.5t-91.5 28.5q-115 0 -327 -4q-215 -4 -266 -4q-20 182 -31 375 q61 2 452 14q57 2 90 31.5t43.5 72.5t-2 86t-47 71t-92.5 26q-414 -14 -456 -17q0 66 -3 125q31 37 32 88t-29 90q246 4 542 21q70 4 102.5 49t29.5 101.5t-40.5 97.5t-107.5 39q-322 -18 -576 -23q-43 43 -104 43q-86 -2 -125 -78l-8 -8q-133 61 -269.5 63.5t-252.5 -45.5 q-117 -47 -218 -133q-160 -139 -240.5 -338.5t-45.5 -418.5zM358 668q-23 143 31 282q53 121 162 215q68 59 145 88q78 27 168 17q86 -10 176 -66q27 -16 60 -55q2 -166 6 -291q-12 -31 -12 -63q2 -33 16 -62q4 -92 10 -155q-49 -23 -69 -74q-10 -27 -21 -64l-6 -14 q-2 -10 -4 -18.5t-6 -16.5q-10 -37 -21 -49q-158 -166 -379 -33q-111 68 -167 148t-89 211z" />
<glyph unicode="&#x153;" horiz-adv-x="1884" d="M78 573q-2 -117 35 -228.5t125 -207.5t213 -137q193 -66 313 6q78 43 139 133q63 -57 156 -102q170 -72 332 -68q100 8 188 47l72 35q37 20 61 31q61 25 76.5 74t-5 98t-65.5 74.5t-106 1.5q-37 -16 -82 -43l-57 -29q-57 -20 -130 -25q-74 0 -169 46q-88 43 -117 92 q-10 14 -13 43q221 -4 326 0q150 6 244 28q66 18 110 45q76 45 97 123q31 135 -68 269q-76 106 -209 172q-86 45 -180 63q-90 18 -197.5 -4.5t-191.5 -95.5q-27 -25 -51 -56q-37 41 -82 66q-123 70 -310 55q-143 -10 -242.5 -82.5t-152.5 -184.5t-59 -239zM346 567 q2 104 56.5 171t152.5 75q104 8 158 -22q8 -4 24 -31l17 -25q8 -16 10 -18q16 -25 29 -45q-2 -8 -5 -21q-27 -123 -16 -229q-16 -20 -35 -51l-41 -66q-36 -53 -65 -69q-18 -10 -96 16q-88 31 -140.5 119t-48.5 196zM1073 680q35 96 78 135q45 39 116.5 40t153.5 -40 q78 -41 117 -94q8 -10 12 -19l-2 -2q-66 -14 -188 -20q-115 -6 -287 0z" />
<glyph unicode="&#x178;" horiz-adv-x="1204" d="M20.5 1352q-8.5 -43 18.5 -92q74 -139 225 -388l205 -340v-116q0 -51 2 -140v-141q2 -57 31.5 -90t72.5 -43t86.5 2t71 47t25.5 92q-2 74 -2 234t-2 207q70 123 190 305q225 340 238 360q31 49 24.5 93t-37 76t-72.5 44.5t-85 -1t-72 -60.5l-233 -352l-111 -172 q-240 397 -307 518q-27 49 -69 65.5t-85 6t-74.5 -41t-40 -73.5zM253 1719q5 -48 40 -85q39 -47 97.5 -50t105.5 28t59 88q10 51 -4 102q-14 49 -66 68q-23 12 -49 14q-16 2 -37.5 1t-46.5 -9q-55 -20 -79.5 -64.5t-19.5 -92.5zM651.5 1753.5q-12.5 -66.5 34.5 -121.5 q37 -45 95.5 -48t107.5 27t57 87q8 53 -4 88q-16 45 -37 63q-23 18 -45 27q-27 8 -61 8q-53 2 -86 -25q-49 -39 -61.5 -105.5z" />
<glyph unicode="&#x2c6;" horiz-adv-x="659" d="M3 1350.5q-7 -50.5 18.5 -93.5t80.5 -53q51 -10 97 21l133 94l129 -96q45 -31 95 -18.5t81 51t20 92.5q-8 53 -53 82l-192 143q-43 29 -95 18q-4 -2 -10 -2t-10 -2q-23 -6 -43 -18l-197 -135q-47 -33 -54 -83.5z" />
<glyph unicode="&#x2dc;" horiz-adv-x="823" d="M0 1317q0 -109 94 -109q33 0 49.5 11.5t36.5 44.5q31 49 88 49q29 0 58.5 -11.5t72.5 -35.5q55 -31 90 -44.5t78 -13.5q68 0 126.5 35t94 91.5t35.5 121.5q0 47 -25.5 76t-70.5 29q-39 0 -57.5 -13.5t-40.5 -48.5q-31 -49 -74 -49q-35 0 -59.5 10t-65.5 37q-45 31 -82 45 t-90 14q-59 0 -118.5 -35.5t-99.5 -91t-40 -112.5z" />
<glyph unicode="&#x2000;" horiz-adv-x="1007" />
<glyph unicode="&#x2001;" horiz-adv-x="2015" />
<glyph unicode="&#x2002;" horiz-adv-x="1007" />
<glyph unicode="&#x2003;" horiz-adv-x="2015" />
<glyph unicode="&#x2004;" horiz-adv-x="671" />
<glyph unicode="&#x2005;" horiz-adv-x="503" />
<glyph unicode="&#x2006;" horiz-adv-x="335" />
<glyph unicode="&#x2007;" horiz-adv-x="335" />
<glyph unicode="&#x2008;" horiz-adv-x="251" />
<glyph unicode="&#x2009;" horiz-adv-x="403" />
<glyph unicode="&#x200a;" horiz-adv-x="111" />
<glyph unicode="&#x2010;" horiz-adv-x="837" d="M104 553q0 -53 33 -94t101 -41h362q68 0 100.5 41t32.5 94t-32.5 94t-100.5 41h-362q-68 0 -101 -41t-33 -94z" />
<glyph unicode="&#x2011;" horiz-adv-x="837" d="M104 553q0 -53 33 -94t101 -41h362q68 0 100.5 41t32.5 94t-32.5 94t-100.5 41h-362q-68 0 -101 -41t-33 -94z" />
<glyph unicode="&#x2012;" horiz-adv-x="837" d="M104 553q0 -53 33 -94t101 -41h362q68 0 100.5 41t32.5 94t-32.5 94t-100.5 41h-362q-68 0 -101 -41t-33 -94z" />
<glyph unicode="&#x2013;" horiz-adv-x="1349" d="M105.5 566q-3.5 -48 25.5 -87t90 -41q430 -18 922 -18q61 0 91 37t30 86t-30 86t-91 37q-449 0 -910 18q-61 2 -92.5 -34t-35 -84z" />
<glyph unicode="&#x2014;" horiz-adv-x="1710" d="M62 545q-1 -49 29 -86t91 -37q141 -2 428 -14t434 -15h148q104 0 178 -2q66 -2 146 -8q61 -4 93.5 29.5t37 83t-23.5 89.5t-87 44q-74 6 -150.5 7t-187.5 3h-149q-147 2 -435 14q-289 12 -428 15q-59 0 -91 -37t-33 -86z" />
<glyph unicode="&#x2018;" horiz-adv-x="630" d="M121.5 1393q-23.5 -47 3.5 -107l37 -80q20 -45 32.5 -75.5t28.5 -73.5l33 -88q25 -63 74 -80t99 1.5t76.5 64.5t4.5 108q-8 18 -21.5 56t-26.5 74t-18 48q-12 27 -14 31q-2 2 -22 47l-37 78q-27 61 -78 74.5t-99.5 -9t-72 -69.5z" />
<glyph unicode="&#x2019;" horiz-adv-x="630" d="M121 1063q-23 -61 4 -107.5t77 -65t99 -1.5t74 80l33 88q16 43 28.5 73.5t32.5 75.5l37 80q27 59 3 106.5t-72 70t-99 9t-78 -74.5l-37 -78q-6 -14 -17 -40t-20.5 -47.5t-11.5 -25.5q-2 -6 -18 -51q-16 -47 -35 -92z" />
<glyph unicode="&#x201a;" horiz-adv-x="530" d="M114.5 -219q16.5 -45 58.5 -69.5t89 -17.5t78 60l47 78q25 41 33 74q6 27 4 76q0 59 -3 110t-27.5 84t-86.5 35q-51 2 -88 -33t-39 -86q-2 -53 -2 -112v-17l-2 -4l-49 -82q-29 -51 -12.5 -96z" />
<glyph unicode="&#x201c;" horiz-adv-x="997" d="M119.5 1379q-21.5 -48 7.5 -109q75 -148 141 -291q27 -61 78 -74.5t99.5 9t72 69.5t-3.5 107l-145 303q-29 59 -80 70.5t-99.5 -12.5t-70 -72zM478.5 1383.5q-21.5 -48.5 6.5 -109.5q76 -148 142 -291q27 -61 78 -74.5t99 9t71.5 69.5t-3.5 107l-145 303q-29 59 -80 70.5 t-99 -12t-69.5 -72z" />
<glyph unicode="&#x201d;" horiz-adv-x="1001" d="M121.5 993.5q23.5 -47.5 72 -70t99.5 -9t78 74.5q66 143 141 291q29 61 7.5 109.5t-70 72t-99.5 12t-80 -70.5l-145 -303q-27 -59 -3.5 -106.5zM484 989.5q24 -47.5 72 -70t99 -9t78 74.5q66 143 141 291q29 61 7.5 109.5t-69.5 72t-99 12t-80 -70.5l-146 -303 q-27 -59 -3 -106.5z" />
<glyph unicode="&#x201e;" horiz-adv-x="763" d="M84 -182q-10 -59 21.5 -94t79.5 -43.5t89.5 15.5t51.5 85q2 12 7 40.5t9 56.5t6 40q2 23 2 29q0 4 4 43l8 76q4 61 -29.5 95t-80.5 38t-87 -22.5t-48 -86.5q-2 -16 -4 -47t-5.5 -58.5t-3.5 -35.5q-2 -10 -6 -36t-8 -53.5t-6 -41.5zM416 -207q-14 -59 14.5 -97t75.5 -49.5 t90 9.5t57 80q35 141 37 158q4 18 6 63q2 61 6 117q4 61 -29.5 94t-82.5 36t-89 -25.5t-44 -88.5q-4 -59 -6 -121q-2 -35 -5 -45q0 -2 -30 -131z" />
<glyph unicode="&#x2022;" horiz-adv-x="532" d="M100 698.5q4 -51.5 52 -96.5q45 -47 96 -51t94 21.5t68.5 69.5t21.5 94t-51 95q-45 47 -95 51.5t-94.5 -21t-70 -68.5t-21.5 -94.5z" />
<glyph unicode="&#x2026;" horiz-adv-x="1642" d="M80 142.5q-6 -52.5 43 -99.5q47 -49 99 -43t90 44t42 90t-43 97q-45 47 -97 43t-90 -41.5t-44 -90zM681 139q-3 -51 44 -98t100.5 -42t91 43t42.5 90t-44 99q-51 43 -103 38t-90 -42t-41 -88zM1285 139q-3 -51 44 -98t100.5 -42t91.5 43t43 90t-44 99q-51 43 -103.5 38 t-90.5 -42t-41 -88z" />
<glyph unicode="&#x202f;" horiz-adv-x="403" />
<glyph unicode="&#x2039;" horiz-adv-x="677" d="M104 569q-2 -55 33 -108q16 -23 51 -58l144 -147q39 -47 87 -45t84 36t43 82t-34 91q-45 51 -129 135l149 127q47 41 44 89t-35.5 84t-79.5 43t-92 -32q-33 -31 -64 -57l-61 -51l-39 -31q-39 -33 -58 -55q-39 -47 -43 -103z" />
<glyph unicode="&#x203a;" horiz-adv-x="624" d="M105 763q-1 -48 45 -87l129 -109l-117 -114q-43 -41 -39 -89.5t39 -83t83 -38.5t89 39l78 75q45 43 61 58q82 86 78 166q-4 78 -92 155l-66 56l-84 69q-45 41 -92 33t-79 -45t-33 -85z" />
<glyph unicode="&#x205f;" horiz-adv-x="503" />
<glyph unicode="&#x20ac;" horiz-adv-x="1544" d="M94 558q-2 -56 32 -100t105 -46h39q39 -164 148 -269q107 -106 252 -139q141 -33 288 4q143 39 267 137q43 35 71 66q53 57 83 130t57 134q23 53 8.5 95t-49.5 69t-79 33t-84 -14.5t-63 -71.5q-14 -37 -33.5 -85t-29.5 -69q-12 -23 -25.5 -35t-36.5 -30 q-72 -57 -154.5 -79t-156.5 -5q-111 27 -162 129l390 12q57 2 89.5 31.5t42 72.5t-4 86t-48 71t-92.5 26q-414 -14 -418 -15q2 41 9 82q80 0 229 2q147 2 174 2q70 2 104.5 46t33.5 100.5t-36.5 98.5t-105.5 42q-49 0 -152 -2q-102 -2 -153 -2q113 190 313 147 q82 -18 135.5 -70t116.5 -169q29 -49 70 -64.5t84 -5.5t74.5 41t40 75t-18.5 93q-45 82 -102.5 160t-138.5 136t-199 83q-240 43 -403 -55.5t-255 -292.5q-18 -39 -35 -80h-79q-57 0 -91 -28.5t-45.5 -71.5t0 -86t45 -72t91.5 -29h14q-4 -39 -6 -78h-4q-70 0 -107 -42 t-39 -98z" />
<glyph unicode="&#x2122;" horiz-adv-x="1748" d="M103 1386.5q1 -49.5 33 -86t91 -36.5h64q8 -305 4 -473q-4 -52 29 -91q39 -41 88 -42t87 30t42 86q4 170 -4 496q72 2 127 2q61 0 90.5 37t28.5 86t-32.5 86t-91.5 37q-70 0 -194 -5q-184 -4 -242 -4q-61 0 -91 -36.5t-29 -86zM829 1376q-6 -37 7 -82q10 -41 14 -47 q0 -186 -8 -481q-2 -61 33.5 -93t84 -33t87 27.5t40.5 90.5q4 137 7 196l36 -75l33 -60q8 -14 13 -22l14 -19q10 -10 22 -20q42 -29 91 -21q41 6 71 37q16 16 37 53q12 25 31 70l16 39q2 -72 4 -156q0 -61 37 -91t86 -28.5t86 33t37 90.5q-4 190 -12 336q-10 123 -23 203 q-8 53 -20 86q-29 78 -92 102q-70 27 -127 -22q-12 -12 -23 -27q-8 -12 -18 -30q-12 -25 -29 -68l-76 -188l-14 -39l-17 26q-61 172 -110 234q-37 47 -70 71q-80 59 -157 25q-78 -33 -91 -117z" />
<glyph unicode="&#x25fc;" horiz-adv-x="1085" d="M0 0v1085h1085v-1085h-1085z" />
<glyph unicode="&#xfb03;" horiz-adv-x="1734" d="M25 889q0 -57 45 -94t98 -37h45q2 -63 2 -168l2 -221q0 -135 -4 -217q-2 -72 38 -112t97 -40q55 0 97 34t47 97q4 51 4 105v52v48l-2 209l-2 166q-2 14 -3 47h394l4 266l-416 2v61q0 141 141 142q47 0 117 -33q16 -6 31 -12q14 -6 31 -10l129 190q-51 31 -78 46 t-50.5 25.5t-64.5 22.5q-63 16 -143 17q-111 0 -200 -54.5t-138 -144.5q-49 -92 -49 -199v-51h-56q-43 0 -79.5 -42t-36.5 -95zM586 891q0 -59 41 -96t90 -37h24q2 -61 2 -168l2 -221q0 -135 -4 -217q-2 -72 41.5 -112t102.5 -40q55 0 97 34t46 97q4 51 4 105v52v48l-2 209 q0 57 -4 213h74q72 0 110.5 40t38.5 97q0 55 -36.5 95t-104.5 42l-100 2v84q0 76 42 113t117 37q39 0 70 -10.5t70 -28.5q47 -20 69.5 -27.5t55.5 -7.5q57 0 96 39t39 96q0 90 -101.5 142.5t-261.5 52.5q-131 0 -240.5 -51.5t-172.5 -145.5q-66 -96 -66 -219v-82h-23 q-43 0 -79.5 -40t-36.5 -95zM1333 422q0 -186 2 -283q2 -66 44.5 -102.5t99.5 -36.5t100 38t43 105l-2 273q0 297 8 524q2 70 -41 108.5t-104 38.5q-57 0 -98.5 -34.5t-43.5 -100.5q-8 -168 -8 -530z" />
</font>
</defs>
</svg>
