<?xml version="1.0" standalone="no"?>
<!DOCTYPE svg PUBLIC "-//W3C//DTD SVG 1.1//EN" "http://www.w3.org/Graphics/SVG/1.1/DTD/svg11.dtd" >
<svg xmlns="http://www.w3.org/2000/svg" xmlns:xlink="http://www.w3.org/1999/xlink" version="1.1">
<metadata></metadata>
<defs>
<font id="balsamiq_sansregular" horiz-adv-x="1359" >
<font-face units-per-em="2048" ascent="1638" descent="-410" />
<missing-glyph horiz-adv-x="552" />
<glyph unicode="&#xfb01;" horiz-adv-x="995" d="M16 961q0 -45 29 -74t78 -29h16l2 -156v-98q4 -342 13 -481q8 -119 92 -123q55 -2 84.5 38t25.5 105q-10 102 -11 234.5t-1 247.5v235h96q47 0 75 30t28 73t-28 72.5t-75 29.5h-88q0 129 27 180q16 29 39.5 44.5t79.5 15.5q63 0 114 -23l33 -16.5l33 -16.5q33 -16 65 -16 q47 0 79 32.5t32 86.5q0 68 -91 110.5t-241 42.5q-182 0 -279.5 -115.5t-95.5 -324.5h-36q-43 0 -69 -30.5t-26 -73.5zM664 266q0 -121 2 -166q0 -49 28.5 -75.5t69.5 -26.5q43 0 74.5 28.5t31.5 77.5q-2 45 -2 166q0 59 4 252v49l5 414q0 47 -31 74.5t-72 27.5t-71.5 -27.5 t-30.5 -74.5l-4 -416v-45q-4 -197 -4 -258z" />
<glyph unicode="&#xfb02;" horiz-adv-x="962" d="M16 956q0 -45 29 -73.5t78 -28.5h16l2 -152v-98q4 -342 13 -481q8 -119 96 -123q51 -2 81.5 36t24.5 107q-12 168 -12 508v209h86q47 0 74.5 26.5t27.5 69.5t-28.5 76t-73.5 33h-78q0 129 27 180q16 29 39.5 44.5t79.5 15.5q37 0 74.5 -12.5t89.5 -32.5q66 -27 88 -27 l-113 123q2 -78 2 -242v-163v-160q-2 -98 -2 -271v-94q0 -70 2 -150q0 -82 -2 -174q-2 -49 30.5 -76.5t75.5 -25.5q39 2 68 27.5t31 72.5v478q0 106 -4 385v186q0 127 -2 188q-4 78 -87 123t-227 45q-178 0 -274 -119.5t-101 -320.5h-24q-45 0 -76 -30.5t-31 -78.5z" />
<glyph horiz-adv-x="0" />
<glyph horiz-adv-x="682" />
<glyph unicode="&#xd;" horiz-adv-x="681" />
<glyph unicode=" "  horiz-adv-x="552" />
<glyph unicode="&#x09;" horiz-adv-x="552" />
<glyph unicode="&#xa0;" horiz-adv-x="552" />
<glyph unicode="!" horiz-adv-x="428" d="M100 99q-4 -40 33 -74q35 -37 75 -33t68.5 33.5t32.5 68.5t-33 74q-35 37 -73.5 33t-68.5 -33t-34 -69zM114 950q-1 -119 1 -221q0 -152 6 -287q2 -51 34.5 -74.5t72.5 -21.5t70 28.5t28 76.5q-6 137 -7.5 286.5t3.5 339.5q2 188 2 285q0 51 -31 76.5t-72 25.5 t-71.5 -25.5t-30.5 -76.5q0 -76 -2 -184.5t-3 -227.5z" />
<glyph unicode="&#x22;" horiz-adv-x="763" d="M106 987q-2 -51 28 -77.5t70 -27.5t72.5 22.5t34.5 74.5q2 76 2 422q0 51 -30.5 76.5t-71.5 25.5t-71.5 -25.5t-30.5 -76.5q0 -342 -3 -414zM432 985q0 -49 31 -75.5t71.5 -27.5t71.5 23.5t31 75.5q8 354 14 426q4 49 -23.5 77.5t-68.5 32t-74.5 -19t-38.5 -74.5 q-6 -78 -14 -438z" />
<glyph unicode="#" horiz-adv-x="1316" d="M112 464q3 -40 29.5 -69.5t77.5 -27.5q59 4 119 6q-8 -111 -19 -205q-4 -51 24 -80t69 -32t74.5 18.5t37.5 72.5q10 109 19 232q106 2 217 2q-6 -121 -19 -229q-4 -49 24 -78t68.5 -34t74.5 17.5t38 73.5q12 113 19 248l143 -4q51 -2 77.5 27.5t27.5 69.5t-23.5 73 t-73.5 35l-143 4q2 59 2 131q2 51 2 145l131 -4q51 -2 77.5 27.5t27.5 69.5t-22.5 73t-74.5 35l-135 4q2 125 6 225q2 49 -27.5 76t-69.5 29t-73 -21.5t-35 -75.5q-4 -102 -6 -233q-86 -2 -192 -4q10 113 24 213q4 51 -23.5 80.5t-66.5 35t-72.5 -16t-42.5 -70.5 q-14 -113 -24 -248l-96 -4q-49 -2 -74 -35t-24 -73t28 -69.5t78 -27.5l74 2q-4 -51 -9 -119l-6 -151q-74 -2 -143 -7q-51 -2 -74.5 -34.5t-20.5 -72.5zM555 584l6 135q4 82 8 137q115 2 203 4q0 -92 -2 -141q0 -76 -2 -133q-109 0 -213 -2z" />
<glyph unicode="$" horiz-adv-x="1456" d="M156 1055q16 -174 235 -289q20 -10 62.5 -26.5t85.5 -34t67 -25.5l82 -29q63 -18 72 -20q213 -72 284 -125q37 -31 46.5 -60.5t-5.5 -80.5q-20 -55 -84.5 -95.5t-150.5 -62t-174 -21.5t-156.5 21.5t-95.5 68.5q-14 27 -28.5 84.5t-26.5 104.5q-14 45 -51 59.5t-77 4 t-62.5 -42t-8.5 -76.5q20 -53 29.5 -107.5t42.5 -118.5q45 -86 138 -133t204 -59t209 6q102 14 196 50t178 104q82 66 113 151q76 213 -104 352q-98 74 -349 158q-266 90 -338 127q-121 61 -127 135q-10 90 58 139q74 57 205 58q94 2 179 -21.5t148.5 -65.5t89.5 -93v-33 q0 -20 2 -35q8 -49 42 -69.5t74 -16.5t67.5 32.5t23.5 76.5q-2 6 -2 16v29q-2 49 -20 84q-47 96 -143.5 162.5t-218.5 99t-246 30.5q-199 -4 -328 -98q-156 -113 -137 -315zM580 -143q-4 -70 24.5 -104t68.5 -34t70.5 30t30.5 89l4 127l15 1354l8 188q-2 53 -20.5 82 t-78.5 37q-55 -4 -79.5 -31.5t-26.5 -89.5l2 -153l-4 -658l2 -8l-8 -545z" />
<glyph unicode="%" horiz-adv-x="1933" d="M114.5 1184.5q-12.5 -99.5 26.5 -185.5q37 -88 115 -147.5t178 -63.5q84 -4 156 31t125 96.5t84 135.5q47 115 30 213q-25 135 -143 182q-70 27 -170 22l-70 -4q-35 -2 -55 -2q-51 2 -84 -37l-14 -6q-57 -27 -90 -59q-76 -76 -88.5 -175.5zM328 1081q-35 80 18 131 q8 8 33 19l33 14q10 6 24 12q12 0 23 3q8 0 32.5 2t32.5 2q59 2 88 -11q10 -4 15 -24q8 -41 -17 -101q-27 -63 -73 -100t-95 -35q-76 4 -114 88zM407.5 27q18.5 -37 55.5 -54.5t75 -7t58 57.5q27 57 86 149q74 119 100 168l193 348l244 420l198 346q27 43 12.5 81t-49 58.5 t-74.5 14.5t-65 -52l-203 -348l-436 -774q-23 -41 -92 -151q-68 -104 -98 -174q-23 -45 -4.5 -82zM1034 391q0 -131 79 -236.5t226 -136.5q104 -23 195.5 5t160 91.5t103.5 149.5q35 88 29 180.5t-56.5 168t-150.5 114.5q-35 14 -82 21q-31 47 -86 45h-16q-29 4 -31 4 q-55 2 -94 -13q-129 -47 -202 -157.5t-75 -235.5zM1239 389q2 59 31.5 111.5t85.5 81.5q25 -25 57 -31q2 0 86 -6q29 -2 43 -6q59 -25 76.5 -78t-8.5 -117q-29 -70 -90.5 -105.5t-139.5 -19.5q-70 14 -105.5 60.5t-35.5 109.5z" />
<glyph unicode="&#x26;" horiz-adv-x="1357" d="M100 397q0 -113 54.5 -203t152.5 -141q96 -51 221 -51q135 0 257 64.5t204 169.5q41 51 75 115.5t54.5 125t20.5 103.5t-26 71.5t-71 28.5q-70 0 -106 -92q-45 -133 -94 -207q-125 -182 -312 -182q-100 0 -160.5 58t-60.5 153q0 90 49.5 160.5t165.5 160.5q27 23 123 92 q141 104 207 193.5t66 193.5q0 106 -78 176t-215 70q-102 0 -188.5 -50t-135.5 -132q-51 -82 -51 -172q0 -145 125 -336q57 -86 116.5 -161t142.5 -162t208 -212q51 -51 162 -145l73 -66q35 -28 70 -28q43 0 74.5 31.5t31.5 72.5q0 45 -32 72q-176 150 -258 223 q-63 57 -130 125t-127.5 136.5t-104.5 126t-64 93.5q-45 80 -63.5 127.5t-18.5 102.5q0 63 48 111.5t109 48.5q53 0 78 -21.5t25 -54.5q0 -63 -82 -135q-74 -68 -213 -162q-166 -115 -244 -230.5t-78 -261.5z" />
<glyph unicode="'" horiz-adv-x="458" d="M113 1350q14 -103 28 -414q2 -51 35 -74.5t73 -22.5t69.5 27.5t27.5 77.5q-14 315 -29 434q-8 49 -41.5 70.5t-72.5 16.5t-66.5 -34.5t-23.5 -80.5z" />
<glyph unicode="(" horiz-adv-x="737" d="M134 394.5q5 -154.5 42 -305t105 -275.5q16 -25 38 -60l46 -65l34 -45q29 -43 68 -46.5t72.5 18.5t46 57.5t-14.5 72.5q-25 41 -57.5 83t-48.5 75q-76 166 -105.5 337t-15.5 336.5t66 311.5q78 217 219 434q27 39 13.5 75t-48.5 56.5t-74 15t-63 -48.5 q-117 -172 -194 -347t-111 -384q-23 -141 -18 -295.5z" />
<glyph unicode=")" horiz-adv-x="759" d="M88 -322.5q10 -33.5 45 -53t77 -17.5t73 39q338 391 354 884q16 514 -307 900q-29 37 -71 40t-77 -17.5t-45 -53.5t21 -70q289 -336 274 -790q-14 -440 -321 -791q-33 -37 -23 -70.5z" />
<glyph unicode="*" horiz-adv-x="956" d="M106.5 1196q-12.5 -39 3 -76t64.5 -51q113 -35 115 -35q10 -4 28 -14l-114 -127q-35 -39 -29 -79t36 -66.5t69.5 -28.5t74.5 35l129 141l195 -180q37 -35 77 -30t68.5 34t31.5 68.5t-34 74.5l-188 172q2 0 123 39q47 16 61 54t2 76t-46 59.5t-83 7.5l-100 -35v25 q0 14 2 45v65q0 51 -31 77t-71.5 27t-71.5 -25t-31 -75q-2 -152 -2 -160l-16 9q-12 6 -133 43q-49 14 -83 -8.5t-46.5 -61.5z" />
<glyph unicode="+" d="M131 555q0 -37 24.5 -65.5t75.5 -28.5q96 0 340 2q4 -255 4 -357q0 -51 31 -76.5t72 -25.5t71.5 25.5t30.5 76.5q0 102 -4 359q201 0 352 -4q49 0 75 27.5t27 64.5t-22.5 65.5t-74.5 30.5q-154 4 -359 4q0 197 4 338q2 51 -27.5 78t-69.5 28t-73 -23.5t-35 -74.5 q-4 -145 -4 -348q-242 -2 -338 -2q-51 0 -75.5 -28.5t-24.5 -65.5z" />
<glyph unicode="," horiz-adv-x="372" d="M31 -227q0 -37 22.5 -61.5t59.5 -24.5q76 0 118 84q29 59 44.5 101t15.5 87q0 66 -25 162q-20 72 -98 72q-37 0 -64.5 -28t-27.5 -69q0 -14 12 -59q16 -55 16 -86q0 -25 -10 -46.5t-28 -47.5q-35 -47 -35 -84z" />
<glyph unicode="-" horiz-adv-x="749" d="M103 559q3 -37 29 -63.5t75 -24.5q70 4 186 8q117 4 158 6q45 2 71.5 32t25.5 69t-34 67q-35 27 -90 23t-141 -6q-123 -4 -193 -8q-47 -4 -68.5 -35t-18.5 -68z" />
<glyph unicode="." horiz-adv-x="399" d="M80 125q-6 -45 37 -88q39 -41 85 -37t79.5 37t38 79t-38.5 87q-39 41 -84 37t-78 -37t-39 -78z" />
<glyph unicode="/" horiz-adv-x="925" d="M150 106q-16 -49 5 -82.5t59 -46t76 2t52 61.5q154 471 467 1323q14 49 -8.5 82t-61.5 44t-75.5 -4.5t-51.5 -64.5q-350 -963 -462 -1315z" />
<glyph unicode="0" horiz-adv-x="1204" d="M88 783q-8 -128 16 -238q47 -264 195 -414q180 -183 432 -117q201 49 305 283q84 186 82 436q-2 242 -84 430q-100 229 -276 271q-16 0 -62 4q-47 4 -71 2q-45 41 -103 20q-2 0 -18 -4l-35 -12q-18 -6 -40.5 -15.5t-39.5 -19.5q-96 -61 -165.5 -164.5t-98.5 -218.5 t-37 -243zM296.5 848q16.5 131 69 234.5t134.5 154.5q2 0 4 2q20 -8 41 -8q49 0 89 5t79 -3q76 -16 135 -152q63 -147 65 -348q2 -205 -63 -352q-64 -143 -168 -170q-139 -35 -238 65q-102 102 -139 304q-25 137 -8.5 268z" />
<glyph unicode="1" horiz-adv-x="792" d="M47 1050q6 -40 37 -67t82 -16q127 23 196 65q35 18 64 45q10 -436 -6 -962q-2 -53 26.5 -79t68.5 -27t72 23.5t34 73.5q2 76 4 164t3 170t1 148v170t-1 182t-1 160q0 150 -2 172q-2 53 -11 86q-8 31 -22 51q-29 49 -86 53q-104 6 -146 -114q-2 -6 -7 -23.5t-5 -21.5v-3 q-47 -68 -90 -92q-39 -25 -129 -41q-49 -8 -68.5 -42.5t-13.5 -74.5z" />
<glyph unicode="2" horiz-adv-x="1208" d="M104 182q10 -66 58.5 -107.5t99.5 -62.5q18 -6 35 -6h14q10 -2 31 0q31 0 84 2q18 0 47 1t54.5 2t31.5 1q217 4 520 -16q49 -2 77 27.5t31 69.5t-20.5 73t-74.5 35q-309 20 -537 16q-6 0 -31.5 -1t-55.5 -2t-48 -1q-53 -2 -82 -2h-14q-8 2 -13 6q0 4 2 6q18 31 62 76 q49 49 239 213q184 160 263 248q139 160 143 291q2 125 -47 215t-134 140t-192 54q-96 2 -190.5 -33.5t-169 -105.5t-113.5 -170q-14 -35 -18 -86q-2 -8 -3 -25.5t-3 -27.5q-4 -51 23.5 -81t66.5 -35t72.5 16.5t41.5 70.5q0 2 4 66q2 20 4 28q35 84 114 132t165 46 q80 -4 128 -52t46 -148q-2 -55 -92 -160q-74 -82 -244 -229q-201 -174 -250 -224q-61 -63 -90 -112q-47 -78 -35 -148z" />
<glyph unicode="3" horiz-adv-x="1259" d="M125 369q47 -131 55 -148q43 -82 137 -143q97 -66 230 -76q135 -14 250 25q129 37 226 129t118 231q23 137 -33.5 233.5t-151.5 155.5l-12 8l2 2q188 168 123 379q-41 127 -136 202t-214 91q-111 16 -223.5 -16.5t-198.5 -108.5q-39 -31 -67.5 -69.5t-43.5 -69.5 q-8 -14 -23.5 -50t-19.5 -46q-23 -47 -5 -84t55.5 -54.5t75.5 -7t59 57.5q20 37 27 60.5t26 51.5q8 16 20 27q10 8 27 25q53 45 124 65.5t138 9.5q141 -18 182 -151q25 -76 -61 -152q-29 -27 -86 -65l-41 -27q-14 -10 -25 -23q-33 -39 -28 -86q4 -43 35 -69q10 -10 20 -14 q6 -4 12 -7q4 -2 9 -2q2 -2 6 -2l10 -2q16 -4 33 -10q53 -16 94 -41q106 -68 90 -178q-10 -66 -63.5 -116t-139.5 -77t-170 -17.5t-139 44.5q-49 33 -68 68q-2 2 -43 116q-16 51 -54 64.5t-75.5 -2t-58 -50t-4.5 -81.5z" />
<glyph unicode="4" horiz-adv-x="1249" d="M74 526q0 -74 55 -109.5t141 -31.5q127 4 277 4l153 2q-4 -184 -4 -299q0 -49 31 -75.5t74 -26.5q41 0 70.5 25.5t29.5 72.5q0 160 6 303q143 0 205 -2q49 0 77 32t28 75q0 41 -27 69.5t-74 28.5q-59 2 -205 2q10 270 -18 731q-4 78 -39 113t-82 35q-45 0 -77.5 -24 t-61.5 -79q-27 -51 -75 -128t-106.5 -164t-114.5 -168t-102.5 -141t-68.5 -83q-51 -51 -71.5 -88t-20.5 -74zM354 592q201 262 346 510q4 -37 6.5 -99.5t2.5 -136v-145.5t-2 -125z" />
<glyph unicode="5" horiz-adv-x="1173" d="M141 842q-45 -115 43 -174q37 -25 86 -21q20 2 49 10q33 10 84 35l76 37l31 14q96 27 184 -12t135 -127t33 -194q-6 -57 -54 -108.5t-122 -80.5q-76 -27 -144.5 -18.5t-113.5 49.5q-16 14 -37 55l-22 47q-14 33 -29 56q-25 45 -64.5 51t-74.5 -14.5t-49.5 -58.5t12.5 -81 q8 -14 20 -39l23 -51q37 -74 82 -117q63 -59 148 -84.5t165 -19.5t156 35q119 43 206 136t103 214q16 127 -26 247t-126 199q-86 80 -205.5 117t-256.5 -4q-16 -4 -64 -27l-18 -10q18 158 22 350q125 2 547 2q51 0 76.5 31t25.5 72t-25.5 71.5t-76.5 30.5q-475 0 -633 -4 q-59 -2 -88 -53q-29 -31 -29 -72q0 -225 -30 -446v-2l-8 -17q-9 -16 -11 -24z" />
<glyph unicode="6" horiz-adv-x="1251" d="M106.5 784.5q-12.5 -139.5 10.5 -274.5t99.5 -254.5t199.5 -187.5q135 -76 264 -71t231 64q102 57 170 156q68 98 81.5 213t-42.5 229q-57 115 -188 191q-45 29 -109.5 49.5t-131 27.5t-120.5 -5q-133 -33 -262 -150q10 104 47 201q78 205 219 268q150 63 340 -82 q39 -31 79 -20.5t64.5 42t22.5 72.5t-43 72q-283 217 -544 107q-111 -51 -195 -152.5t-133 -232.5q-47 -123 -59.5 -262.5zM330 502l119 119q39 35 78.5 60.5t93.5 37.5q23 6 61.5 0t79.5 -19.5t67 -27.5q109 -63 125.5 -155.5t-41.5 -182.5q-41 -57 -101 -91t-138 -36 q-76 -2 -160 43q-135 72 -184 252z" />
<glyph unicode="7" horiz-adv-x="1005" d="M63.5 1351q2.5 -42 28 -73t76.5 -29q86 4 356 4q139 0 224 -4h2l-39 -51q-25 -53 -27 -57l-70 -105q-35 -51 -69 -110l-62 -107q-27 -45 -61 -114l-55 -113q-18 -35 -56 -117l-51 -108l-51 -119q-39 -90 -49 -111q-20 -47 -4 -84t53 -55t76 -8t59 57q8 18 49 111l53 121 l50 106l53 115l53 102q35 70 55 111l58 98q35 57 66.5 105.5t66.5 95.5l10 16l25 29q10 14 22 39q16 20 27 39q35 78 43 129q18 92 -39 153q-27 27 -62 35q-14 2 -34 4q-29 4 -84 6q-96 4 -232 4q-276 0 -368 -4q-49 -2 -72 -35.5t-20.5 -75.5z" />
<glyph unicode="8" horiz-adv-x="1193" d="M123 940q49 -92 176 -154q18 -8 43 -16q-20 -12 -37 -25q-121 -90 -165 -210.5t-5 -241.5q37 -115 139.5 -194t241.5 -99q129 -20 257 9.5t214 105.5q100 92 111.5 220t-78.5 275q-47 74 -121 133q55 35 92 82q59 72 75.5 172.5t-5.5 184.5q-25 96 -86.5 172t-155.5 108 q-47 14 -108 8l-37 -2q-16 -2 -25 -2q-10 0 -22 -2q-315 18 -459 -200q-121 -184 -45 -324zM303 1034q-18 35 37 119q39 61 107.5 86t146.5 23q76 -4 188 -27q12 -2 25 -2q39 -37 53 -100q27 -111 -29 -181q-40 -51 -165 -82q-35 14 -86 31q-156 53 -193 72q-68 31 -84 61z M330 356q-16 53 5 112.5t93 113.5q35 25 99.5 43t119.5 30q143 -63 201 -155q94 -150 2 -232q-47 -41 -129 -60t-176 -7q-86 14 -141.5 57t-73.5 98z" />
<glyph unicode="9" horiz-adv-x="1183" d="M59 995q-2 -135 59.5 -244.5t176.5 -168t266 -39.5q152 23 262 131q-8 -229 -28 -568q-2 -51 26.5 -78.5t68.5 -30.5t72.5 19.5t36.5 73.5q49 702 21 1186q-2 43 -34 70.5t-75 25.5q-20 -2 -37 -10l-32 22q-33 20 -54 31q-57 29 -147 37q-135 12 -247.5 -21.5 t-182.5 -99.5q-147 -139 -152 -336zM264 989q4 80 51 150.5t144 97.5q72 18 166 10q49 -4 71 -14l33 -21l59 -38q4 -2 7 -5q-18 -176 -39 -227q-31 -82 -89.5 -133t-134.5 -61q-84 -12 -144 17.5t-93 88.5t-31 135z" />
<glyph unicode=":" horiz-adv-x="413" d="M80 965q-6 -45 37 -88q39 -41 85 -37t79.5 37t38 79t-38.5 87q-39 41 -84 37t-78 -37t-39 -78zM84 125q-6 -45 37 -88q39 -41 85 -37t79.5 37t38 79t-38.5 87q-39 41 -84 37t-78 -37t-39 -78z" />
<glyph unicode=";" horiz-adv-x="421" d="M47 -211q-16 -43 4.5 -73.5t58 -43t76 -1t54.5 54.5q25 57 51 118q20 49 26 72q4 31 0 80q-14 100 -14 113q-4 41 -38 60t-74.5 18t-68.5 -25.5t-24 -71.5q2 -12 15 -117q4 -20 2 -24q0 -4 -15 -35q-31 -68 -53 -125zM80 965q-6 -45 37 -88q39 -41 85 -37t79.5 36.5 t38 78.5t-38.5 87q-39 41 -84 37t-78 -36.5t-39 -77.5z" />
<glyph unicode="&#x3c;" d="M133 643q-33 -86 25 -164q31 -43 94 -76q37 -20 86 -41l33 -10l10 -4q414 -182 649 -323q37 -23 78 -13q45 14 64.5 49t11.5 75t-47 65q-248 147 -674 336q-8 2 -25 8l-28 10l-4 2l112 39q301 111 666 285q47 23 56 60.5t-9.5 74.5t-55 54t-81.5 -5q-336 -164 -645 -277 l-134 -47h-10h-6h-8q-10 -2 -25 -4q-102 -14 -133 -94z" />
<glyph unicode="=" d="M103 721q1 -41 28 -72t76 -31q602 12 950 13q51 0 77 30.5t26 71.5t-26 72t-77 31q-352 0 -954 -13q-51 0 -76 -30.5t-24 -71.5zM106.5 312q-2.5 -40 20.5 -72.5t72 -36.5q184 -12 479 -13q365 0 469 -4q51 -2 77.5 28t27.5 70t-23.5 72.5t-73.5 34.5q-111 4 -477 4 q-289 0 -463 13q-51 2 -78.5 -27t-30 -69z" />
<glyph unicode="&#x3e;" d="M59.5 962.5q-10.5 -38.5 6 -75.5t65.5 -49q279 -74 789 -281q18 -8 38 -18h-4q-156 -47 -411 -150q-322 -129 -396 -153q-49 -14 -62 -51.5t-1 -76t47 -60t82 -5.5q125 43 405 156q246 98 394 143q115 35 131 39q53 20 86 41q78 49 78 123q0 72 -62 110q-27 16 -69 25 q-16 4 -27 6h-16h-7q-2 0 -4 2q-16 6 -57 27q-41 20 -68 30q-522 213 -813 289q-49 14 -81.5 -9.5t-43 -62z" />
<glyph unicode="?" horiz-adv-x="1038" d="M41 1090q0 -2 6 -31q2 -12 2 -21q4 -49 37 -71.5t73 -20.5t68.5 30t26.5 79q-2 16 -6 39v4v4l-4 8v6v4l-2 15q16 57 66 91t118 44t134.5 -1.5t117.5 -46t67 -92.5q20 -68 -69 -165l-64 -64q-43 -41 -49 -45q-76 -76 -108 -133q-45 -80 -58 -141q-4 -23 -8 -62 q-4 -53 -6 -65q-4 -49 23.5 -78t68.5 -34t75 17.5t38 73.5q0 12 6 70q2 27 4 39q6 29 33 78q20 35 76 90q12 12 36 34l45 41q20 20 35 39q174 184 119 367q-31 94 -105.5 161.5t-162.5 96.5t-182 29q-94 2 -182.5 -26t-162.5 -95q-76 -70 -102 -170q-12 -43 -4 -98zM391 116 q-4 -40 33 -75q35 -37 75 -33t68.5 34t32.5 68.5t-33 73.5q-35 37 -73.5 33t-68.5 -32.5t-34 -68.5z" />
<glyph unicode="@" horiz-adv-x="1888" d="M114.5 951.5q-22.5 -152.5 12.5 -285.5q35 -135 117 -254q80 -117 196.5 -204t255.5 -138.5t291 -57.5q63 -2 132 6.5t130.5 23.5t102.5 30q61 23 168 65q23 8 34 15q47 18 59.5 56t-4 76t-51 57t-81.5 -1l-174 -70q-51 -18 -140 -37q-90 -20 -168 -16q-180 8 -333 92 q-156 84 -250 219q-59 88 -85 185.5t-10 210.5q16 111 82 219q72 117 191 187.5t263 89t290 -18.5q145 -37 249.5 -118t151.5 -198.5t25 -263.5q-10 -53 -50 -102t-96 -74q-106 -47 -157 27q-4 39 -2 39q0 47 8 123q4 37 16 120l2 17q16 8 29 18q31 29 33 72t-27 74 q-6 6 -14 16l-19 25q-35 43 -71 63q-90 51 -184.5 45t-182.5 -52t-156 -112q-72 -68 -120 -153.5t-61 -178t22 -176.5q41 -102 112.5 -157.5t163.5 -53.5q150 2 283 148l2 2q51 -70 123.5 -101.5t144.5 -25.5q70 4 137 35q100 43 174 132t90 197q27 160 -10 300.5 t-121 240.5q-172 203 -446 270q-102 25 -211 29t-217 -16q-111 -23 -209 -66q-98 -45 -185 -121.5t-147 -175.5q-86 -145 -108.5 -297.5zM727 690q-20 51 9.5 131t105.5 152q63 63 128.5 87.5t116.5 14.5q-2 -4 -4 -6q-14 -29 -16 -72q-2 -20 -2 -34v-25q-35 -131 -41 -143 q-16 -41 -78 -107q-74 -82 -135 -82q-47 0 -84 84z" />
<glyph unicode="A" horiz-adv-x="1251" d="M30 56q19 -36 58 -51q22 -9 45 -9l33 5q39 11 57 60q41 113 133 383q158 0 435 11q10 0 94 4l153 -398q20 -47 58 -58q16 -5 32 -5l46 10q38 16 56 50q9 18 10 40q0 21 -9 45l-510 1260q-16 41 -57 55q-14 12 -33 19q-17 6 -34 6q-23 1 -45 -11q-38 -20 -52 -61 q-53 -154 -150 -399q-102 -250 -117 -291q-29 -72 -94 -277q-68 -205 -108 -305q-10 -24 -10 -45q0 -20 9 -38zM432 653l182 459l187 -450q-197 -7 -369 -9z" />
<glyph unicode="B" horiz-adv-x="1402" d="M184 113v-5q0 -40 27 -69q29 -31 72 -33q18 -2 67 -4t103.5 -4t89.5 -4q26 -1 61 -1t80 1q88 2 152.5 12t140.5 33t137 55q86 51 140.5 130t69.5 169q5 30 5 60q1 59 -19 118q-30 88 -112 156q-29 25 -68 43q63 80 84 182q8 41 9 83q0 61 -19 120q-33 100 -114 170 q-125 106 -375 127q-60 6 -142 6q-95 0 -219 -8q-12 0 -22 -4q-29 14 -62 8q-40 -6 -66 -40q-19 -26 -20 -57q0 -10 2 -20q8 -59 12.5 -134t6.5 -120q0 -66 -1 -144.5t-1 -137.5q0 -109 2 -318q2 -211 2 -311q-20 -27 -23 -59zM401 1247q102 6 182 6q64 0 113 -4 q186 -16 262 -80q46 -39 56 -99q3 -19 3 -38q1 -42 -15 -82q-22 -60 -76 -90q-35 -23 -95 -33h-12q-45 3 -116 3q-36 0 -78 -1q-77 -2 -97 -2q-35 4 -114 15h-6v104q0 218 -7 301zM408 635l24 -2q16 -6 33 -8q20 0 49 -2q121 -8 182 -11q80 0 146 11q176 -10 225 -52 q47 -39 54 -95q1 -11 1 -23q0 -45 -22 -89q-28 -56 -88 -90q-74 -43 -178 -61q-85 -15 -167 -15q-18 0 -36 1q-102 2 -219 6q0 84 -2 237q-2 154 -2 193z" />
<glyph unicode="C" horiz-adv-x="1456" d="M92 721q0 -115 41 -239t115 -228q72 -104 162 -162q80 -51 188 -79.5t221 -28.5q39 0 58 2q147 12 261.5 71.5t178.5 169.5q18 39 53 146l14 43q6 18 7 37q0 45 -33 73.5t-74 28.5q-29 0 -54.5 -18.5t-37.5 -51.5l-21 -65q-20 -70 -34 -94q-76 -137 -324 -138 q-82 0 -160 20.5t-133 55.5q-59 39 -110.5 116t-82 167t-30.5 174q0 233 186 414q127 121 314 137q12 1 25 1l151 -32q39 -16 78 -46t67 -60l76 -93q32 -38 74 -38h2q43 0 75.5 30.5t32.5 71.5q0 33 -24 63l-62 76q-63 72 -116.5 116t-128.5 73q-117 45 -234 45 q-135 0 -268 -56q-113 -49 -203 -139q-119 -119 -184.5 -264.5t-65.5 -298.5z" />
<glyph unicode="D" horiz-adv-x="1492" d="M184 111q0 -35 19.5 -63t52.5 -38q26 -16 57 -14q49 2 187 2q127 0 205 6q262 20 415 143q129 102 203 263q72 162 78 335q0 15 1 30q0 164 -62 313q-66 163 -210 268q-68 49 -154.5 79.5t-158.5 45.5q-72 12 -172 12q-68 0 -112 -1t-87 -4t-106 -9q-20 -2 -39 -13h-8h-5 q-38 0 -68 -26q-32 -28 -34 -72q-3 -48 -3 -113q0 -86 5 -202q7 -184 7 -279v-22q-10 -575 -11 -641zM389 1276q123 10 223 13h23q90 0 184 -21q104 -25 180 -80q94 -68 144 -184q42 -102 42 -220q0 -15 -1 -30q-4 -135 -58.5 -255t-144.5 -192q-106 -84 -293 -98 q-68 -6 -188 -6h-109q0 43 1 109.5t2 137t3 128.5q2 109 2 170v41q0 93 -6 272q-5 117 -5 179q0 21 1 36z" />
<glyph unicode="E" horiz-adv-x="1349" d="M184 168q0 -27 13 -51q0 -41 29.5 -72t70.5 -31q424 -7 686 -7q105 0 184 1q51 0 76 31q24 30 24 69q0 42 -28 74q-27 30 -76 31q-91 -1 -207 -1q-232 0 -565 5q2 125 2 416q53 4 137 5t173.5 1t162.5 -2q143 -2 215 -2q51 0 77 30.5t26 71.5t-25.5 72t-77.5 31 q-57 0 -138 1t-169 2t-164 1q-115 0 -215 -6v84q0 49 -2 178q-2 51 -2 86q0 52 4 69q70 0 176.5 2.5t220 2.5t212 1t153.5 1q51 0 77 30.5t26 71.5t-26 71.5t-77 30.5h-116.5t-171 -1t-195 -2t-186.5 -2t-148 -3q-39 -2 -66 -26q-29 -8 -49 -31t-24 -51q-9 -61 -11 -137 q-1 -46 -1 -91v-61q1 -76 1 -135q-2 -94 -2 -357q0 -262 -4 -401z" />
<glyph unicode="F" horiz-adv-x="1220" d="M184 1319q10 -129 14.5 -251t5.5 -266v-101q0 -106 -1 -234q-4 -289 -4 -369q0 -51 30.5 -76.5t71.5 -25.5t71.5 25.5t30.5 76.5q0 98 3 283q2 182 2 250q137 0 612 6q48 1 74 31q25 29 25 68q-1 43 -27 75q-26 31 -76 31q-473 -6 -608 -6q-2 231 -15 424q193 3 351 3 q217 0 366 -6h6q46 0 72 28q28 32 28 75q0 38 -23 68q-24 32 -75 34q-132 5 -340 5t-493 -5q-43 0 -72 -30.5t-29 -73.5q0 -6 2 -15q-2 -12 -2 -24z" />
<glyph unicode="G" horiz-adv-x="1536" d="M100 638q19 -151 101 -288q55 -92 148 -169t205 -126t230 -63q34 -3 68 -3q81 0 156 23q145 43 248.5 147.5t151.5 244.5q33 95 33 194q0 46 -7 92v15q0 43 -31 73.5t-74 30.5q-236 0 -495 -12q-51 -2 -75 -35q-22 -30 -22 -69v-6q2 -42 29 -71q25 -28 70 -28h6 q209 10 389 12v-9q0 -83 -34 -158q-36 -79 -100.5 -137t-148.5 -85q-45 -13 -95 -13q-28 0 -57 4q-81 11 -162 46t-147.5 89t-107.5 122q-76 129 -76 264t62 238q61 119 170 202q80 61 163 88q60 17 125 17q29 0 59 -4q97 -11 199 -80q100 -72 189 -199q29 -41 70 -44h9 q35 0 65 19q34 23 44 62q3 10 3 21q0 29 -21 59q-113 164 -251 257t-274 111q-45 6 -90 6q-90 0 -177 -24q-130 -37 -242 -123q-102 -82 -178 -198.5t-111 -227.5q-24 -74 -24 -165q0 -47 7 -100z" />
<glyph unicode="H" horiz-adv-x="1497" d="M188 1368q-4 -108 -4 -249q0 -177 6 -408q8 -322 8 -508q0 -56 -1 -99q0 -49 30.5 -75.5t71.5 -27.5h3q38 -1 68 23t31 76q1 63 2 144q0 162 -6 393q431 14 654 14h53q6 -477 6 -549q0 -51 30.5 -76.5t71.5 -25.5t72 25.5t31 76.5q0 133 -4 387q-6 252 -6 455 q2 168 12 408v6q1 46 -27 72q-30 26 -70 29h-9q-35 -1 -64 -21q-33 -24 -35 -74q-10 -196 -10 -429v-79h-53q-226 0 -656 -14q-3 150 -3 279t3 239v6q1 46 -27 72q-30 26 -70 27h-3q-38 1 -70 -23q-33 -24 -35 -74z" />
<glyph unicode="I" horiz-adv-x="634" d="M100 24q25 -28 72 -28h6q125 4 283 4q51 0 76.5 30.5t25.5 71.5t-25.5 72t-76.5 31h-41q0 633 -4 1052h16q51 0 77 31t27 72v3q0 39 -25 69q-26 30 -75 30q-150 2 -254 4q-49 0 -75.5 -30.5t-27.5 -71.5v-3q-1 -39 23 -69t76 -30h33q4 -422 4 -1059l-45 -2 q-50 -2 -74 -35q-24 -32 -23 -70q-1 -41 27 -72z" />
<glyph unicode="J" horiz-adv-x="1105" d="M23 371l6 -25l14 -56t14 -57.5t9 -29.5q53 -117 162 -165q84 -37 174 -37q26 0 53 3q113 14 209 80t139 172q76 195 76 592q0 186 -17 416l129 -4h6q47 0 72 28q28 30 28 72q0 38 -23 70q-25 32 -75 34q-131 4 -241 4h-13q-147 -2 -282 -10q-49 -4 -71 -36 q-21 -30 -21 -67v-6q2 -40 29 -69q26 -27 73 -27h6q86 6 178 9q8 -139 13.5 -246t5.5 -203t-10 -209q-14 -170 -56 -274q-20 -53 -68 -85t-108 -38q-13 -1 -26 -1q-44 0 -84 16q-50 20 -74 67q-6 16 -13.5 54t-13.5 73q-12 51 -48 68q-23 12 -48 12q-13 0 -27 -4 q-39 -9 -64 -40q-16 -22 -16 -52q0 -14 3 -29z" />
<glyph unicode="K" horiz-adv-x="1320" d="M184 1364v-43q0 -91 6 -223q8 -168 9 -221q2 -86 2 -240t2 -301q2 -119 8 -242q2 -50 35 -74q29 -21 64 -21h8q40 3 70 29q28 25 28 72v6q-8 176 -10 416l212 176l521 -661q31 -39 71.5 -39t72.5 24.5t40 63.5q2 8 2 15q0 31 -27 63l-526 670q223 203 453 456 q30 31 30 65q1 6 -1 12q-6 40 -36 67.5t-70 29.5h-4q-38 0 -71 -34q-346 -377 -667 -646q-2 51 -3 97q0 53 -8 217q-6 131 -6 220v42q0 49 -30.5 75.5t-71.5 27.5h-3q-39 1 -69 -23q-31 -24 -31 -76z" />
<glyph unicode="L" horiz-adv-x="1177" d="M184 1374q0 -274 9 -708q8 -432 10 -551q0 -8 2 -19q2 -41 30.5 -68.5t67.5 -29.5q68 -4 191 -4q82 0 188 2q202 4 316 4h65q49 0 75 30q28 32 28 75q0 39 -24 69q-24 31 -75 31q-38 1 -88 1q-100 0 -246 -3q-147 -3 -244 -3q-48 0 -83 1q0 94 -2.5 229t-6.5 279.5 t-4 267.5q-4 190 -4 397q0 51 -30.5 77t-71.5 26t-72 -26t-31 -77z" />
<glyph unicode="M" horiz-adv-x="1767" d="M184 1352q25 -233 25 -617q0 -100 -2 -311q-4 -211 -4 -320q0 -51 30.5 -76.5t71.5 -25.5t72 25.5t31 76.5q0 109 4 320q2 211 2 309q0 199 -6 352l133 -159q205 -246 290 -367q12 -16 31 -29q2 0 4 -2q26 -17 55 -17q11 1 22 3q42 8 65 45q207 319 364 524q0 -61 2 -489 v-157q0 -284 -6 -333v-6q0 -46 28 -72q30 -26 69 -27h3q38 1 70 23q33 24 35 74q6 166 6 470v161q-1 141 -1 258q0 235 5 379v6q1 42 -27 68q-30 28 -71 32q-5 1 -10 1q-35 0 -66 -29q-8 -6 -16 -15q-203 -219 -478 -636q-88 115 -217 268l-305 362q-31 37 -78 39 q-18 6 -39 4q-44 -4 -70 -36q-23 -28 -23 -65q0 -5 1 -11z" />
<glyph unicode="N" horiz-adv-x="1540" d="M188 1323q-4 -104 -4 -247q0 -179 6 -419q10 -434 11 -557q0 -51 30.5 -76.5t71.5 -25.5t72 25.5t31 76.5q0 158 -9 490q-8 277 -9 442q0 33 1 62q180 -238 320 -453l94 -147l102 -162q39 -61 99.5 -146.5t115.5 -152.5q32 -37 78 -37q10 0 21 2q12 -4 26 -4 q41 0 72 29.5t31 70.5q7 724 7 1062q0 135 -1 208q0 52 -31 76q-30 24 -69 23h-3q-41 -1 -71.5 -27.5t-30.5 -75.5q2 -126 2 -301q0 -291 -6 -717l-84 125l-96 151l-84 134q-201 311 -492 673q-27 33 -70 37q-7 1 -13 1q-35 0 -62 -19q-31 -29 -41 -58q-12 -33 -15 -63z" />
<glyph unicode="O" horiz-adv-x="1560" d="M95 631q7 -90 28 -174q18 -86 65 -164q45 -78 106.5 -139.5t149.5 -102.5q89 -43 195 -57q52 -7 104 -7q91 1 179 23q138 36 245 119q106 82 172 198.5t99 243.5q30 121 30 247v12q-2 132 -43 251q-41 117 -134 214.5t-234 144.5q-61 20 -162 33q-40 5 -77 5 q-12 0 -25 -1q-109 -4 -217.5 -33t-188.5 -90q-82 -63 -143 -152q-61 -90 -97 -190.5t-49 -206.5q-6 -49 -6 -101q0 -36 3 -73zM305 782q14 139 76.5 245t146.5 167t162 72q50 6 86 6h17q37 -2 67 -2q39 0 66.5 -6.5t74.5 -24.5q98 -39 168 -132t86 -216q6 -43 6 -89 q0 -85 -20 -175q-51 -229 -217 -344q-126 -88 -267 -88q-43 0 -87 8q-135 27 -226 102q-92 78 -124 205q-21 84 -21 176q1 47 6 96z" />
<glyph unicode="P" horiz-adv-x="1288" d="M186 700q15 -584 15 -604q0 -51 30.5 -76.5t71.5 -25.5t72 25.5t31 76.5q0 104 -11 498q103 -12 199 -12q142 0 266 26q57 10 124 35t124 66t94 100q37 61 46 140q2 15 2 32q0 71 -31 172q-100 260 -439 307q-69 10 -143 9q-135 0 -289 -31q-18 10 -39 12h-6 q-39 0 -69 -24q-32 -26 -35 -70q-15 -187 -15 -457q0 -94 2 -199zM391 797q-1 75 -1 143q0 170 7 299q131 25 242 25q60 0 115 -7q217 -31 272 -178q19 -64 19 -94q0 -7 -1 -12q-14 -121 -225 -164q-103 -21 -221 -22q-86 0 -180 12q-15 0 -27 -2z" />
<glyph unicode="Q" horiz-adv-x="1593" d="M94 647q8 -117 56.5 -228.5t133.5 -202.5t203 -146q168 -80 323 -80q103 0 200 35q51 18 94 38q158 -106 336 -165q17 -6 34 -6q22 0 42 11q36 19 50 56q7 17 7 33q0 21 -10 43q-18 37 -58 51q-109 39 -207 94q12 12 25 21q98 98 133 220t37 267v12q0 171 -57 329 q-58 163 -168 276q-100 104 -236 147q-78 25 -164 25q-62 0 -127 -13q-27 19 -57 19q-19 0 -39 -8q-2 0 -19.5 -7.5t-37 -15.5t-25.5 -12l-45 -17q-33 -14 -49 -24l-43 -27q-27 -14 -47 -31q-23 -18 -43 -34q-86 -84 -142.5 -193.5t-81.5 -229.5q-20 -91 -20 -181 q0 -28 2 -56zM305 846q37 184 172 315q45 43 137 84q20 -9 40 -9q18 0 36 7q92 33 173 33q149 0 261 -113q80 -82 124 -205q42 -119 42 -254v-12q-2 -121 -25.5 -203.5t-82.5 -142.5q-25 -25 -60 -45q-74 57 -151 133q-31 31 -67 31h-8q-40 -4 -68.5 -34t-31.5 -69v-5 q0 -35 33 -64q46 -47 89 -88q-51 -14 -105 -14q-110 0 -235 59q-109 51 -178.5 145t-93.5 211q-13 59 -13 120q0 59 12 120z" />
<glyph unicode="R" horiz-adv-x="1456" d="M184 1311q0 -201 6 -602q4 -403 5 -605q0 -51 30.5 -76.5t71.5 -25.5t71.5 25.5t30.5 76.5q0 188 -4 488q12 -2 28 -2q24 0 58 4q27 2 88 8q59 6 80 6q20 2 41 2q150 -8 222.5 -39.5t111.5 -87.5q20 -31 38.5 -77t29.5 -87l36 -102l41 -147q14 -48 51 -64q21 -9 42 -9 q17 0 34 5q40 12 62 45q14 20 13 46q0 16 -5 34q-20 68 -47 158t-58.5 175t-68.5 140q-39 57 -92 98q250 111 258 334v20q0 70 -24 128q-28 66 -74 112q-47 43 -113 78q-68 33 -128.5 50.5t-129.5 27.5q-169 22 -302 22h-36q-145 -4 -262 -22q-31 -4 -53.5 -24.5 t-28.5 -49.5q-23 -29 -23 -63zM389 1255q112 12 215 12q134 0 252 -20q297 -50 297 -201v-6q-4 -109 -170 -168q-115 -43 -293 -55h-20q-14 1 -47 1t-84 -1q-53 0 -86 -2q-20 0 -35 -2l-25 -4q-4 274 -4 446z" />
<glyph unicode="S" horiz-adv-x="1239" d="M84 418q0 -127 66.5 -226.5t183.5 -154.5q117 -57 262 -57q143 0 269 54t204 154t78 232q0 141 -97.5 230t-261.5 145q-123 41 -196.5 70.5t-138.5 64.5q-70 40 -103 76q-31 34 -31 80v6q4 92 78 144t226 52q88 0 162.5 -29.5t119.5 -76.5q43 -49 43 -101q0 -49 29 -78.5 t70 -29.5q43 0 72.5 29.5t29.5 82.5q0 104 -65.5 196.5t-184.5 148.5q-119 55 -270 55q-145 0 -263 -58.5t-184 -152.5q-65 -93 -65 -194q0 -230 252 -355q88 -43 290 -111l64 -22q102 -33 161.5 -75t59.5 -103q0 -102 -86 -168t-235 -66q-311 0 -340 264q-6 41 -33 61.5 t-60 20.5q-43 0 -74.5 -29.5t-31.5 -78.5z" />
<glyph unicode="T" horiz-adv-x="1230" d="M54 1283q25 -28 71 -28h6q132 5 315 5h62q-12 -178 -12 -484v-90q3 -339 3 -484q0 -72 -1 -96q0 -49 30.5 -75.5t71.5 -27.5h3q39 -1 69 23t30 76q1 25 1 99q0 147 -3 487v85q0 311 13 484q248 0 393 3q52 0 76 30q24 29 23 69v3q-1 41 -27.5 71.5t-75.5 30.5 q-88 -1 -210.5 -1t-279.5 1h-148q-209 0 -341 -4q-49 -2 -73 -34q-24 -31 -24 -70q0 -42 28 -73z" />
<glyph unicode="U" horiz-adv-x="1499" d="M156 807q-2 -59 -2 -112q0 -107 8 -193q21 -174 80 -262q86 -128 221 -188q119 -53 240 -53q16 0 32 1q137 8 267.5 75.5t207.5 184.5q141 215 150 557v39q0 103 -8 250q-10 213 -13 262q-1 52 -31 76q-29 24 -68 23h-3q-41 -1 -71.5 -27.5t-30.5 -75.5q2 -53 14 -270 q6 -134 6 -227v-44q-6 -285 -117 -448q-45 -70 -115.5 -113t-153.5 -54q-28 -4 -55 -4q-55 0 -110 15q-123 33 -194 135q-31 45 -43 170q-8 80 -8 185q0 44 1 92q4 115 19 311q12 197 14 252q0 49 -30.5 75.5t-71.5 27.5h-3q-39 1 -69 -23q-31 -24 -31 -76q-2 -57 -14 -252 q-14 -195 -18 -309z" />
<glyph unicode="V" horiz-adv-x="1265" d="M45 1333l141 -407l172 -439l78 -204q97 -256 154 -279q20 -8 39 -8l39 8q39 16 55 55q76 180 248 629q154 414 252 637q10 24 10 46q-1 20 -9 36q-18 35 -54 51q-22 10 -44 10q-15 0 -31 -4q-38 -12 -61 -57q-102 -236 -256 -647l-151 -393q-82 195 -215 546l-174 494 q-20 47 -58 59q-18 6 -36 6q-20 0 -40 -8q-36 -14 -56 -49q-11 -19 -10 -42q0 -19 7 -40z" />
<glyph unicode="W" horiz-adv-x="1865" d="M53 1343q186 -649 316 -1237q4 -14 10 -26q13 -62 72 -78q15 -4 30 -4q25 0 47 12q36 20 50 62q33 111 77 247l74 224l90 256l76 274q141 -442 324 -987q8 -20 22 -37q20 -33 57 -45q15 -4 30 -4q25 0 49 12q38 20 50 60l385 1280q5 18 5 34q0 26 -13 46q-22 32 -61 44 q-17 6 -34 6q-21 0 -42 -8q-37 -16 -51 -65l-295 -1030q-180 561 -322 995q0 33 -19 59.5t-52 36.5q-16 4 -29 5q-12 0 -18 -5q-70 -23 -74 -94q-51 -162 -156 -463l-159 -483q-111 508 -242 971q-14 49 -51 65q-21 9 -43 8q-16 0 -33 -4q-39 -12 -61 -44q-14 -20 -14 -47 q0 -17 5 -36z" />
<glyph unicode="X" horiz-adv-x="1159" d="M6 84q10 -38 44 -62q30 -21 65 -21h9q40 3 69 44l391 533l12 -15q70 -82 90 -108q147 -199 268 -406q25 -45 65 -51q9 -1 18 -1q31 -1 57 15q34 20 48 59q5 13 6 27q0 26 -18 54q-123 211 -280 426q-31 41 -100 120l-41 50l401 548q24 31 24 62q0 9 -2 18q-10 38 -42 62 q-30 22 -68 22h-6q-41 -2 -70 -41l-362 -495q-94 141 -310 491q-28 45 -66 50q-7 1 -14 1q-31 0 -59 -18q-35 -22 -48 -58q-5 -13 -5 -28q0 -26 16 -53q215 -352 357 -559l-430 -586q-22 -30 -22 -60q0 -10 3 -20z" />
<glyph unicode="Y" horiz-adv-x="1196" d="M14 1401q-6 -14 -6 -29q0 -25 15 -53q63 -119 139 -246l327 -538q2 -45 5 -177q2 -207 10 -266q4 -49 38 -72q29 -19 64 -19h10q41 3 69 31q25 25 25 68q0 6 -1 13q-8 55 -11 247q-2 133 -4 179q2 4 4 10q45 94 148 242q102 145 139 202l96 166q66 115 93 156 q21 29 21 58q0 11 -3 22q-12 39 -46 61q-28 19 -61 19q-6 0 -13 -1q-40 -4 -66 -44q-43 -63 -103 -168q-80 -139 -94 -162q-29 -47 -107 -158t-116 -174q-291 477 -383 649q-25 45 -65 53q-11 2 -22 2q-28 0 -52 -14q-35 -20 -50 -57z" />
<glyph unicode="Z" horiz-adv-x="1255" d="M10 133q39 -125 193 -139q12 -1 28.5 -1t36.5 1q40 2 56 4l16 2q156 8 319 8q233 0 482 -16h6q45 0 71 28q26 30 30 69v9q0 35 -20 64q-24 33 -75 35q-255 16 -493 16q-168 0 -328 -8q-18 0 -47 -2q-29 -4 -43 -4q14 20 41 55l125 154l139 161l450 502q2 2 13 14l16 21 q33 39 53 74q35 53 49 96q10 33 10 61q0 53 -34 93q-20 23 -45 28q-6 2 -15 4q-4 2 -8 2h-458q-285 0 -443 -30q-49 -10 -67 -45q-13 -25 -14 -53q0 -11 2 -22q7 -40 38 -66q22 -18 55 -18q13 0 27 3q139 27 402 27h309l-21 -25l-18 -23l-10 -14l-144 -160l-135 -157 l-168 -181l-139 -161q-74 -86 -131 -162q-47 -59 -74 -101q-18 -29 -27 -49q-15 -33 -15 -62q0 -16 5 -32z" />
<glyph unicode="[" horiz-adv-x="768" d="M182 -162q-27 -90 29 -147q23 -23 65 -37q18 -6 52 -12q49 -10 125 -23q14 -2 26 -4l29 -4l24 -4q12 -2 33 -4t29 -2q8 -2 14 -2q4 -2 6 -2h4q47 -8 78 19.5t37 68.5t-13.5 74.5t-72.5 37.5l-4 2q-2 0 -15.5 1t-21.5 3l-20 4q-10 0 -23 3l-24 4q-12 2 -27 4l-29 4l-90 14 q4 12 4 23q2 43 2 401v569q0 8 -10 197q-6 111 2 164q8 37 15 57h98l127 17q49 8 70.5 41.5t16.5 72.5t-35 67t-81 23l-37 -6q-27 -4 -47 -6t-39 -4q-8 -2 -31.5 -1t-31.5 1q-78 0 -129 -35q-72 -51 -97 -190q-14 -76 -6 -213q10 -182 11 -185v-569v-73t1 -112.5t0 -117.5 t-3 -86z" />
<glyph unicode="\" horiz-adv-x="868" d="M117 1364q313 -852 467 -1323q14 -47 52 -61.5t76 -2t59.5 46t4.5 82.5q-113 352 -463 1315q-14 49 -51 64.5t-76 4.5t-61.5 -44t-7.5 -82z" />
<glyph unicode="]" horiz-adv-x="700" d="M36 -320.5q5 -39.5 35 -66.5t79 -19q12 0 34 5q23 4 39 6l35 4q6 2 22.5 1t24.5 -3q74 -2 121 37q63 51 96 184q4 23 4 72q0 31 -2 80q-2 29 -4 71.5t-2 48.5q-6 209 -6 740q0 12 2 104t2 156q0 98 -2 155q0 37 -4 60q0 16 -4 28q-6 29 -23 50q-33 41 -100 59 q-35 10 -88 14q-10 0 -129 2q-49 0 -76 -30.5t-28 -71.5t24 -71.5t76 -30.5q113 -2 119 -2q16 -2 28 -5v-8q2 -55 2 -147q0 -63 -2 -156q-2 -94 -2 -106q0 -535 6 -744q0 -8 2 -53t4 -74q2 -45 3 -71v-27q-10 -41 -17 -57q-47 2 -72 0q-2 0 -112 -19q-51 -8 -70.5 -42 t-14.5 -73.5z" />
<glyph unicode="^" horiz-adv-x="1079" d="M111.5 655q17.5 -37 53.5 -54t75 -8t61 54l262 508l43 -94q29 -66 60 -146l65 -161l43 -111q18 -47 56 -59.5t76 4t57.5 51.5t-0.5 82q-10 29 -43 110l-66 164l-61 148q-57 131 -99 198q-31 49 -57 74q-70 63 -145 31q-70 -33 -91 -127q-2 -10 -6 -29l-4 -18 q-43 -88 -135 -264l-139 -271q-23 -45 -5.5 -82z" />
<glyph unicode="_" horiz-adv-x="1265" d="M-40 -222q1 -40 28 -69.5t78 -27.5q252 6 378 6q111 0 245 -1t269.5 -3t245.5 -2q51 0 77 30.5t26 71.5t-26 71.5t-77 30.5q-94 0 -230 2t-282.5 3t-271.5 1q-193 0 -363 -6q-51 -2 -74.5 -34.5t-22.5 -72.5z" />
<glyph unicode="`" horiz-adv-x="395" d="M-1 1482q-5 -38 28 -73l33.5 -33.5l27.5 -27.5q20 -20 36.5 -39t41.5 -47l49 -58q31 -35 71 -32.5t69.5 27t37.5 61t-22 75.5l-54 66q-23 27 -38 43q-16 16 -54 55l-51 55q-37 31 -76 26t-66.5 -32.5t-32.5 -65.5z" />
<glyph unicode="a" horiz-adv-x="1159" d="M82 556q-14 -51 -14 -108q0 -61 16 -129q31 -131 137 -219q115 -101 287 -101q14 0 29 1q91 4 165 33q68 29 129 92v-31q2 -48 35 -72q32 -23 70 -23h3q39 1 69 27q28 25 28 70v6q-2 66 -3 159t-1 186.5t-4 160.5q-8 135 -35 258q-2 45 -35 74q0 2 -12 14l-26 27 q-14 12 -34 28.5t-36 24.5q-109 54 -209 54q-29 0 -58 -4q-126 -20 -231.5 -106.5t-181.5 -217.5q-59 -100 -88 -204zM352 256q-80 69 -79 172q0 104 81 242q82 137 190 187q53 24 104 24q53 0 104 -27q25 -16 43 -41q34 -163 34 -429v-15q-6 -4 -10 -9 q-45 -68 -108.5 -100.5t-100.5 -42.5q-48 -13 -95 -14q-23 0 -47 4q-70 10 -116 49z" />
<glyph unicode="b" horiz-adv-x="1153" d="M133 106v-5q1 -37 27 -67q28 -32 71 -34q33 -2 60.5 16.5t40.5 49.5q84 -49 184 -66q54 -9 103 -9q88 0 161 29q117 43 189 146q98 138 98 326q0 53 -8 110q-14 86 -64.5 192.5t-128.5 180.5q-90 83 -202 107q-35 7 -74 8q-83 0 -178 -35q-33 -12 -64 -33q0 70 -6 344 q0 52 -30 76q-29 24 -69 23h-3q-41 -1 -72 -27.5t-31 -75.5q0 -10 1 -45t1 -77t1 -79t3 -51v-55t1 -87t1 -91v-64q0 -51 1 -128t1 -136q-2 -57 -4 -140t-4 -155q-2 -55 -6 -148zM346 326q4 152 5 310q0 52 -1 105q12 12 32.5 36t29.5 34l24 20q12 14 23.5 21.5t25.5 13.5 q50 19 96 19q81 0 146 -60q104 -98 129 -250q6 -44 6 -83q0 -123 -59 -207q-64 -89 -190 -89q-30 0 -64 5q-131 23 -201 123z" />
<glyph unicode="c" horiz-adv-x="1089" d="M104 596q-10 -52 -11 -105q0 -60 13 -122q23 -121 97 -207q72 -82 183 -125q106 -41 218 -41h10q127 2 234.5 61.5t155.5 178.5q14 35 14 79v11v45v6q0 45 -28 71q-30 26 -69 30h-9q-35 0 -64 -20q-33 -24 -35 -75v-59l2 -11q-45 -109 -203 -112q-78 0 -147.5 26.5 t-106.5 69.5q-60 69 -60 186q0 113 60 226q60 111 144 153q43 21 86 20q44 0 90 -20q18 -8 47 -37l35 -34q25 -25 43 -39q31 -29 63 -29q6 0 13 1q39 7 65 39q28 33 28 73q0 38 -38 71l-66 66q-55 53 -108 78q-91 36 -173 36q-33 1 -65 -5q-110 -20 -198 -94.5t-148 -182.5 q-50 -100 -72 -209z" />
<glyph unicode="d" horiz-adv-x="1173" d="M92 555v-7q0 -241 135 -398q77 -90 187 -129q68 -24 145 -24q47 0 98 9q96 18 185 82q10 -51 36.5 -69.5t59.5 -18.5q43 0 72.5 29.5t29.5 72.5q0 330 -14 1264q0 48 -30 74q-29 25 -69 25h-3q-41 -1 -72 -26.5t-31 -76.5l4 -328q-49 27 -143 43q-57 10 -109 10 q-202 0 -337 -151q-141 -160 -144 -381zM297 555q0 143 92 244q73 84 191 84q31 0 65 -6q72 -12 94 -27q0 -2 86 -76q2 -2 4 -2q4 -154 5 -414q-10 -27 -31 -50t-39 -38q-18 -14 -61 -34.5t-82 -28.5q-31 -6 -59 -5q-63 0 -114 28q-73 40 -113 126q-38 82 -38 188v11z" />
<glyph unicode="e" horiz-adv-x="1214" d="M84 454q6 -65 33 -130q27 -66 86 -144t171.5 -129t264.5 -61h26q95 0 157 13q72 15 120 36q35 12 68 31q43 26 55 64q6 18 6 36q0 20 -7 39q-13 37 -47 55q-17 9 -38 8q-20 0 -43 -8q-39 -23 -65.5 -36t-86.5 -29q-42 -10 -102 -9h-31q-289 20 -344 234h6q0 6 369 8 l350 6q31 0 58 11q63 36 63 111v11q-2 33 -13.5 72t-19.5 70q-10 29 -20 61q-12 33 -64 98q-59 78 -143 128.5t-203 64.5q-37 4 -72 4q-79 1 -150 -21q-103 -32 -182 -96.5t-129.5 -150.5t-66.5 -180q-8 -68 -8 -120q0 -25 2 -47zM311 625q35 113 131 183q78 57 176 57 q24 0 48 -3q121 -14 202 -108q41 -55 60 -117q-498 -6 -617 -12z" />
<glyph unicode="f" horiz-adv-x="632" d="M16 961q0 -45 28 -75t79 -30h16l2 -154q4 -346 37 -614q4 -43 30.5 -65.5t63.5 -22.5q47 0 80 28q28 25 28 77q0 10 -1 20q-14 125 -33 580l-2 155h96q47 0 75 31t28 72t-28 71.5t-75 30.5h-88q6 98 19 156q12 55 47 55q31 0 59 -8q10 -2 21.5 -4t23.5 -2q41 0 63.5 28.5 t22.5 75.5q0 57 -51 88t-137 31q-61 0 -131 -37q-47 -27 -78 -86t-47.5 -138t-16.5 -159h-36q-45 0 -70 -32t-25 -72z" />
<glyph unicode="g" horiz-adv-x="1181" d="M88 606q-2 -31 -2 -60q0 -106 23 -181q29 -100 91 -182.5t171 -125.5q94 -40 210 -40q15 0 31 1q158 16 236 99q-12 -152 -33 -221q-14 -49 -67.5 -87t-153.5 -42h-24q-97 0 -179 28q-39 27 -45 55q-6 27 -10 44q-14 43 -51 60q-23 11 -47 11q-15 0 -29 -4 q-39 -10 -62 -49q-11 -21 -11 -45q0 -21 8 -45q18 -51 44 -86q72 -92 182 -129q86 -29 178 -29q25 0 50 2q76 6 135.5 19.5t111.5 47.5t105 101q80 100 97 305q12 120 12 292v50q-4 360 -27 611q-6 41 -36 68q-25 23 -65 23q-7 0 -13 -1q-76 -18 -78 -101q-53 43 -146 74 q-57 9 -110 9q-182 0 -320 -109q-160 -137 -176 -363zM305 588q12 131 96 198q65 57 171 57q38 0 81 -7q63 -10 105 -43q70 -51 84 -121q13 -74 13 -152q0 -40 -3 -80q-18 -158 -137 -194q-37 -19 -104 -19h-13h-6q-141 0 -219 92q-69 85 -69 231q0 18 1 38z" />
<glyph unicode="h" horiz-adv-x="1132" d="M137 1384q-3 -96 -3 -219q0 -184 7 -428q16 -543 17 -637q0 -51 30.5 -76.5t71.5 -25.5t71.5 25.5t30.5 76.5q0 164 -14 607q12 23 17 28q55 84 113 118q50 29 123 29q13 0 26 -1q170 -12 188 -269q3 -44 3 -103q0 -89 -7 -214q-12 -190 -12 -193q0 -49 29.5 -74.5 t69.5 -26.5h3q38 1 69 23q32 24 34 74q0 47 8 139.5t12 184.5v46q0 72 -4 161q-33 428 -373 456q-15 1 -30 1q-158 0 -277 -138q0 373 2 428v6q0 46 -28 72q-30 27 -69 28h-3q-38 0 -70 -24q-33 -24 -35 -74z" />
<glyph unicode="i" horiz-adv-x="479" d="M117 1360q-1 -6 -1 -11q0 -41 38 -79q39 -39 80 -39q5 0 10 1q47 5 80.5 39t39.5 81q1 5 0 11q0 41 -38 79q-35 40 -77 40h-9q-47 -5 -82 -40t-41 -82zM135 98q0 -52 31 -76q30 -24 69 -23h3q41 1 71.5 27.5t30.5 75.5q-2 62 -2 149q0 131 4 320q4 315 4 414 q0 51 -30.5 76.5t-71.5 25.5t-72 -25.5t-31 -76.5q0 -98 -4 -416q-4 -190 -4 -322q0 -87 2 -149z" />
<glyph unicode="j" horiz-adv-x="487" d="M-37 -253q-1 -9 -1 -18q0 -30 16 -57q20 -34 58 -49q14 -5 28 -5q25 0 53 17q14 8 39 21q23 10 24 12q57 27 90 60q41 39 60 122q14 55 22 144q13 137 13 341v30q-2 150 -25 630q-2 51 -35 75q-30 22 -66 22h-7q-39 -2 -69 -29q-28 -25 -28 -70v-6q23 -479 25 -625v-60 q0 -176 -10 -288q-6 -74 -19 -114q-4 -18 -8 -29q-10 -8 -35 -21q-72 -37 -74 -38q-45 -25 -51 -65zM119 1365v-8q0 -35 33 -67q31 -33 66 -33q4 0 8 1q40 4 69 33.5t33 68.5v8q0 34 -33 66q-31 33 -66 33q-4 0 -8 -1q-39 -4 -68.5 -32.5t-33.5 -68.5z" />
<glyph unicode="k" horiz-adv-x="1003" d="M133 104v-6q-1 -46 27 -70q30 -26 70 -28h6q36 0 67 22q33 24 35 74q8 166 12 326q4 2 8 6l111 92q129 -227 365 -487q31 -37 69 -37h3q40 2 71 29.5t37 66.5q1 6 1 11q0 33 -30 65q-233 260 -356 485q190 164 293 265q29 30 29 63q1 7 -1 13q-8 40 -37.5 68t-69.5 29h-2 q-39 0 -71 -38q-115 -111 -414 -361q4 270 4 672q0 51 -30.5 76.5t-71.5 25.5t-71.5 -25.5t-30.5 -76.5q0 -788 -23 -1260z" />
<glyph unicode="l" horiz-adv-x="456" d="M123 106v-6q-1 -46 27 -72q30 -26 70 -27h3q38 1 70 23q33 24 35 74q6 180 7 392v87q0 177 -3 386q-4 260 -4 401q0 51 -31 76.5t-72 25.5t-71.5 -25.5t-30.5 -76.5q0 -123 2 -272.5l4 -299t2 -272.5q0 -141 -8 -414z" />
<glyph unicode="m" horiz-adv-x="1693" d="M133 993q0 -86 3 -191.5t5 -212t2 -190.5q0 -66 -4 -293v-6q0 -46 28 -72q29 -26 69 -27h4q38 1 69 23q33 24 35 74q4 108 4 264t-4 361q12 10 23 22q49 68 96 99q49 31 117 37q12 1 22 1q45 0 70 -20q29 -23 45 -80q6 -18 12 -59t8 -64q0 -16 1 -48.5t1 -43.5v-102 q0 -133 6 -365q2 -52 35 -76q32 -24 70 -23h3q39 1 69 27q28 24 28 70v6q-6 231 -6 361q0 176 -6 237q141 170 283 172q63 0 94 -31.5t43 -103.5q10 -49 10 -113.5t-2 -132t-2 -118.5v-117q0 -6 3 -41t6 -73t3 -54q4 -50 37 -72q30 -21 67 -20h6q40 2 68 30q27 26 27 71v7 q-2 16 -5 52.5t-5 68t-2 35.5v113q0 49 2 119q1 46 1 95v49q-1 75 -11 138q-25 131 -97 215q-90 94 -237 94h-6q-207 -12 -334 -172q-39 70 -88 109q-80 65 -196 65q-20 0 -40 -2q-133 -12 -225 -120v8q0 61 -28 87q-27 24 -64 24h-8q-41 -3 -73 -27.5t-32 -63.5z" />
<glyph unicode="n" horiz-adv-x="1155" d="M133 985q0 -256 4 -604q2 -117 2 -279q0 -47 31 -74.5t72 -27.5t71.5 27.5t30.5 74.5l-2 326l-4 291q70 70 148.5 115t152.5 45q102 0 151.5 -83t49.5 -257q0 -76 -11 -209q-14 -195 -14 -228q0 -47 31 -74.5t72 -27.5q39 0 67.5 24.5t32.5 65.5l6 88l10 137q6 74 6 308 q0 211 -95 335.5t-273 124.5q-207 0 -334 -165v63q0 49 -32 76.5t-75 27.5q-41 0 -69.5 -26.5t-28.5 -73.5z" />
<glyph unicode="o" horiz-adv-x="1163" d="M98 465q31 -209 160 -342q118 -127 292 -127q66 0 140 18q94 25 177 98.5t130 170.5q47 94 66 204q8 33 8 75q0 21 -2 44q-6 70 -32.5 144.5t-71.5 141t-113 112.5q-27 16 -49.5 28t-46.5 21l-39 14q-16 4 -47 7t-63 5t-48 2q-31 12 -61 6q-6 -2 -17 -4q-27 -2 -28 -2 q-49 -8 -82 -26q-160 -90 -234 -279q-45 -108 -45 -225q0 -43 6 -86zM303 496q-6 33 -6 65q1 43 11 85q18 74 60 135t101 93l14 5q2 0 25 2q8 -2 14 -2q12 0 43 -2.5t60.5 -4.5t42.5 -4q18 -6 32.5 -13t36.5 -24q61 -39 92 -109t33 -150v-11q0 -74 -24 -144 q-26 -75 -79.5 -127.5t-131.5 -62.5q-28 -4 -54 -4q-102 0 -170 62q-78 72 -100 211z" />
<glyph unicode="p" horiz-adv-x="1187" d="M133 -305q0 -49 31 -76t72 -28h3q38 0 68 24q31 25 31 76q4 190 6 381q104 -75 236 -75q46 0 94 9q111 20 195.5 75.5t131.5 129.5t72 149q23 70 23 151v13q-2 88 -25 166q-29 109 -91 201t-153 143q-87 54 -195 54q-11 0 -22 -1q-121 -6 -243 -79l-29 -19 q-12 41 -38 68.5t-56 27.5q-43 0 -73 -29.5t-30 -72.5q0 -885 -8 -1288zM346 373v336l27 36q10 18 14 25l10 10q10 12 76 51q83 51 155 51q52 0 97 -26q106 -59 149 -219q18 -66 18 -126q0 -85 -37 -155q-62 -120 -218 -149q-29 -5 -54 -5q-56 0 -99 24q-64 34 -122 124 q-6 12 -16 23z" />
<glyph unicode="q" horiz-adv-x="1196" d="M94 524q-1 -9 -1 -18q0 -61 20 -129q20 -80 65 -156q45 -78 127 -135t191 -78q53 -10 102 -10q90 0 164 35q55 25 112 73q-4 -219 -10 -397v-6q0 -47 28 -71q30 -27 70 -28h3q37 0 69 24q33 24 35 73q13 416 13 780q0 121 -1 236q4 14 0 31q0 100 -2 229q0 43 -30.5 71.5 t-73.5 28.5q-35 0 -62.5 -23.5t-35.5 -84.5l-7 2q-151 119 -297 119q-108 0 -213 -66q-76 -51 -142 -143.5t-103 -208.5q-18 -78 -21 -148zM300 444q-6 32 -6 63q0 55 19 109q51 166 162 224q45 23 97 23q87 0 192 -64q55 -37 72 -54q8 -8 22 -26l21 -23v-280l-54 -62 q-33 -39 -71.5 -78.5t-77.5 -58.5q-34 -14 -79 -14q-30 0 -65 6q-96 18 -155.5 82.5t-76.5 152.5z" />
<glyph unicode="r" horiz-adv-x="739" d="M133 872q0 -211 2 -352l4 -418q0 -47 31 -74.5t72 -27.5t71.5 27.5t30.5 74.5l-2 322l-4 256q0 33 27.5 67.5t64.5 59.5q66 47 238 47q47 0 71.5 27.5t24.5 68.5q0 63 -41 88t-117 25q-100 0 -184 -51q-61 -35 -84 -84v61q0 49 -32 77t-75 28q-41 0 -69.5 -27t-28.5 -74 v-121z" />
<glyph unicode="s" horiz-adv-x="1013" d="M70 315q4 -12 8 -32l8 -45q14 -72 47 -115q67 -96 219 -123q55 -11 112 -11q71 0 146 17q141 29 234 105q105 86 105 200q0 18 -3 37q-23 168 -190 244q-70 31 -260 63q-129 27 -166 54q-20 15 -19 49q0 20 6 47q16 70 125 76h12q53 1 109 -15q62 -18 101 -43 q16 -10 28 -20l29 -35q20 -20 41 -39q34 -30 70 -30h6q39 3 67.5 31t32.5 66v7q0 34 -33 67l-17 18q-18 17 -41.5 38.5t-42 40t-22.5 20.5q-68 45 -163 71q-82 22 -162 21h-25q-109 -6 -198 -60t-117 -169q-12 -51 -12 -96q0 -129 100 -203q74 -55 252 -90q172 -31 213 -49 q66 -29 71 -86q1 -5 1 -10q0 -30 -31 -58q-51 -39 -144 -59q-52 -11 -101 -11q-39 0 -75 7q-49 6 -74 28q-23 18 -28 45q-6 23 -6 33q-2 8 -4 18q-6 29 -13 52q-14 49 -51 63q-20 8 -40 8q-18 0 -36 -6q-39 -12 -61 -44q-14 -19 -14 -43q0 -16 6 -34z" />
<glyph unicode="t" horiz-adv-x="628" d="M22 950q4 -38 34 -66q25 -24 66 -25q6 0 13 1l17 2q-2 -86 -2 -123q-2 -79 -2 -146q0 -101 4 -175q6 -162 28 -217q31 -70 77 -107t101 -57q27 -10 66 -19q37 -8 49 -12q21 -7 39 -7q24 1 44 13q34 22 46 59q6 18 6 35q0 20 -8 40q-14 38 -61 53q-16 6 -49 15t-61 17.5 t-32 12.5q-27 16 -33 61t-8 119q-4 73 -4 171q0 65 2 142q0 45 2 144l90 4q51 5 74 37q20 29 20 63v9q-3 40 -31 69q-26 27 -73 27h-6l-68 -5l7 195v6q0 46 -28 72q-30 26 -70 27h-3q-38 -1 -70 -23q-32 -24 -34 -74q-4 -111 -6 -219l-47 -4q-49 -8 -71 -42q-18 -28 -18 -60 q-1 -6 0 -13z" />
<glyph unicode="u" horiz-adv-x="1140" d="M110 596q1 -74 11 -131q12 -70 35 -135q66 -188 180 -271q83 -58 177 -58q41 0 85 11q100 25 195 107q4 -63 31.5 -90t64.5 -29h6q39 0 69 26q32 28 33 70q10 216 9 453q0 211 -7 438q-3 49 -35 73q-31 24 -69 24h-3q-40 -2 -70 -28q-28 -25 -27 -71v-6q7 -201 7 -397 q0 -78 -1 -156q-31 -88 -65 -131t-77 -60.5t-102 -27.5q-66 0 -94 18q-70 45 -115 170q-29 86 -32 165q-1 34 -1 71q0 49 2 104q0 41 11 127q8 86 10 117v7q0 46 -26 72q-28 28 -69 30h-8q-35 0 -65 -21q-33 -23 -37 -72q-4 -41 -10 -107t-10 -142q-3 -61 -3 -120v-30z" />
<glyph unicode="v" horiz-adv-x="983" d="M2 948q20 -51 131 -336q109 -287 141 -366l41 -92q18 -43 31 -68l16 -29q6 -10 15 -18q8 -10 18 -19q28 -20 64 -20h6q45 4 82 41q18 16 37 43q25 37 53 94l57 125q29 70 115 291q84 221 149 340q15 28 15 53q1 15 -5 29q-16 36 -50 56q-25 14 -53 15q-11 -1 -22 -3 q-40 -8 -65 -52q-68 -123 -162 -368q-96 -246 -110 -279l-4 -8q-2 -8 -13.5 -34t-17.5 -38l-8 19q-12 29 -40 102.5t-64.5 166.5t-71.5 185t-60.5 159t-31.5 85q-21 48 -59 60q-18 6 -35 5q-19 1 -39 -7q-36 -14 -56 -50q-11 -19 -11 -42q0 -19 7 -40z" />
<glyph unicode="w" horiz-adv-x="1374" d="M16 954q43 -178 136 -452q106 -319 137 -428q10 -33 40.5 -53.5t69.5 -20.5q82 0 119 156q20 92 115 415l35 123q117 -354 163 -493l33 -101q35 -100 125 -100q80 0 125 117q35 102 113 393l45 164q29 104 51 205q14 70 16 73q6 19 6 36q-1 31 -19 56q-28 39 -79 39 q-33 0 -59.5 -22.5t-36.5 -61.5q-39 -133 -80 -305q-20 -86 -37 -159l-45 -185q-88 305 -184 576q-20 57 -48 81.5t-71 24.5q-88 0 -123 -96q-14 -41 -26 -80q-12 -41 -25 -78q-47 -147 -45 -141l-29 -86l-47 -143q-10 63 -41 159q-78 229 -133 432q-20 82 -98 82 q-55 0 -87 -40q-21 -27 -21 -56q0 -15 5 -31z" />
<glyph unicode="x" horiz-adv-x="958" d="M46 73q14 -39 50 -59q27 -16 57 -15q9 0 18 1q40 6 65 51q113 197 227 359l272 -365q29 -41 69 -44h9q35 -1 65 19q34 22 44 61q3 10 2 20q0 28 -21 59l-319 430q127 176 256 332q21 26 21 58q0 8 -1 17q-4 45 -36 69q-28 21 -64 21q-5 -1 -10 -1q-41 -4 -70 -37 q-115 -141 -225 -285l-213 280q-29 39 -70 41h-6q-38 1 -68 -21q-32 -24 -42 -62q-2 -9 -2 -19q0 -30 24 -61l254 -338q-139 -211 -273 -430q-18 -28 -18 -54q0 -14 5 -27z" />
<glyph unicode="y" horiz-adv-x="925" d="M-3 -320q3 -40 32 -68q25 -24 68 -24h12q2 0 33.5 4.5t64.5 7.5t45 7q31 6 59.5 21.5t57.5 37.5q98 78 155 238q14 47 37 123q18 80 29 106q4 16 16 57q35 115 60.5 193t51 148.5t64.5 164.5q57 141 111 240q15 28 15 53q0 15 -6 29q-15 37 -50 56q-25 15 -53 15 q-11 0 -22 -3q-40 -7 -64 -52q-119 -219 -262 -657l-78 213q-109 291 -148 422q-14 49 -51 64q-21 9 -43 9q-16 0 -33 -5q-39 -11 -62 -44q-13 -19 -13 -45q0 -17 6 -37q49 -164 151 -436q115 -309 152 -467q8 -23 22 -39q-12 -14 -24 -49q-39 -113 -88 -137l-21 -12 q-14 -10 -59 -14.5t-74 -6.5q-49 -4 -72 -38q-19 -30 -19 -65v-10z" />
<glyph unicode="z" horiz-adv-x="978" d="M25 96q18 -43 63 -65q20 -8 47 -15q37 -8 96 -12q69 -4 175 -4h75q102 2 250 8q145 6 162 6q51 0 76.5 31t25.5 72t-25.5 71.5t-76.5 30.5q-16 0 -164 -6q-143 -6 -250 -8q-46 -1 -83.5 -1t-67.5 1l47 47q176 182 295 338q106 115 151 209q31 66 37 116q2 14 2 26 q0 70 -47 116q-16 16 -39 22l-12 4q-4 0 -8 2h-88q-48 1 -114 1t-151 -1q-52 -1 -95 -1q-95 0 -140 6h-12q-42 0 -68 -24q-29 -28 -33 -66q-1 -6 -1 -12q0 -32 18 -61q22 -34 71 -42q43 -5 150 -5q80 0 196 3q68 0 146 -2q-37 -74 -125 -185q-113 -127 -281 -301l-94 -94 l-63 -65l-23 -29q-8 -10 -12 -19q-6 -8 -10 -20q-6 -18 -6 -36t6 -36z" />
<glyph unicode="{" horiz-adv-x="872" d="M123 547q-2 -92 100 -141l35 -17q25 -33 33 -67v-7q0 -8 -2 -26q-2 -20 -4 -43q-14 -117 -15 -121q-10 -98 -6 -202.5t41 -170.5q41 -72 120 -116t214 -46q49 -16 83 5.5t46 59.5t-2 76t-61 52q-195 25 -222 70q-12 25 -14 77q-2 53 6 183q0 10 2 26l6 41l4 41 q12 102 5 146q-18 84 -78 157h-2q72 63 108 144q10 20 19.5 63t11.5 64q0 12 1 41.5t2 57.5t3 30q4 160 33 231q31 86 49 76q12 10 123 29q51 8 70.5 42.5t13.5 74.5t-37 66.5t-80 16.5h-16.5h-40.5q-55 0 -66 -2l-28 -8q-16 -6 -28.5 -13t-25.5 -16q-45 -29 -71.5 -75 t-55.5 -117q-37 -100 -45 -297q-6 -152 -20 -182q-16 -37 -53 -70q-4 0 -13 -2q-10 -2 -14 -2q-39 -6 -64 -21q-63 -37 -65 -108z" />
<glyph unicode="|" horiz-adv-x="419" d="M102 92q-2 -51 28 -77.5t70 -27.5t72.5 23.5t34.5 73.5q10 319 10 1284q0 51 -30.5 76.5t-71.5 25.5t-71.5 -25.5t-30.5 -76.5q0 -961 -11 -1276z" />
<glyph unicode="}" horiz-adv-x="876" d="M26 1346.5q3 -39.5 29.5 -69.5t77.5 -28q100 6 148 -24q33 -20 49 -72q12 -41 15 -90t3 -141q-2 -92 -2 -138v-16q-4 -25 -4 -31q-2 -59 18 -104q31 -59 109 -111q-2 -2 -4 -6q-33 -47 -57.5 -149.5t-20.5 -262.5q4 -156 0 -190q-8 -57 -41 -82q-55 -39 -199 -41 q-51 0 -75.5 -30.5t-23.5 -71.5t28 -72t76 -31q209 4 313 80q104 74 125 219q4 41 2 224q-2 133 16 213q14 59 23 75q2 0 33 19q92 55 90 141q-2 74 -66 109q-27 12 -65 18q-29 4 -31 4q-37 23 -45 33v4q0 2 2 25t2 38q0 45 2 130.5t-4 168.5q-6 68 -23 125 q-39 125 -135 187q-104 66 -270 55q-51 -2 -74.5 -35t-20.5 -72.5z" />
<glyph unicode="~" horiz-adv-x="1441" d="M100 411.5q6 -38.5 37 -66.5t71 -30t73 37q115 127 204 127q53 2 179 -67q57 -31 129.5 -63t150.5 -32q184 0 369 191q35 37 29.5 77t-34 68.5t-68.5 31.5t-75 -34q-123 -129 -221 -129q-57 0 -182 70l-80 43q-29 14 -87 31.5t-110 17.5q-182 0 -356 -197 q-35 -37 -29 -75.5z" />
<glyph unicode="&#xa1;" horiz-adv-x="438" d="M100 992q-4 -40 33 -74q35 -37 75 -33t68.5 33.5t32.5 68.5t-33 74q-35 37 -73.5 33t-68.5 -33t-34 -69zM117 668q-4 -178 6 -510q8 -332 8 -465q0 -51 31 -77t71.5 -26t71.5 26t31 77q0 133 -8 463q-10 330 -6 508q0 49 -31 75.5t-72 27.5t-71.5 -23.5t-30.5 -75.5z" />
<glyph unicode="&#xa2;" horiz-adv-x="1277" d="M163 652.5q-18 -113.5 1.5 -229.5t72 -217.5t134.5 -168.5q12 -10 24 -19l-45 -129q-16 -43 3.5 -78.5t57 -52t78.5 3.5q39 18 54 58l45 125q117 -12 241 41q100 43 145.5 98t86.5 123l35 57q27 41 14.5 80t-46.5 61.5t-74 18.5t-66 -49l-41 -66l-31 -51 q-16 -29 -44 -49.5t-60 -34.5q-49 -23 -95 -27q37 119 107 371l86 309q14 -14 33 -36l24 -29q12 -18 23 -33l16 -22q29 -41 69 -43t71.5 23.5t42 65.5t-18.5 81q-6 4 -19.5 20t-28 35.5t-20.5 30.5q-55 78 -102 100q-16 8 -29 16l54 176q14 49 -8.5 83t-61.5 46.5t-76 -3 t-51 -64.5l-57 -191h-54q-143 0 -248.5 -60t-168.5 -165q-55 -92 -73 -205.5zM367 455q-29 178 43 299q74 125 239 125l-86 -306q-61 -217 -100 -342q-74 86 -96 224z" />
<glyph unicode="&#xa3;" horiz-adv-x="1318" d="M128 684q1 -41 26.5 -71.5t76.5 -30.5q47 0 103 2q0 -6 2 -13q27 -145 -86 -303l-35 -24q-33 -25 -51 -51q-37 -61 -6 -125q23 -45 75 -62q20 -6 48 -8q35 -2 88 0q31 2 82 6q37 4 38 4q66 0 230 -47q184 -53 297 -41q25 4 61.5 13.5t70.5 19.5t50 14q49 12 65.5 49 t6.5 76t-43 62.5t-82 9.5q-29 -6 -60 -17q-31 -10 -51 -16q-18 -4 -39 -6q-76 -8 -219 33q-193 55 -287 55q-6 0 -32 -2q113 190 84 379q135 4 213 6q51 0 75.5 30.5t23.5 71.5t-27.5 72t-75.5 31q-76 -2 -273 -8l-2 4q-55 129 -63 151q-25 61 -20 119.5t48 116.5 q49 66 138.5 90t179.5 2q90 -25 139 -90q29 -35 33 -56q2 -10 5 -37.5t5 -58.5q8 -49 42 -70.5t73 -17.5t66.5 33t23.5 80q-14 113 -15 119q-16 63 -69 135q-61 78 -150.5 123t-193 54t-203.5 -22q-150 -45 -238 -161q-139 -184 -59 -424q12 -39 39 -97h-29 q-49 0 -74.5 -30.5t-24.5 -71.5z" />
<glyph unicode="&#xa4;" horiz-adv-x="1284" d="M140 294q3 -40 32 -68.5t68.5 -34t76.5 29.5l86 84q96 -68 228 -78q166 -12 287 80l47 -49q33 -37 73.5 -34t70.5 31t35 66.5t-32 75.5l-68 72q27 57 37 119q33 184 -59 336l82 69q37 35 36 75t-28 69.5t-65.5 36t-77.5 -24.5l-95 -82q-27 16 -57 29q-23 8 -55 16 q-29 47 -84 51q-12 0 -31 4q-18 2 -20 2q-51 6 -90 -2q-78 -16 -142 -61l-73 68q-37 37 -76 31.5t-66.5 -35t-31 -70.5t33.5 -74l84 -82q-57 -123 -53 -262q6 -119 57 -221l-96 -92q-37 -35 -34 -75zM418 690q-4 96 33 170q39 72 98 98q23 -25 55 -30q35 -6 77 -11.5 t62 -13.5q78 -31 116 -109.5t22 -170.5q-16 -90 -77 -143.5t-157 -47.5q-106 8 -165.5 79t-63.5 179z" />
<glyph unicode="&#xa5;" horiz-adv-x="1273" d="M124 850q-1 -41 24.5 -71.5t74.5 -30.5l164 -3h10l76 -143q-131 0 -211 2q-49 0 -75.5 -30.5t-27.5 -71.5t23.5 -72t75.5 -31q84 -2 250 0q0 -47 -2 -297q0 -51 30.5 -76.5t71.5 -26.5t72 24.5t31 74.5q2 254 2 299q143 -2 256 -10q51 -2 78.5 26.5t30.5 68.5t-19.5 73 t-73.5 37q-115 8 -262 10l92 150l189 -2q49 0 74.5 30.5t26.5 71.5t-24.5 71.5t-76.5 30.5h-56l166 236q31 41 21.5 80t-42 62.5t-73.5 21.5t-70 -41q-180 -248 -348 -514q-59 113 -287 499q-25 45 -64.5 51.5t-74.5 -14t-49 -58.5t12 -81l144 -244h-56q-51 0 -76.5 -30.5 t-26.5 -71.5z" />
<glyph unicode="&#xa6;" horiz-adv-x="421" d="M102 104q0 -49 30 -74.5t70 -26.5t71.5 22.5t33.5 74.5q2 47 4 131q0 84 2 154l4 133q2 51 -27.5 78t-69.5 28t-72.5 -22.5t-34.5 -75.5q-2 -31 -3 -86t-2.5 -118.5t-2.5 -122t-3 -95.5zM104 979q0 -51 31 -76.5t72 -25.5t71.5 25.5t30.5 76.5q0 238 4 381 q2 51 -27.5 76.5t-69.5 26.5t-72.5 -23.5t-34.5 -75.5q-5 -143 -5 -385z" />
<glyph unicode="&#xa7;" horiz-adv-x="1300" d="M211 512q55 -88 197 -176q35 -20 110 -62q76 -43 115 -65q115 -70 164 -135q51 -63 41 -146q-4 -51 -52.5 -87t-113 -49t-121.5 -1t-82 57q-10 20 -17.5 61.5t-19.5 80.5q-12 49 -49 65.5t-76 6t-62.5 -43t-8.5 -81.5q0 -4 8 -41q8 -39 20 -76q10 -39 25 -66 q41 -78 109.5 -120t151.5 -52t165 8q80 18 151.5 60.5t118.5 107t57 146.5q14 131 -45 241q76 63 111 117q74 111 35 256q-20 80 -67.5 141.5t-108 107.5t-119.5 81l-90 49l-25 12q-133 72 -186 119t-53 109q0 59 40.5 96t99 48t115 -6.5t85.5 -66.5q2 -4 6 -20 q10 -57 12 -62q12 -49 49 -65.5t76 -6t62.5 43t9.5 82.5l-5.5 27.5t-3.5 21.5q-10 49 -30 82q-61 109 -181 151q-117 41 -237 19q-125 -23 -213 -113q-90 -88 -90 -231q0 -96 49 -176q-74 -53 -117 -119q-109 -166 -10 -330zM387 618q-33 53 4 109q33 47 96 88 q47 -33 152 -88q150 -78 217 -131q70 -53 90 -131q14 -55 -10 -90q-17 -27 -74 -76q-51 41 -125 86l-112 61q-76 43 -111 66q-100 59 -127 106z" />
<glyph unicode="&#xa8;" horiz-adv-x="602" d="M1 1387.5q-11 -56.5 34 -103.5q33 -39 83 -42t92 22.5t48 74.5q6 47 -4 76q-14 39 -33 55q-18 16 -39 23q-23 8 -51 8q-45 2 -74 -20q-45 -37 -56 -93.5zM343 1387.5q-11 -56.5 34 -103.5q33 -39 83 -42t92 22.5t48 74.5q6 47 -4 76q-14 39 -33 55q-18 16 -39 23 q-23 8 -51 8q-45 2 -74 -20q-45 -37 -56 -93.5z" />
<glyph unicode="&#xa9;" horiz-adv-x="1644" d="M123 659q2 -131 55 -246.5t147.5 -205.5t216.5 -141.5t259 -53.5q252 -4 429 119t267 324q35 92 37 194.5t-19.5 201.5t-61.5 184t-93 141q-86 102 -166 153q-88 55 -168 82q-27 8 -70 15.5t-84 11.5t-61 8q-59 10 -96 -37q-125 -25 -240 -91.5t-201 -160.5 q-88 -96 -131 -227q-23 -129 -20 -271zM324 688q-6 137 60.5 261t195.5 198q129 72 272 72q25 0 45 10q39 -10 68 -15q70 -10 118 -45q68 -47 111 -102q59 -76 97 -180.5t44 -212t-30 -191.5q-88 -123 -179 -190q-112 -86 -274 -86q-244 6 -389 143q-129 166 -139 338z M496 776q-8 -82 14 -165t78 -146q59 -74 150 -105t200 -6q51 12 104 54l33 24l23 17q41 27 46 66.5t-16.5 73.5t-59.5 46t-81 -14q-16 -10 -39 -27l-28 -23q-18 -14 -27 -16q-96 -23 -150 41q-55 66 -43 158q8 76 56 92q80 29 235 -82q41 -29 80 -18.5t62.5 44t20.5 73.5 t-44 69q-242 170 -420 108q-88 -31 -136 -103.5t-58 -160.5z" />
<glyph unicode="&#xaa;" horiz-adv-x="913" d="M92 1112q0 -139 79 -222t210 -83q156 0 240 115q18 -49 64 -90t91 -41q31 0 53.5 19t22.5 44q0 27 -5 43t-28 31q-76 47 -76 139q0 37 15 113q10 41 10 69q0 29 -9 43.5t-28 24.5q4 14 -6 33q-12 16 -51 49q-92 76 -217 76q-90 0 -174 -46.5t-138 -130.5 q-53 -84 -53 -186zM266 1116q0 84 55.5 140.5t127.5 56.5q68 0 100 -29q31 -27 51 -27q-31 -18 -31 -112q0 -84 -49 -130t-108 -46q-61 0 -103.5 37.5t-42.5 109.5z" />
<glyph unicode="&#xab;" horiz-adv-x="1081" d="M115 584q-14 -84 69 -176q31 -35 174 -168q37 -35 77 -29t67.5 35.5t30 69.5t-34.5 75q-135 123 -162 154l-8 10l18 18q8 6 66 54l98 86q37 35 35 74.5t-29 69.5t-66.5 36t-78.5 -29q-39 -37 -95 -82q-57 -47 -63 -55q-88 -76 -98 -143zM560 532.5q-1 -81.5 77 -170.5 q35 -38 164 -159q37 -35 77 -29t67.5 36t29.5 69.5t-35 74.5q-121 115 -149 144q-20 25 -25 30q6 12 27 35q29 35 151 146q39 33 37 72.5t-29.5 70.5t-66.5 37t-76 -29q-131 -117 -168 -158q-80 -88 -81 -169.5z" />
<glyph unicode="&#xac;" d="M142 708q-3 -40 20.5 -73t75.5 -35q242 -14 772 -2q-4 -121 0 -262q2 -51 34.5 -74.5t72.5 -22.5t70 27.5t27 77.5q-6 193 7 352q4 43 -24 75t-71 36q-18 2 -34 -4q-10 2 -21 2q-57 0 -135 -3t-143 -3q-43 -2 -129 -2q-88 -2 -143.5 -1t-129.5 3q-76 2 -141 6 q-51 2 -78 -27.5t-30 -69.5z" />
<glyph unicode="&#xad;" horiz-adv-x="749" d="M103 559q3 -37 29 -63.5t75 -24.5q70 4 186 8q117 4 158 6q45 2 71.5 32t25.5 69t-34 67q-35 27 -90 23t-141 -6q-123 -4 -193 -8q-47 -4 -68.5 -35t-18.5 -68z" />
<glyph unicode="&#xae;" horiz-adv-x="1601" d="M104 735q-2 -141 43 -278q49 -141 147.5 -247t237 -162t308.5 -50q125 6 233.5 55t186.5 129t132 178.5t78 206.5q29 106 22 222t-38 221q-33 104 -108.5 198.5t-182.5 155.5q-16 10 -35 18l-36 15q-14 6 -39 12l-37 8q-12 4 -39 10q-27 4 -33 7l-37 4l-26 4 q-33 27 -74 24q-14 0 -48 -1t-71 -4t-55 -7q-88 -23 -161 -78t-124 -106q-117 -111 -179.5 -253.5t-64.5 -281.5zM308 726.5q1 102.5 48 209.5q47 104 131 186q123 117 191 131q16 4 106 7q18 -12 43 -17q61 -14 119 -20t115 -35q96 -55 152.5 -145.5t70.5 -201t-12 -227.5 q-41 -174 -160 -290q-117 -115 -281 -121q-184 -8 -311 82t-180 239q-33 100 -32 202.5zM471 735q2 -246 2 -280q0 -51 31 -77t71.5 -26t71.5 25.5t31 77.5v106h8q45 2 117 17q20 4 43 10q6 -2 10 -4q27 -12 31 -33q4 -14 8 -47q8 -57 12 -80q10 -51 45 -69.5t75 -11.5 t65.5 38t15.5 80q-2 18 -8 67.5t-15 79.5q-12 41 -34 74q90 94 47 223q-20 66 -72.5 120t-116.5 83q-61 29 -170 25q-27 -2 -73 -7l-50 -6q-16 -2 -30 -8h-8q-43 2 -74 -27.5t-33 -70.5q-4 -35 0 -279zM674 797v123q47 6 76 8q57 2 73 -4q66 -33 80 -82q6 -4 4 -13 q-4 -10 -22 -20h-4l-29 -8l-10 -4q-57 8 -125 4z" />
<glyph unicode="&#xaf;" horiz-adv-x="649" d="M2 1378q-4 -37 15.5 -67.5t62.5 -34.5q123 -18 270 -19q148 1 211 9q43 2 64.5 31.5t21.5 65.5t-22.5 62.5t-69.5 24.5q-10 0 -44 -2t-69.5 -4t-52.5 -2h-53q-18 0 -55 2t-73 4t-50 4l-54 8q-47 4 -72.5 -20.5t-29.5 -61.5z" />
<glyph unicode="&#xb0;" horiz-adv-x="944" d="M115 1079q12 -113 90 -198t209 -101q104 -10 203.5 41t156.5 137q68 98 55 205q-14 121 -131 201q-43 31 -112 49q-10 4 -27 8l-29 9q-12 2 -26 6l-2 2q-33 23 -74 16h-20l-29 -2q-51 -4 -88 -22q-98 -45 -143.5 -145.5t-32.5 -205.5zM317 1104q-6 49 12.5 88t47.5 53 l18 2q6 0 17 2h10h2q6 -4 14 -6q2 -2 92 -26q37 -10 54 -21q39 -29 43 -57.5t-21 -65.5q-31 -43 -80 -68.5t-88 -19.5q-109 12 -121 119z" />
<glyph unicode="&#xb1;" d="M167 727q1 -39 27.5 -67.5t75.5 -28.5q135 0 299 2q9 -228 9 -232q0 -49 31.5 -73.5t72.5 -23.5t71.5 27.5t28.5 78.5q-2 29 -8 223h318q51 0 76.5 28.5t25.5 67.5t-25.5 67.5t-76.5 28.5h-324q-2 137 10 258q4 49 -23.5 78t-68.5 34t-74.5 -17.5t-38.5 -73.5 q-12 -125 -10 -279q-162 -2 -297 -2q-51 0 -75.5 -28.5t-23.5 -67.5zM172 84q0 -37 24.5 -65.5t75.5 -28.5l504 4q158 4 309 -4q49 -2 75 24.5t27 64.5t-22.5 67.5t-74.5 31.5l-521 2q-201 -2 -297 -2q-51 0 -75.5 -28.5t-24.5 -65.5z" />
<glyph unicode="&#xb2;" horiz-adv-x="884" d="M102 1200q0 -45 26 -73.5t73 -28.5q31 0 56.5 21.5t33.5 56.5q12 47 51 72.5t94 25.5q59 0 92 -23.5t33 -58.5q0 -37 -27.5 -63.5t-93.5 -57.5q-135 -63 -219 -127q-55 -41 -82.5 -89t-27.5 -114q0 -72 52 -122t128 -50q57 0 115 11q27 4 56.5 7t59.5 3q47 0 109 -12 q49 -8 78 -9q41 0 71.5 27t30.5 70q0 61 -76 90q-80 29 -200 28q-131 0 -230 -30q27 78 197 153q131 59 189.5 130t58.5 161q0 113 -84 187.5t-228 74.5q-86 0 -163.5 -39t-124.5 -100t-48 -121z" />
<glyph unicode="&#xb3;" horiz-adv-x="778" d="M45 784q0 -51 43 -108q90 -127 295 -127q150 0 236 81t86 201q0 80 -51.5 148t-157.5 96v-51q92 27 131 85t39 126q0 55 -39 109.5t-107 89.5q-70 33 -155 32q-145 0 -234 -75q-33 -29 -49 -54.5t-16 -58.5q0 -35 24.5 -59.5t56.5 -24.5q31 0 50.5 13.5t40.5 39.5 q39 51 127 51q57 0 92 -24.5t35 -63.5q0 -37 -34 -59.5t-83 -22.5q-43 0 -68.5 -25.5t-25.5 -62.5q0 -35 27.5 -58.5t64.5 -20.5q59 4 106 -29t49 -88q4 -61 -33.5 -96t-111.5 -37q-117 -2 -170 106q-27 53 -86 53q-33 0 -57.5 -25.5t-24.5 -60.5z" />
<glyph unicode="&#xb4;" horiz-adv-x="395" d="M-1 1261.5q7 -36.5 39 -61t71.5 -27t70.5 30.5q55 59 76 84q18 23 49 55q31 33 62 68q33 37 27.5 75t-33 64.5t-66.5 30.5t-74 -27l-51 -55q-18 -20 -47 -52t-47 -52l-51 -60q-33 -37 -26 -73.5z" />
<glyph unicode="&#xb5;" horiz-adv-x="1271" d="M10 -301q-10 -49 16.5 -80t66.5 -38t75 12.5t43 68.5q31 168 80 373q14 -10 28 -19q178 -98 355 17q74 49 145 135l-39 -174q-10 -49 14.5 -81t63.5 -40t75 9.5t48 66.5q160 729 211 1034q10 49 -16.5 80t-66.5 37t-75 -13.5t-43 -70.5l-8 -45q-6 -8 -8 -17 q-127 -362 -238 -546q-90 -147 -176 -203q-72 -47 -141 -10q-2 4 -6 10l-17 20q-25 39 -45 51l8 35q119 461 160 662q10 49 -15.5 79.5t-65.5 39t-74.5 -10t-45.5 -67.5q-33 -162 -157 -652q-109 -424 -152 -663z" />
<glyph unicode="&#xb6;" horiz-adv-x="1339" d="M104 807q31 -137 140 -225q106 -90 274 -111q-2 -293 -10 -739q0 -49 30.5 -76t71.5 -28t72 23.5t31 76.5q16 973 6 1552v2q61 2 133 -4q0 -252 8 -770t8 -782q0 -51 31 -77t72 -26t71.5 25.5t30.5 77.5q0 264 -8 772t-8 749l35 -8q49 -10 80.5 14.5t40 63.5t-9 74.5 t-66.5 48.5q-242 53 -428 45q-285 -12 -435 -164q-109 -111 -153 -248q-47 -133 -17 -266zM303 852q-16 74 13.5 161t105.5 165q37 39 92 63q4 -264 4 -563q-182 31 -215 174z" />
<glyph unicode="&#xb7;" horiz-adv-x="229" d="M-2 788.5q-4 -45.5 37 -83.5q39 -41 84 -37t76.5 36.5t36 76.5t-36.5 83q-39 41 -83 37t-77 -35.5t-37 -77z" />
<glyph unicode="&#xb8;" horiz-adv-x="432" d="M0 -336q0 -57 59.5 -96t149.5 -39q94 0 158.5 59.5t64.5 145.5q0 74 -62.5 128t-158.5 52q-8 0 -18 -4q-12 -6 -25 -10l53 -29q2 39 32 75t85 85q-59 35 -109 49q-162 -135 -161 -213q0 -29 22.5 -49.5t54.5 -20.5q47 0 86 -10q47 -14 48 -59q-2 -29 -21.5 -47.5 t-46.5 -18.5q-45 0 -78 33q-18 18 -32.5 27.5t-34.5 9.5q-29 0 -47.5 -19.5t-18.5 -48.5z" />
<glyph unicode="&#xb9;" horiz-adv-x="681" d="M72 1176q0 -39 22.5 -62.5t69.5 -23.5q37 0 80 28q41 29 121 92q4 -102 4 -194q0 -66 -11 -338q-2 -49 27 -78t68 -29q37 0 63.5 26t28.5 73q14 229 14 377q0 168 -6 262q-10 156 -121 155q-45 0 -74.5 -17t-74.5 -56q-59 -49 -107 -82l-49 -37q-55 -45 -55 -96z" />
<glyph unicode="&#xba;" horiz-adv-x="866" d="M92 1116q0 -94 44 -169t120 -116q76 -40 168 -40q104 0 184 49t123 131q43 80 43 172q0 109 -72 186q-41 43 -112 80l-29 14q-25 33 -65 37q-23 16 -54 17q-41 0 -69 -29q-131 -29 -206 -116t-75 -216zM268 1116q4 150 178 172l54 -26q53 -29 75 -56q23 -27 23 -88 t-44.5 -110.5t-107.5 -49.5q-82 0 -131 45.5t-47 112.5z" />
<glyph unicode="&#xbb;" horiz-adv-x="1140" d="M102 772q0 -59 52 -90q152 -84 196 -117l19 -14l-15 -14q-39 -33 -188 -131q-47 -31 -47 -87q0 -31 16 -55q31 -47 86 -47q31 0 55 16q156 100 211 150q98 84 99 170v10q-6 88 -115 168q-55 39 -215 131q-25 12 -51 12q-59 0 -90 -51q-12 -25 -13 -51zM538 771 q1 -40 42 -71l77 -57l78 -53l51 -37l17 -12l-2 -2q-20 -16 -209 -158q-43 -31 -45 -70t23.5 -70.5t64.5 -42t80 18.5l219 166q109 94 92 184q-8 51 -51 95q-23 25 -70 57l-51 35l-74 53q-39 27 -78 57q-39 31 -77.5 20.5t-63 -42t-23.5 -71.5z" />
<glyph unicode="&#xbc;" horiz-adv-x="1835" d="M72 1176q0 -39 22.5 -62.5t69.5 -23.5q37 0 80 28q41 29 121 92q4 -102 4 -194q0 -66 -11 -338q-2 -49 27 -78t68 -29q37 0 63.5 26t28.5 73q14 229 14 377q0 168 -6 262q-10 156 -121 155q-45 0 -74.5 -17t-74.5 -56q-59 -49 -107 -82l-49 -37q-55 -45 -55 -96zM442 129 q-16 -37 0.5 -65.5t49 -42t66.5 -5.5t50 43q25 51 58 109l53 92l69 109q45 70 64 100l537 870q23 37 8 67t-46.5 45t-66.5 11t-53 -37l-537 -870l-63 -96l-70 -113q-25 -39 -59 -100q-35 -61 -60 -117zM1067 324q0 -43 32 -75t79 -34q166 -6 268 -6l-2 -137 q0 -39 25.5 -62.5t62.5 -23.5q35 0 59.5 22.5t26.5 61.5l2 141l94 2q39 0 62.5 25.5t23.5 62.5t-23.5 61.5t-62.5 24.5l-92 -4q2 143 -8 402q-2 51 -26.5 79.5t-65.5 28.5q-68 0 -111 -71q-102 -176 -289 -383q-55 -57 -55 -115zM1297 379l45 51q78 92 104 127l2 -176 q-67 2 -151 -2z" />
<glyph unicode="&#xbd;" horiz-adv-x="1953" d="M72 1176q0 -39 22.5 -62.5t69.5 -23.5q37 0 80 28q41 29 121 92q4 -102 4 -194q0 -66 -11 -338q-2 -49 27 -78t68 -29q37 0 63.5 26t28.5 73q14 229 14 377q0 168 -6 262q-10 156 -121 155q-45 0 -74.5 -17t-74.5 -56q-59 -49 -107 -82l-49 -37q-55 -45 -55 -96zM442 129 q-16 -37 0.5 -65.5t49 -42t66.5 -5.5t50 43q25 51 58 109l53 92l69 109q45 70 64 100l537 870q23 37 8 67t-46.5 45t-66.5 11t-53 -37l-537 -870l-63 -96l-70 -113q-25 -39 -59 -100q-35 -61 -60 -117zM1173 622q0 -45 26 -73.5t73 -28.5q31 0 56.5 21.5t33.5 56.5 q12 47 51 72.5t94 25.5q59 0 92 -23.5t33 -58.5q0 -37 -27.5 -63.5t-93.5 -57.5q-135 -63 -219 -127q-55 -41 -82.5 -89t-27.5 -114q0 -72 52 -122t128 -50q57 0 115 11q27 4 56.5 7t59.5 3q47 0 109 -12q49 -8 78 -9q41 0 71.5 27t30.5 70q0 61 -76 90q-80 29 -200 28 q-131 0 -230 -30q27 78 197 153q131 59 189.5 130t58.5 161q0 113 -84 187.5t-228 74.5q-86 0 -163.5 -39t-124.5 -100t-48 -121z" />
<glyph unicode="&#xbe;" horiz-adv-x="1853" d="M45 784q0 -51 43 -108q90 -127 295 -127q150 0 236 81t86 201q0 80 -51.5 148t-157.5 96v-51q92 27 131 85t39 126q0 55 -39 109.5t-107 89.5q-70 33 -155 32q-145 0 -234 -75q-33 -29 -49 -54.5t-16 -58.5q0 -35 24.5 -59.5t56.5 -24.5q31 0 50.5 13.5t40.5 39.5 q39 51 127 51q57 0 92 -24.5t35 -63.5q0 -37 -34 -59.5t-83 -22.5q-43 0 -68.5 -25.5t-25.5 -62.5q0 -35 27.5 -58.5t64.5 -20.5q59 4 106 -29t49 -88q4 -61 -33.5 -96t-111.5 -37q-117 -2 -170 106q-27 53 -86 53q-33 0 -57.5 -25.5t-24.5 -60.5zM538 129 q-16 -37 0.5 -65.5t49 -42t66.5 -5.5t50 43q25 51 58 109l53 92l69 109q45 70 64 100l537 870q23 37 8 67t-46.5 45t-66.5 11t-53 -37l-537 -870l-63 -96l-70 -113q-25 -39 -59 -100q-35 -61 -60 -117zM1083 313q0 -43 32 -75t79 -34q166 -6 268 -6l-2 -137 q0 -39 25.5 -62.5t62.5 -23.5q35 0 59.5 22.5t26.5 61.5l2 141l94 2q39 0 62.5 25.5t23.5 62.5t-23.5 61.5t-62.5 24.5l-92 -4q2 143 -8 402q-2 51 -26.5 79.5t-65.5 28.5q-68 0 -111 -71q-102 -176 -289 -383q-55 -57 -55 -115zM1313 368l45 51q78 92 104 127l2 -176 q-67 2 -151 -2z" />
<glyph unicode="&#xbf;" horiz-adv-x="964" d="M53 -74q20 -98 84 -168.5t153 -110.5t187 -50q92 -8 181.5 11t168.5 81q80 59 115 153q14 39 12 90v50q2 51 -27.5 77.5t-69.5 28.5t-72.5 -21.5t-34.5 -72.5v-64q2 -10 0 -18q-20 -57 -89 -89t-165 -22q-96 8 -162 55.5t-80 110.5q-10 47 6 82t68 80q4 6 34.5 39 t71.5 75t75 82t42 62q8 25 17.5 62.5t16.5 73.5t11 55q10 49 -14.5 80.5t-63.5 40t-74.5 -9t-48.5 -66.5q-8 -37 -18 -89.5t-19 -72.5q-12 -33 -44.5 -67t-65.5 -62l-60 -51q-78 -72 -118.5 -155t-16.5 -200zM389 906q-4 -40 33 -75q35 -37 75 -32.5t68.5 34t32.5 68.5 t-33 74q-35 37 -73.5 33t-68.5 -33t-34 -69z" />
<glyph unicode="&#xc0;" horiz-adv-x="1255" d="M27.5 50q17.5 -36 53.5 -53t74.5 -7t61.5 55q27 53 49 111l53 131l48 112q217 8 534 2q63 -166 143 -350q20 -47 58.5 -58t75 5t56 52t-0.5 83q-215 512 -326 873q-16 49 -71 202q-45 125 -60 189q-10 41 -46 63.5t-77 14.5q-57 -14 -75 -70q-14 -14 -21 -35 q-29 -80 -61 -160l-72 -176l-64 -149l-77 -174l-72 -156q-27 -59 -84 -203q-59 -143 -94 -221q-23 -45 -5.5 -81zM459 608q139 307 205 471q31 -82 47 -135q53 -172 112 -336q-204 2 -364 0zM513 1772.5q-3 -39.5 34 -70.5l153 -146q31 -37 71 -29.5t70.5 39t34 71.5 t-39.5 73l-148 143q-37 35 -77 28t-67.5 -38t-30.5 -70.5z" />
<glyph unicode="&#xc1;" horiz-adv-x="1267" d="M31 42q18 -34 55 -48t75 -3t56 56l148 369q59 6 128.5 8t116.5 2q61 -2 136 -5t131 -3q18 0 34 6q91 -213 148 -379q14 -47 51 -61.5t76 -1t59.5 46t3.5 80.5q-70 209 -264 645q-176 393 -242 608q4 35 -12 65.5t-49 42.5q-39 16 -79 0t-54 -55l-518 -1292q-18 -47 0 -81 zM451 625l180 448q57 -147 170 -401l22 -49q-272 6 -372 2zM500 1627q0 -38 22.5 -67.5t59 -37t75.5 21.5q96 74 191 146q41 33 43 71.5t-20.5 68.5t-58.5 40t-71 -15l-206 -157q-35 -33 -35 -71z" />
<glyph unicode="&#xc2;" horiz-adv-x="1224" d="M27.5 63.5q17.5 -36.5 53.5 -54t74.5 -8.5t61.5 54q53 133 133 324q84 0 260 6t267 6q10 0 20 2q63 -176 115 -334q16 -47 54 -61t76 -2t59.5 46t6.5 83l-84 237l-98 273l-88 225l-201 502q-14 39 -53 55.5t-80 -0.5q-6 -2 -12 -6q-55 -10 -76 -61l-326 -818 q-6 -12 -8 -24q-88 -215 -149 -363q-23 -45 -5.5 -81.5zM318.5 1571.5q5.5 -33.5 31 -57t60 -24.5t63.5 30l143 161l5 2l12 -12q96 -96 155 -149q33 -27 67 -21t56.5 30.5t23.5 59.5t-30 66q-55 47 -147 139q-33 33 -51 45q-39 31 -80 35q-45 2 -88 -29q-23 -16 -52 -49 l-143 -160q-31 -33 -25.5 -66.5zM432 584l197 499l192 -487l-200 -6q-132 -4 -189 -6z" />
<glyph unicode="&#xc3;" horiz-adv-x="1230" d="M30 35q19 -35 56 -50.5t75 -4t58 58.5q53 156 133 375h90q14 0 50 -1t57 -1q31 -2 124 -7.5t193 -9.5l54 -108q78 -154 106 -244q16 -47 54 -61.5t76 -2t59.5 46t7.5 83.5q-35 102 -119 270q-90 182 -115 248q-176 465 -258 737q-12 41 -49 61.5t-78 8.5q-8 -2 -14 -7 q-35 6 -65.5 -11t-43.5 -50q-72 -176 -235 -641q-143 -408 -215 -608q-20 -47 -1 -82zM235.5 1608q12.5 -43 46 -57.5t76.5 26.5q74 76 136 78q39 4 122 -53q47 -29 94.5 -53.5t104.5 -20.5q125 6 207 153q23 37 18.5 73t-25 58.5t-49 22.5t-53.5 -35q-41 -94 -106 -96 q-39 -2 -127 55l-57 35q-18 14 -59.5 26.5t-76.5 10.5q-125 -6 -239 -139q-25 -41 -12.5 -84zM426 618l12 39l160 447q67 -203 180 -500q-328 14 -352 14z" />
<glyph unicode="&#xc4;" horiz-adv-x="1239" d="M30 55q19 -35 56 -50t75 -4t58 58q74 176 154 396h90q14 0 50 -1t56 -1q31 -2 124 -7.5t194 -9.5q111 -283 139 -373q16 -47 54 -61t76 -2t59.5 46t7.5 83q-35 102 -111 289q-78 184 -102 250q-176 465 -258 737q-12 41 -49 61.5t-78 8.5q-8 -2 -15 -7q-35 6 -65.5 -11 t-42.5 -50q-72 -176 -236 -641q-143 -408 -235 -629q-20 -47 -1 -82zM324.5 1709q-11.5 -56 33.5 -103q33 -39 83.5 -42t92.5 22.5t48 74.5q6 47 -4 76q-14 39 -33 55q-18 16 -39 23q-23 8 -51 8q-45 2 -74 -21q-45 -37 -56.5 -93zM446 659l13 39l159 447q68 -203 181 -500 q-328 14 -353 14zM666.5 1709q-11.5 -56 33.5 -103q33 -39 83.5 -42t92.5 22.5t48 74.5q6 47 -4 76q-14 39 -33 55q-18 16 -39 23q-23 8 -51 8q-45 2 -74 -21q-45 -37 -56.5 -93z" />
<glyph unicode="&#xc5;" horiz-adv-x="1255" d="M30 46q19 -36 56 -52.5t75 -5t58 58.5q72 170 146 367h92q14 0 51 -1t57 -1q31 -2 124 -7.5t194 -9.5l53 -108q77 -154 106 -244q16 -47 54.5 -61.5t76 -2t59 46t7.5 83.5q-35 102 -119 270q-90 182 -114 248q-176 465 -258 737q-20 51 -25 59q-33 57 -90 58 q-47 0 -68.5 -16.5t-40.5 -41.5q-8 -18 -26 -53q-78 -188 -234 -627q-135 -383 -233 -614q-20 -47 -1 -83zM438 618l19 56l157 432q68 -203 181 -502q-328 14 -357 14zM438 1721.5q0 -68.5 51 -126.5q33 -39 83.5 -57t101.5 -12t86 41q53 51 67 123q16 70 -4 141 q-25 70 -90 100q-27 12 -61 11q-8 -2 -13 -3q-6 -2 -8 -2h-4q-25 0 -39 -16q-84 -18 -127 -74.5t-43 -125zM563.5 1756q16.5 38 71.5 52q14 4 24 13q4 2 11 2h6h4l4 2h2q16 -12 26.5 -43t0.5 -70q-15 -78 -74 -70q-53 6 -72.5 41t-3 73z" />
<glyph unicode="&#xc6;" horiz-adv-x="1937" d="M13 49q18 -37 54.5 -55.5t74.5 -9t61 56.5l168 360l503 -8q4 -141 5 -264q-4 -16 -5 -33q2 -43 33 -71.5t74 -26.5q305 12 772 12q51 0 76.5 31t25.5 72t-25.5 71.5t-76.5 30.5q-399 0 -670 -8q-2 178 -14 436q115 -2 330 2q213 2 309 2q51 0 76.5 31t25.5 72t-25.5 71.5 t-76.5 30.5q-94 0 -311 -2q-219 -4 -336 -2q-14 281 -19 426h152q393 -8 532 -2q51 2 75 34.5t22 72.5t-29 70t-76 28q-117 -6 -522 2q-336 6 -539 -15q-33 -4 -58.5 -26.5t-31.5 -55.5l-272 -641l-127 -290q-78 -176 -150 -320q-23 -45 -5 -82zM461 604l278 662q47 4 99 6 q2 -53 5 -135t7 -169t8 -157q6 -135 8 -213q-199 2 -405 6z" />
<glyph unicode="&#xc7;" horiz-adv-x="1456" d="M92 721q0 -115 41 -239t115 -228q72 -104 162 -162q80 -51 188 -79.5t221 -28.5q39 0 58 2q147 12 261.5 71.5t178.5 169.5q18 39 53 146l14 43q6 18 7 37q0 45 -33 73.5t-74 28.5q-29 0 -54.5 -18.5t-37.5 -51.5l-21 -65q-20 -70 -34 -94q-76 -137 -324 -138 q-82 0 -160 20.5t-133 55.5q-59 39 -110.5 116t-82 167t-30.5 174q0 233 186 414q127 121 314 137q88 6 176 -31q39 -16 78 -46t67 -60l76 -93q33 -39 76 -38q43 0 75.5 30.5t32.5 71.5q0 33 -24 63l-62 76q-63 72 -116.5 116t-128.5 73q-117 45 -234 45q-135 0 -268 -56 q-113 -49 -203 -139q-119 -119 -184.5 -264.5t-65.5 -298.5zM559 -336q0 -57 59.5 -96t149.5 -39q94 0 158.5 59.5t64.5 145.5q0 74 -62.5 128t-158.5 52q-8 0 -18 -4q-12 -6 -25 -10l53 -29q2 39 32 75t85 85q-59 35 -109 49q-162 -135 -161 -213q0 -29 22.5 -49.5 t54.5 -20.5q47 0 86 -10q47 -14 48 -59q-2 -29 -21.5 -47.5t-46.5 -18.5q-45 0 -78 33q-18 18 -32.5 27.5t-34.5 9.5q-29 0 -47.5 -19.5t-18.5 -48.5z" />
<glyph unicode="&#xc8;" horiz-adv-x="1419" d="M184 98q0 -33 17.5 -58.5t44.5 -37.5q30 -20 65 -18q494 29 920 12q51 -2 77.5 27.5t27.5 69.5t-22.5 73t-74.5 35q-432 16 -848 -6q2 63 6 221q2 156 4 239q111 8 295 9q299 0 387 4q51 2 75 34.5t23 72.5t-28 69.5t-78 27.5q-86 -4 -379 -4q-172 0 -290 -6q4 213 2 389 q80 6 136 8.5t104 1.5t106.5 -2.5t140.5 -3.5q166 -6 258 -6q51 0 76.5 31t25.5 72t-25.5 71.5t-76.5 30.5q-66 0 -163 3t-203.5 6t-202.5 3q-141 -2 -269 -18q-10 -2 -22 -6q-39 -4 -65.5 -34t-26.5 -71q0 -354 2 -413q0 -20 -1 -82t-3 -149t-4 -181t-4.5 -181t-4.5 -149.5 t-2 -83.5zM554 1770.5q-3 -39.5 34 -70.5l153 -146q31 -37 71 -29.5t70.5 39t34 71.5t-39.5 73l-148 143q-37 35 -77 28t-67.5 -38t-30.5 -70.5z" />
<glyph unicode="&#xc9;" horiz-adv-x="1304" d="M197 106q2 -18 10 -34q6 -41 38.5 -65.5t73.5 -20.5q76 10 154 15t170 5t213 -2q182 -4 248 -4q51 0 76.5 30.5t25.5 71.5t-25.5 72t-76.5 31q-55 0 -137 2t-173.5 3t-172.5 1q-119 -2 -226 -10q-14 223 -14 399q100 12 210.5 14t266.5 -2t227 -4q51 0 77 31t26 72 t-25.5 71.5t-77.5 30.5q-55 0 -136 2t-170 4t-171 0q-119 -2 -225 -12q6 150 18 393q68 12 351 2q281 -12 366 -12q51 0 77 30.5t26 71.5t-26 72t-77 31q-70 0 -162 3t-186 7t-172 6q-104 0 -289 -12q-41 2 -72.5 -27t-33.5 -69q-45 -780 -6 -1197zM583 1639.5 q-1 -35.5 22.5 -65.5t60 -38.5t73.5 18.5q82 68 183 140q37 31 40 67.5t-18.5 65t-56.5 38t-72 -17.5l-192 -147q-39 -25 -40 -60.5z" />
<glyph unicode="&#xca;" horiz-adv-x="1366" d="M184 520.5q0 -104.5 3 -212t12 -199.5q2 -18 8 -33q4 -41 35.5 -67.5t72.5 -24.5q285 20 863 -7q49 -2 75.5 28t28.5 70t-21.5 72.5t-74.5 34.5q-524 23 -789 13q-12 188 -6 436q113 6 332 6q315 0 414 6q51 2 74.5 35t20.5 73t-29.5 69.5t-78.5 27.5q-94 -6 -401 -6 q-207 0 -326 -6q2 25 4 80t4.5 121.5t5.5 126t3 87.5q141 4 403 -2q260 -6 363 -6q51 0 76.5 31t25.5 71.5t-25.5 71.5t-76.5 31q-74 0 -441 8q-367 6 -440 -2q-43 -2 -71.5 -32.5t-26.5 -73.5q0 -20 10 -41q-2 -100 -10 -287l-15 -311q-2 -84 -2 -188.5zM451.5 1598.5 q5.5 -33.5 31 -57t60 -25t63.5 29.5l144 162l4 2l12 -12q96 -96 156 -150q33 -27 66.5 -20.5t56 31t23.5 59.5t-30 65q-55 47 -147 140q-33 33 -51 45q-39 31 -80 35q-45 2 -88 -29q-23 -16 -51 -49l-144 -160q-31 -33 -25.5 -66.5z" />
<glyph unicode="&#xcb;" horiz-adv-x="1402" d="M184 1368q0 -23 9 -41q16 -780 8 -1204q0 -8 2 -19q-2 -6 -2 -12q0 -43 28.5 -73.5t71.5 -30.5q698 8 911 -4q51 -2 78 27.5t30 69.5t-20.5 72.5t-74.5 34.5q-246 14 -817 2q2 205 0 443q98 -2 733 6q49 0 74.5 30.5t24.5 71.5t-26.5 72t-76.5 31q-633 -8 -731 -6 q-2 172 -7 428l267 -9q92 -2 153.5 -3t113.5 -2t113.5 0t153.5 3q51 2 74.5 35t22.5 73t-27.5 69.5t-77.5 27.5q-174 -6 -492 2q-317 8 -413 8q-43 0 -73 -29.5t-30 -72.5zM446.5 1719.5q-24.5 -52.5 28.5 -109.5q39 -45 93.5 -49.5t99.5 25.5t57 87q10 8 -4 56 q-16 47 -62 69q-16 8 -41 6q-4 -2 -8 -2h-3h-3h-2q-16 0 -47 -10q-84 -20 -108.5 -72.5zM816.5 1718.5q-23.5 -51.5 29.5 -110.5q39 -45 93 -49.5t99.5 25.5t57.5 87q10 8 -4 55q-16 47 -62 70q-16 8 -41 6q-4 -2 -18 -2h-11.5h-5.5h-2q-16 0 -26 -10q-86 -20 -109.5 -71.5z " />
<glyph unicode="&#xcc;" horiz-adv-x="589" d="M52 1768.5q-3 -39.5 34 -70.5l153 -146q31 -37 71 -29.5t70.5 39t33.5 71.5t-40 73l-147 143q-37 35 -77 28t-67.5 -38t-30.5 -70.5zM184 1360q0 -147 11 -582q10 -434 2 -669q-2 -51 27.5 -78t69.5 -28t72.5 22.5t34.5 74.5q8 236 -2 676q-10 438 -10 584 q0 51 -30.5 76.5t-71.5 25.5t-72 -25.5t-31 -76.5z" />
<glyph unicode="&#xcd;" horiz-adv-x="632" d="M184 1627q0 -38 22.5 -67.5t59.5 -37t76 21.5q96 74 190 146q41 33 43 71.5t-20.5 68.5t-58.5 40t-70 -15l-207 -157q-35 -33 -35 -71zM192 1360q0 -147 11 -582q10 -434 2 -669q-2 -51 27.5 -78t69.5 -28t72.5 22.5t34.5 74.5q8 236 -2 676q-10 438 -10 584 q0 51 -30.5 76.5t-71.5 25.5t-72 -25.5t-31 -76.5z" />
<glyph unicode="&#xce;" horiz-adv-x="589" d="M-14 1605.5q2 -36.5 26.5 -62t60.5 -25.5t73 41l137 157q106 -123 137 -157q39 -41 75 -41t59.5 25.5t25.5 63.5t-27 70q-53 57 -106 119q-35 41 -74 78q-45 35 -90 35q-43 0 -80 -35q-20 -18 -51 -49l-135 -148q-33 -35 -31 -71.5zM184 1360q0 -147 11 -582 q10 -434 2 -669q-2 -51 27.5 -78t69.5 -28t72.5 22.5t34.5 74.5q8 236 -2 676q-10 438 -10 584q0 51 -30.5 76.5t-71.5 25.5t-72 -25.5t-31 -76.5z" />
<glyph unicode="&#xcf;" horiz-adv-x="589" d="M8 1698q-10 -53 31 -101q31 -35 79 -38t88 22t46 70t-4 73q-14 37 -31 52q-18 16 -37 22q-23 8 -49 8q-43 2 -70 -20q-43 -35 -53 -88zM184 1360q0 -147 11 -582q10 -434 2 -669q-2 -51 27.5 -78t69.5 -28t72.5 22.5t34.5 74.5q8 236 -2 676q-10 438 -10 584 q0 51 -30.5 76.5t-71.5 25.5t-72 -25.5t-31 -76.5zM334 1698q-10 -53 31 -101q31 -35 79 -38t88 22t46 70t-5 73q-14 37 -30 52q-18 16 -37 22q-23 8 -49 8q-43 2 -70 -20q-43 -35 -53 -88z" />
<glyph unicode="&#xd0;" horiz-adv-x="1492" d="M63 737q-2 -43 31 -70.5t76 -27.5l545 2q39 0 67.5 24.5t30.5 63.5q0 41 -27.5 69.5t-68.5 28.5l-555 -2q-43 0 -71 -25.5t-28 -62.5zM184 111q0 -35 19.5 -63t52.5 -38q26 -16 57 -14q49 2 187 2q127 0 205 6q262 20 415 143q129 102 203 263q72 162 78 335 q6 180 -60.5 343t-210.5 268q-68 49 -154.5 79.5t-158.5 45.5q-72 12 -172 12q-68 0 -112 -1t-87 -4t-106 -9q-20 -2 -39 -13h-8q-41 2 -73 -26.5t-34 -71.5q-6 -113 2 -315q8 -207 7 -301q-10 -575 -11 -641zM389 1276q123 10 223.5 13t206.5 -21q104 -25 180 -80 q94 -68 144 -184q47 -115 41 -250q-4 -135 -58.5 -255t-144.5 -192q-106 -84 -293 -98q-68 -6 -188 -6h-109q0 43 1 109.5t2 137t3 128.5q2 109 2 170q2 90 -6 313q-6 156 -4 215z" />
<glyph unicode="&#xd1;" horiz-adv-x="1570" d="M180 520q0 -250 19 -448q4 -49 37.5 -72t74.5 -19.5t69 32t23 79.5q-37 383 -2 1002l39 -52q129 -164 181 -237q61 -86 157 -238l197 -293q94 -135 188 -237q18 -20 45 -29q31 -28 72 -28q43 0 72.5 29.5t29.5 72.5q0 51 4 225q2 174 0 271q-2 78 -7 170t-9 184t-4 170 q0 63 6 262q2 51 -27.5 77.5t-69.5 30t-73 -20.5t-35 -75q-6 -92 -5 -203.5t5 -195.5q2 -61 5.5 -135t5.5 -145.5t4 -127.5q2 -92 0 -233q-72 96 -199 295q-125 197 -195 293q-53 74 -186 243q-115 150 -176 238q-39 57 -107 43q-43 2 -74.5 -25.5t-33.5 -70.5l-23 -443 q-8 -139 -8 -389zM410 1598.5q2 -33.5 18 -58t44 -28t63 29.5q74 80 135 82q39 4 112 -47q57 -37 103.5 -63.5t105.5 -22.5q125 6 207 162q23 39 18.5 76.5t-26 61.5t-49 24t-51.5 -37q-41 -98 -107 -101q-39 -2 -113 47l-57 39q-78 51 -149 47q-125 -6 -240 -147 q-16 -31 -14 -64.5z" />
<glyph unicode="&#xd2;" horiz-adv-x="1495" d="M97.5 570.5q13.5 -132.5 62.5 -245t133 -190.5q86 -78 246 -125q145 -41 267 -26.5t253 84.5q147 76 233 205.5t105 275.5q16 145 -12.5 291.5t-98.5 271.5q-68 121 -166 204t-229 150q-29 14 -62 11q-16 6 -34 6q-47 6 -133.5 1t-159.5 -36q-109 -47 -192 -140.5 t-135 -215t-71 -256.5q-20 -133 -6.5 -265.5zM307 805q23 164 97.5 286.5t179.5 168.5q41 18 88 20t119 -2h14q215 -111 301 -264q78 -139 91 -290t-46 -280t-186 -196q-98 -49 -182.5 -59.5t-186.5 18.5q-113 33 -164 80q-82 74 -115.5 215t-9.5 303zM550 1766 q-3 -40 34 -70l153 -146q31 -37 71 -29.5t70.5 39t33.5 71.5t-40 73l-147 143q-37 35 -77 28t-67.5 -38t-30.5 -71z" />
<glyph unicode="&#xd3;" horiz-adv-x="1591" d="M96 717q-10 -113 6.5 -221.5t59.5 -192.5q61 -113 172.5 -191.5t230.5 -107.5q117 -33 244 -31q170 2 307 62q135 63 218 161.5t126 223.5q41 123 39 256q-4 272 -174 500q-84 111 -215 192.5t-293 114.5q-55 10 -94 -27q-102 2 -182 -29q-145 -57 -246.5 -192 t-155.5 -305q-33 -100 -43 -213zM298 608q-3 129 38 266q43 135 116.5 233.5t161.5 135.5q37 14 76 14t105 -4q33 -2 59 15q137 -45 234.5 -136.5t150.5 -210t55 -247.5q2 -135 -49 -246t-164 -180q-114 -72 -276 -74q-152 -2 -278 55.5t-181 165.5q-45 84 -48 213z M603 1625q3 -40 34 -71.5t70.5 -39t70.5 29.5l154 146q37 31 34 70.5t-31 70.5t-68 38t-76 -28l-148 -143q-43 -33 -40 -73z" />
<glyph unicode="&#xd4;" horiz-adv-x="1560" d="M92 674q6 -131 58 -254q76 -199 241 -324q168 -127 391 -119q258 8 432 152q172 143 228 358q37 139 20.5 285t-84 278t-184.5 232q-43 37 -109 80q-88 61 -143 78q-2 0 -26.5 3t-55.5 7t-54 7l-22 3q-66 8 -98 -47q-88 -18 -137 -33q-57 -20 -166 -108q-66 -57 -109 -98 q-100 -102 -144 -235.5t-38 -264.5zM299 782q23 150 121 252q37 37 96 86q76 66 102 74q25 8 51.5 14t63.5 15l70 10q27 6 45 24q20 -2 37 -8q23 -6 86 -49q55 -37 88 -67q133 -113 180 -275q49 -164 8 -320.5t-164 -256.5q-119 -101 -309 -107q-145 -6 -260 82 q-119 88 -176 233q-59 141 -39 293zM504.5 1575.5q5.5 -33.5 31 -57t60 -24.5t63.5 30l144 162l4 2l12 -13q96 -96 156 -149q33 -27 66.5 -21t56 31t23.5 59.5t-29 65.5q-55 47 -148 139q-33 33 -51 45q-39 31 -80 35q-45 2 -88 -29q-23 -16 -51 -49l-144 -160 q-31 -33 -25.5 -66.5z" />
<glyph unicode="&#xd5;" horiz-adv-x="1615" d="M92 641q0 -170 65.5 -320.5t202.5 -246.5q53 -37 126 -61.5t151.5 -38t146.5 -15.5q160 -6 294 44t225 140q90 90 147 205q55 113 72 242q16 125 -6 254q-25 127 -86.5 241.5t-172.5 206.5t-256 140q-23 8 -67.5 17t-88.5 14t-63 5q-61 10 -98 -38q-256 -63 -383 -211 q-96 -113 -151.5 -266.5t-57.5 -311.5zM297 639q2 123 43 242q43 119 117 202q53 61 127 97q74 33 188 59q23 6 41 21q92 -10 123 -21q141 -47 235.5 -148.5t128.5 -222.5q35 -123 19 -254q-18 -133 -86 -236.5t-179 -161.5t-261 -52q-55 2 -117 12t-114 26.5t-83 39.5 q-92 63 -137 166.5t-45 230.5zM402.5 1606q11.5 -43 48 -58.5t81.5 23.5q78 80 144 82q39 4 129 -56q49 -31 97.5 -56t109.5 -21q131 6 217 161q25 39 20.5 77t-27 61.5t-52 23.5t-54.5 -37q-43 -98 -112 -100q-41 -2 -134 57l-59 37q-20 14 -63 27.5t-80 11.5 q-131 -6 -250 -147q-27 -43 -15.5 -86z" />
<glyph unicode="&#xd6;" horiz-adv-x="1636" d="M100 608q20 -147 82 -274t176 -225q115 -101 265 -136q166 -35 306 -13t253 91q113 68 191.5 166t123.5 221q43 119 46 248t-32 254q-35 123 -120.5 235.5t-214.5 190.5q-33 18 -66 34.5t-74 29.5l-57 18q-14 4 -42 11t-54.5 12.5t-32.5 7.5q-27 8 -53 0 q-254 0 -410 -107q-174 -121 -246 -332t-41 -432zM303 637q-25 174 29 330q53 158 170 237q102 70 301 70q10 0 18 2l37 -10q10 -2 33.5 -8.5t43 -11.5t23.5 -5l25 -10q35 -12 57 -25l29 -16q125 -74 190.5 -186.5t77 -241.5t-31.5 -254q-70 -188 -236 -287 q-168 -100 -401 -47q-147 33 -243.5 159t-121.5 304zM466 1682.5q1 -46.5 36 -85.5q39 -45 93 -49t99.5 26t57.5 87q10 49 -4 96q-16 47 -62 70q-16 8 -41 6q-4 -2 -8 -2h-3h-3h-2q-16 0 -47 -10q-57 -14 -87 -53t-29 -85.5zM837 1680q1 -46 35 -85q39 -45 93.5 -49t99.5 26 t57 87q10 49 -4 96q-16 47 -61 70q-16 8 -41 6q-4 -2 -19 -2h-11h-5h-2q-16 0 -27 -10q-57 -14 -86.5 -53.5t-28.5 -85.5z" />
<glyph unicode="&#xd7;" d="M158 980q-6 -42 28 -81q119 -139 357 -369l-92 -94q-150 -150 -236 -262q-33 -41 -25.5 -83t38 -69.5t71.5 -27.5t72 41q82 102 221 246l102 102l25 -25q55 -53 151 -159l156 -170q37 -37 76 -32t67.5 34.5t32.5 71.5t-33 81q-45 45 -151 164q-102 115 -160 172l-18 17 q47 49 164 188q102 119 165 184q37 37 34 78t-31.5 72t-68.5 36t-77 -30q-68 -70 -174 -195q-125 -147 -164 -188q-231 223 -350 360q-33 41 -73 39t-70.5 -30.5t-36.5 -70.5z" />
<glyph unicode="&#xd8;" horiz-adv-x="1609" d="M65.5 14.5q6.5 -30.5 32 -52t57 -23t56.5 31.5l213 195l442 473l676 739q25 31 21 63t-27 54.5t-54.5 24.5t-60.5 -27l-1112 -1210l-223 -207q-27 -31 -20.5 -61.5zM90 664q0 -170 75 -315.5t212 -242.5q80 -55 191.5 -87.5t213.5 -36.5q160 -6 294 44t224 140t148 205 q55 113 72 241q16 125 -7 254q-25 127 -86 242t-172 207t-256 139q-23 8 -67.5 17.5t-88.5 14.5t-63 5q-61 10 -98 -39q-256 -63 -383 -211q-96 -113 -151.5 -266.5t-57.5 -310.5zM295 662q2 123 43 241q43 119 117 203q53 61 127 96q74 33 188 60q23 6 41 20 q92 -10 123 -20q141 -47 235.5 -148.5t128.5 -222.5q35 -123 19 -254q-18 -133 -86 -236.5t-179 -162t-261 -52.5q-84 2 -167 29t-128 59q-92 63 -146.5 162t-54.5 226z" />
<glyph unicode="&#xd9;" horiz-adv-x="1488" d="M147 866q-8 -406 76 -579q45 -92 129 -162t188.5 -110t214 -43t203.5 36q166 61 279 277q111 213 109 575q-2 115 -19 326q-16 209 -16 227q-2 51 -35 74.5t-73 20.5t-69.5 -29.5t-27.5 -77.5q0 -10 5 -73.5t12 -150.5t12.5 -174.5t5.5 -144.5q2 -311 -84 -479 q-76 -143 -168 -178q-86 -31 -184.5 -16.5t-179.5 64.5t-117 128q-63 129 -56 483q6 236 43 524q4 51 -23.5 80t-67.5 33t-73.5 -17.5t-40.5 -70.5q-37 -297 -43 -543zM538 1754q-3 -40 33 -71l154 -145q31 -37 71 -29.5t70.5 39t33.5 71.5t-40 73l-147 143q-37 35 -77 27.5 t-67.5 -38t-30.5 -70.5z" />
<glyph unicode="&#xda;" horiz-adv-x="1435" d="M140 1024q-1 -92 1 -194.5t13 -186.5q14 -127 43 -223q29 -90 89 -185.5t134 -148.5q115 -80 258 -94.5t276 49.5q133 61 207 188q35 66 53.5 119t29.5 109.5t30 134.5q10 53 14 141q2 86 4 127q2 27 1 82t-3 107.5t-2 70.5q-4 63 -9 138t-5 122q-2 51 -35 75t-73 21 t-69.5 -30t-27.5 -78q2 -14 4 -88q10 -186 12 -260q2 -63 1 -150.5t-7 -178.5t-22 -165q-27 -111 -76 -194q-39 -72 -116 -107t-165 -28.5t-161 57.5q-41 29 -84 96.5t-62 130.5q-16 53 -26.5 128t-15.5 159t-6 164t1 141q2 72 14 289q2 51 -27.5 77.5t-69.5 28.5 t-72.5 -21.5t-34.5 -72.5q-8 -137 -13 -205q-2 -53 -3 -145zM576.5 1627q3.5 -40 34 -71.5t70.5 -39t71 29.5l153 146q37 31 34 70.5t-30.5 70.5t-67.5 38t-77 -28l-148 -143q-43 -33 -39.5 -73z" />
<glyph unicode="&#xdb;" horiz-adv-x="1406" d="M154 1040q2 -79 5 -158t3 -141q0 -31 -1 -88t0 -120.5t9 -112.5q8 -68 27 -117q33 -88 104.5 -152.5t167 -103.5t197.5 -49q68 -10 145.5 -1t144.5 32q68 23 127 71q59 51 93 123q88 190 88 584q0 117 -11 315q-10 197 -10 252q0 51 -30.5 76t-71.5 24t-72 -28t-31 -76 q0 -55 11 -252q10 -197 10 -311q0 -350 -68 -498q-25 -53 -87 -79.5t-140 -29.5t-156 15t-137 58t-82 100q-25 76 -23.5 180t1.5 192q0 61 -2.5 138.5t-4.5 154t0 136.5q0 35 2 186q2 51 -27.5 77.5t-69.5 27.5t-72.5 -22.5t-34.5 -74.5q-2 -160 -2 -188q-4 -61 -2 -140z M394 1576.5q5 -32.5 31 -56t59.5 -25.5t60.5 31l141 157l4 3l12 -13q94 -94 152 -145q33 -27 66.5 -21t55 31t22.5 58.5t-29 62.5q-53 47 -144 137q-33 33 -51 43q-37 31 -78 35q-45 2 -86 -29q-23 -14 -51 -47l-139 -158q-31 -31 -26 -63.5z" />
<glyph unicode="&#xdc;" horiz-adv-x="1439" d="M152 858q10 -401 92 -563q51 -104 102 -154q61 -59 156.5 -99t195.5 -52q248 -29 387 102q143 137 185 453q14 119 19 251t3 253t0 321q0 49 -30.5 76t-71.5 28t-72 -24t-31 -76q-2 -70 -2 -151.5t1 -162.5t0 -148.5t-1 -106.5q-6 -121 -20 -236q-31 -242 -123 -329 q-68 -63 -219 -47q-74 10 -135 36q-63 27 -99 60q-27 25 -61 96q-61 123 -72 479q-6 174 11 492q2 51 -28 77.5t-70 28.5t-72.5 -21.5t-34.5 -72.5q-16 -315 -10 -510zM395 1673q0 -45 37 -84q39 -45 92.5 -49t97.5 25t54 86q10 49 -4 94q-14 47 -60 70q-16 8 -41 6 q-4 -2 -6 -2h-3h-3h-2q-16 0 -47 -11q-55 -14 -85 -52t-30 -83zM761 1670q1 -46 34 -83q39 -45 92 -50t97 25t56 87q10 49 -4 94q-16 47 -59 69q-16 8 -41 7q-4 -2 -18 -2h-11.5h-5.5h-2q-16 0 -25 -11q-55 -14 -84.5 -52t-28.5 -84z" />
<glyph unicode="&#xdd;" horiz-adv-x="1196" d="M13.5 1401q-15.5 -37 9.5 -82q63 -119 139 -246l327 -538q2 -45 5 -177q2 -207 10 -266q4 -49 37.5 -71.5t74.5 -19.5t69 31.5t24 80.5q-8 55 -11 247q-2 133 -4 179q2 4 4 10q45 94 148 242q102 145 139 202l96 166q66 115 93 156q29 41 17.5 80t-45.5 61.5t-74 18 t-66 -44.5q-43 -63 -103 -168q-80 -139 -94 -162q-29 -47 -107 -158t-116 -174q-291 477 -383 649q-25 45 -65 52.5t-74.5 -12t-50 -56.5zM475 1627q0 -38 22.5 -67.5t59.5 -37t76 21.5q96 74 190 146q41 33 43 71.5t-20.5 68.5t-58.5 40t-70 -15l-207 -157q-35 -33 -35 -71 z" />
<glyph unicode="&#xde;" horiz-adv-x="1316" d="M180 1366q-13 -682 10 -1268q2 -51 35 -74.5t73 -22.5t69.5 27.5t27.5 77.5q-6 143 -8 289q23 -12 71 -11t111 3q96 0 152 2q219 12 311 72q115 74 180 157q92 117 52 302q-39 176 -158 251q-129 82 -404 93q-31 2 -317 0v98q0 49 -30.5 75.5t-71.5 27.5t-72 -23.5 t-31 -75.5zM381 1059q281 2 313 0q221 -8 301 -60q31 -20 51.5 -71t23.5 -103.5t-17 -79.5q-45 -57 -131 -112q-47 -31 -211 -39q-55 -2 -152 -2q-98 -2 -129 -4q-24 -3 -47 -15q-4 238 -2 486z" />
<glyph unicode="&#xdf;" horiz-adv-x="1142" d="M109 816q0 -71 4 -142q4 -102 4 -121q8 -293 33 -504q8 -49 41.5 -70.5t72.5 -17.5t66.5 33t23.5 80q-25 201 -32 487q0 53 -5.5 125t-5.5 129q0 33 4 129q14 207 103 297q43 45 110.5 66.5t130.5 11.5q123 -18 123 -143q0 -115 -88 -172q-29 -20 -67 -33q-8 -4 -29 -10 q-10 -2 -14 -5q-10 -4 -17 -8l-8 -6q-25 -10 -39 -49q-18 -53 -4 -96q23 -66 94 -76q23 -4 56 -2q2 0 16 2t23 2q82 6 126 -51q63 -78 58 -201q-6 -117 -80 -184.5t-229 -122.5q-47 -16 -60.5 -54t-0.5 -76t48 -58.5t82 -4.5q82 29 179.5 79t160.5 128q41 49 71 122t34 159 q10 203 -103 344q-49 59 -110 90q106 113 106 283q0 147 -85 236t-212 110q-111 16 -226.5 -21t-193.5 -117q-139 -145 -159 -423q-2 -74 -2 -145z" />
<glyph unicode="&#xe0;" horiz-adv-x="1163" d="M86 555.5q-29 -104.5 2 -236.5q31 -131 137 -219q61 -53 141 -78.5t156 -23.5t150 22q86 25 164 82v-8q2 -49 34.5 -72.5t72.5 -22.5t69.5 27.5t27.5 75.5q-2 66 -3 159t-1 186.5t-4 160.5q-8 135 -35 258q-2 45 -34 74q0 2 -13 14l-26 27q-14 12 -34 28.5t-36 24.5 q-141 70 -267 49.5t-231.5 -106.5t-181.5 -217q-59 -100 -88 -204.5zM356 256q-160 139 2 414q82 137 190.5 187t207.5 -3q25 -16 43 -41q35 -168 35 -444q-6 -4 -11 -9q-57 -43 -100 -84t-109 -59q-72 -20 -141.5 -10t-116.5 49zM453 1424q-2 -40 34 -70l164 -156 q33 -35 72 -26.5t67.5 41t29.5 73.5t-42 70l-157 157q-37 33 -76 24t-64.5 -41t-27.5 -72z" />
<glyph unicode="&#xe1;" horiz-adv-x="1159" d="M82 555.5q-29 -104.5 2 -236.5q31 -131 137 -219q125 -109 316 -100q91 4 165 33q68 29 129 92v-31q2 -49 35 -72.5t73 -22.5t69.5 27.5t27.5 75.5q-2 66 -3 159t-1 186.5t-4 160.5q-8 135 -35 258q-2 45 -35 74q0 2 -12 14l-26 27q-14 12 -34 28.5t-36 24.5 q-141 70 -267 49.5t-231.5 -106.5t-181.5 -217q-59 -100 -88 -204.5zM352 256q-160 139 2 414q82 137 190.5 187t207.5 -3q25 -16 43 -41q35 -168 34 -444q-6 -4 -10 -9q-45 -68 -108.5 -100.5t-100.5 -42.5q-72 -20 -141.5 -10t-116.5 49zM499 1261.5q7 -36.5 39 -61 t71.5 -27t70.5 30.5q55 59 76 84q18 23 49 55q31 33 62 68q33 37 27.5 75t-33 64.5t-66.5 30.5t-74 -27l-51 -55q-18 -20 -47 -52t-47 -52l-51 -60q-33 -37 -26 -73.5z" />
<glyph unicode="&#xe2;" horiz-adv-x="1159" d="M82 555.5q-29 -104.5 2 -236.5q31 -131 137 -219q125 -109 316 -100q91 4 165 33q68 29 129 92v-31q2 -49 35 -72.5t73 -22.5t69.5 27.5t27.5 75.5q-2 66 -3 159t-1 186.5t-4 160.5q-8 135 -35 258q-2 45 -35 74q0 2 -12 14l-26 27q-14 12 -34 28.5t-36 24.5 q-141 70 -267 49.5t-231.5 -106.5t-181.5 -217q-59 -100 -88 -204.5zM324 1265.5q2 -36.5 26.5 -62t60.5 -25.5t73 41l137 157q106 -123 137 -157q39 -41 75 -41t59.5 25.5t25.5 63.5t-27 70q-53 57 -106 119q-35 41 -74 78q-45 35 -90 35q-43 0 -80 -35q-20 -18 -51 -49 l-135 -148q-33 -35 -31 -71.5zM352 256q-160 139 2 414q82 137 190.5 187t207.5 -3q25 -16 43 -41q35 -168 34 -444q-6 -4 -10 -9q-45 -68 -108.5 -100.5t-100.5 -42.5q-72 -20 -141.5 -10t-116.5 49z" />
<glyph unicode="&#xe3;" horiz-adv-x="1171" d="M86 555.5q-29 -104.5 2 -236.5q31 -131 137 -219q61 -53 141 -78.5t156 -23.5t150 22q86 25 164 82v-8q2 -49 34.5 -72.5t72.5 -22.5t69.5 27.5t27.5 75.5q-2 66 -3 159t-1 186.5t-4 160.5q-8 135 -35 258q-2 45 -34 74q0 2 -13 14l-26 27q-14 12 -34 28.5t-36 24.5 q-141 70 -267 49.5t-231.5 -106.5t-181.5 -217q-59 -100 -88 -204.5zM199.5 1309q11.5 -43 48.5 -58.5t82 23.5q78 80 143 82q39 4 129 -56q49 -31 97.5 -56t109.5 -21q131 6 217 161q25 39 20.5 77t-27 61.5t-52 23.5t-54.5 -37q-43 -98 -112 -100q-41 -2 -133 57l-60 37 q-20 14 -63 27.5t-80 11.5q-131 -6 -250 -147q-27 -43 -15.5 -86zM356 256q-160 139 2 414q82 137 190.5 187t207.5 -3q25 -16 43 -41q35 -168 35 -444q-6 -4 -11 -9q-57 -43 -100 -84t-109 -59q-72 -20 -141.5 -10t-116.5 49z" />
<glyph unicode="&#xe4;" horiz-adv-x="1159" d="M82 555.5q-29 -104.5 2 -236.5q31 -131 137 -219q125 -109 316 -100q91 4 165 33q68 29 129 92v-31q2 -49 35 -72.5t73 -22.5t69.5 27.5t27.5 75.5q-2 66 -3 159t-1 186.5t-4 160.5q-8 135 -35 258q-2 45 -35 74q0 2 -12 14l-26 27q-14 12 -34 28.5t-36 24.5 q-141 70 -267 49.5t-231.5 -106.5t-181.5 -217q-59 -100 -88 -204.5zM331 1387.5q-11 -56.5 34 -103.5q33 -39 83 -42t92 22.5t48 74.5q6 47 -4 76q-14 39 -33 55q-18 16 -39 23q-23 8 -51 8q-45 2 -74 -20q-45 -37 -56 -93.5zM352 256q-160 139 2 414q82 137 190.5 187 t207.5 -3q25 -16 43 -41q35 -168 34 -444q-6 -4 -10 -9q-45 -68 -108.5 -100.5t-100.5 -42.5q-72 -20 -141.5 -10t-116.5 49zM673 1387.5q-11 -56.5 34 -103.5q33 -39 83 -42t92 22.5t48 74.5q6 47 -4 76q-14 39 -33 55q-18 16 -39 23q-23 8 -51 8q-45 2 -74 -20 q-45 -37 -56 -93.5z" />
<glyph unicode="&#xe5;" horiz-adv-x="1159" d="M82 555.5q-29 -104.5 2 -236.5q31 -131 137 -219q125 -109 316 -100q91 4 165 33q68 29 129 92v-31q2 -49 35 -72.5t73 -22.5t69.5 27.5t27.5 75.5q-2 66 -3 159t-1 186.5t-4 160.5q-8 135 -35 258q-2 45 -35 74q0 2 -12 14l-26 27q-14 12 -34 28.5t-36 24.5 q-141 70 -267 49.5t-231.5 -106.5t-181.5 -217q-59 -100 -88 -204.5zM352 256q-160 139 2 414q82 137 190.5 187t207.5 -3q25 -16 43 -41q35 -168 34 -444q-6 -4 -10 -9q-45 -68 -108.5 -100.5t-100.5 -42.5q-72 -20 -141.5 -10t-116.5 49zM424 1358q2 -68 55 -127 q35 -39 87.5 -58.5t105.5 -13.5t90 43q56 53 72 129q16 74 -6 148q-25 74 -95 106q-27 12 -63 10q-8 -2 -15 -2q-6 -2 -8 -2h-4q-25 0 -41 -16q-88 -20 -135 -85t-43 -132zM564.5 1399q15.5 35 66.5 49q12 2 24 10q2 2 9 2h5h3l4 2h2q16 -12 25.5 -39.5t1.5 -64.5 q-17 -72 -70 -66q-49 6 -67.5 39t-3 68z" />
<glyph unicode="&#xe6;" horiz-adv-x="1748" d="M113.5 755.5q15.5 -34.5 51.5 -53t73.5 -11.5t62.5 50l18 37q8 14 11 19q2 4 8 10q63 63 184 78q119 10 170 -43q57 -59 51 -191q-123 0 -217 -12q-102 -16 -195 -55t-151.5 -111t-58.5 -186q-2 -113 67.5 -182.5t171.5 -98.5q90 -20 182.5 -12t168.5 43q90 41 145 104 q104 -98 256 -129q154 -31 285 17q96 29 141 67q55 41 90 97q29 37 20.5 72.5t-40 58t-70.5 21.5t-72 -38q-18 -23 -36.5 -40t-40.5 -34q-14 -12 -62 -28q-76 -27 -159 -10.5t-146.5 63.5t-79.5 113q-10 39 -10 84q68 -4 82 -4q303 -2 452 12q68 0 119 6q41 6 72 33.5 t31 66.5q0 29 -7.5 68t-11.5 63q-8 27 -28.5 69t-45.5 83q-76 109 -193.5 162t-268.5 35q-152 -18 -259 -119q-12 18 -28 37q-63 66 -154.5 89t-187.5 17q-90 -8 -175 -45t-141 -94q-8 -8 -16 -21l-14 -22q-8 -8 -15 -21l-10 -18q-4 -8 -8 -12l-2 -9q-25 -41 -9.5 -75.5z M324 287q0 68 56 106.5t177 57.5q76 12 174 12q-2 -80 12 -137l2 -4l-28 -37q-12 -16 -29.5 -36t-34.5 -26l-28 -16q-45 -18 -102.5 -22.5t-110.5 5.5q-88 23 -88 97zM954 643q2 33 7.5 60.5t21.5 60.5l16 18q39 41 93.5 60.5t112 20.5t104.5 -17q68 -27 116 -96 q29 -51 35 -95q-188 -14 -444 -16q-14 0 -62 4z" />
<glyph unicode="&#xe7;" horiz-adv-x="1089" d="M103.5 596q-21.5 -109 2.5 -227q23 -121 97 -207q72 -82 183 -125t228 -41q127 2 234.5 61.5t155.5 178.5q16 39 14 90v45q2 51 -27.5 77.5t-69.5 29.5t-73 -20.5t-35 -74.5v-59l2 -11q-45 -109 -203 -112q-78 0 -147.5 26.5t-106.5 69.5q-59 68 -60 182.5t60 229.5 q59 111 143.5 152.5t176.5 0.5q18 -8 47 -37l35 -34q25 -25 43 -39q37 -35 76 -28t65.5 39t27.5 71.5t-38 72.5l-66 66q-55 53 -108 78q-127 51 -237.5 30.5t-198.5 -94.5t-148 -182q-51 -100 -72.5 -209zM348 -336q0 -57 59.5 -96t149.5 -39q94 0 158.5 59.5t64.5 145.5 q0 74 -62.5 128t-158.5 52q-8 0 -18 -4q-12 -6 -25 -10l53 -29q2 39 32 75t85 85q-59 35 -109 49q-162 -135 -161 -213q0 -29 22.5 -49.5t54.5 -20.5q47 0 86 -10q47 -14 48 -59q-2 -29 -21.5 -47.5t-46.5 -18.5q-45 0 -78 33q-18 18 -32.5 27.5t-34.5 9.5 q-29 0 -47.5 -19.5t-18.5 -48.5z" />
<glyph unicode="&#xe8;" horiz-adv-x="1232" d="M83 462q5 -65 32 -130q25 -68 82 -139q55 -72 166.5 -125.5t261.5 -65.5q109 -8 184.5 0t122.5 29q37 16 69 35q43 23 56.5 60.5t1.5 74.5t-46 56t-81 1q-39 -18 -70 -29.5t-88 -25.5q-35 -8 -133 0q-147 12 -231 72.5t-107 152.5h6q0 6 369 2l369 -2q29 0 53 14 q37 12 57.5 45t11.5 72q-4 25 -14 71t-20 75q-20 57 -64 112q-66 96 -162 160.5t-211 81.5q-160 20 -287.5 -36t-210.5 -162.5t-108 -231.5q-14 -102 -9 -167zM311 629q37 111 134.5 179.5t224.5 49.5q139 -18 233 -151q33 -47 43 -78q-516 4 -635 0zM429 1437 q-3 -40 34 -71l153 -166q31 -37 71 -29.5t70.5 39t34 71.5t-39.5 73l-148 164q-37 35 -77 27.5t-67.5 -38t-30.5 -70.5z" />
<glyph unicode="&#xe9;" horiz-adv-x="1232" d="M83 464q5 -65 32 -130q25 -68 82 -139q55 -72 166.5 -125.5t261.5 -65.5q109 -8 184.5 0t122.5 29q37 16 69 35q43 23 56.5 60.5t1.5 74.5t-46 56.5t-81 0.5q-39 -18 -70 -29.5t-88 -25.5q-35 -8 -133 0q-147 12 -231 72.5t-107 152.5h6q0 6 369 2l369 -2q29 0 53 14 q37 12 57.5 45t11.5 72q-4 25 -14 71t-20 75q-20 57 -64 112q-66 96 -162 160.5t-211 81.5q-160 20 -287.5 -36t-210.5 -162.5t-108 -231.5q-14 -102 -9 -167zM311 631q37 111 134.5 179.5t224.5 49.5q139 -18 233 -151q33 -47 43 -78q-516 4 -635 0zM427 1281 q3 -40 34 -71.5t70.5 -39t70.5 29.5l154 166q37 31 33.5 71t-31 70.5t-67.5 37.5t-77 -27l-147 -164q-43 -33 -40 -73z" />
<glyph unicode="&#xea;" horiz-adv-x="1232" d="M83 464q5 -65 32 -130q25 -68 82 -139q55 -72 166.5 -125.5t261.5 -65.5q109 -8 184.5 0t122.5 29q37 16 69 35q43 23 56.5 60.5t1.5 74.5t-46 56.5t-81 0.5q-39 -18 -70 -29.5t-88 -25.5q-35 -8 -133 0q-147 12 -231 72.5t-107 152.5h6q0 6 369 2l369 -2q29 0 53 14 q37 12 57.5 45t11.5 72q-4 25 -14 71t-20 75q-20 57 -64 112q-66 96 -162 160.5t-211 81.5q-160 20 -287.5 -36t-210.5 -162.5t-108 -231.5q-14 -102 -9 -167zM300 1227.5q5 -33.5 30.5 -57t60.5 -24.5t64 30l143 161l4 2l12 -12q96 -96 156 -149q33 -27 66.5 -21t56 30.5 t24 59.5t-29.5 66q-55 47 -148 139q-33 33 -51 45q-39 31 -80 35q-45 2 -88 -29q-23 -16 -51 -49l-143 -160q-31 -33 -26 -66.5zM311 631q37 111 134.5 179.5t224.5 49.5q139 -18 233 -151q33 -47 43 -78q-516 4 -635 0z" />
<glyph unicode="&#xeb;" horiz-adv-x="1232" d="M83 464q5 -65 32 -130q25 -68 82 -139q55 -72 166.5 -125.5t261.5 -65.5q109 -8 184.5 0t122.5 29q37 16 69 35q43 23 56.5 60.5t1.5 74.5t-46 56.5t-81 0.5q-39 -18 -70 -29.5t-88 -25.5q-35 -8 -133 0q-147 12 -231 72.5t-107 152.5h6q0 6 369 2l369 -2q29 0 53 14 q37 12 57.5 45t11.5 72q-4 25 -14 71t-20 75q-20 57 -64 112q-66 96 -162 160.5t-211 81.5q-160 20 -287.5 -36t-210.5 -162.5t-108 -231.5q-14 -102 -9 -167zM298 1346.5q1 -46.5 36 -84.5q39 -45 93 -49.5t99.5 25.5t57.5 87q10 49 -4 96q-16 47 -62 70q-16 8 -41 6 q-4 -2 -8 -2h-3h-3h-2q-16 0 -47 -10q-57 -14 -87 -53t-29 -85.5zM311 631q37 111 134.5 179.5t224.5 49.5q139 -18 233 -151q33 -47 43 -78q-516 4 -635 0zM669 1344.5q1 -46.5 36 -84.5q39 -45 93 -49.5t99 25.5t57 87q10 49 -4 96q-16 47 -61 70q-16 8 -41 6 q-4 -2 -19 -2h-11h-5h-2q-16 0 -27 -10q-57 -14 -86.5 -53t-28.5 -85.5z" />
<glyph unicode="&#xec;" horiz-adv-x="485" d="M-7 1482q-5 -38 28 -73l33.5 -33.5l27.5 -27.5q20 -20 36.5 -39t41.5 -47l49 -58q31 -35 71 -32.5t69.5 27t37.5 61t-22 75.5l-54 66q-23 27 -38 43q-16 16 -54 55l-51 55q-37 31 -76 26t-66.5 -32.5t-32.5 -65.5zM133 975q14 -285 14 -889q0 -51 31 -76.5t72 -25.5 t71.5 25.5t30.5 76.5q0 588 -14 901q-2 51 -35 74.5t-73 20.5t-69.5 -29.5t-27.5 -77.5z" />
<glyph unicode="&#xed;" horiz-adv-x="485" d="M115.5 1261.5q7.5 -36.5 37 -61t67.5 -27t67 30.5q51 59 69 84q18 23 50 55q29 33 57 68q31 37 25.5 75t-31 64.5t-62.5 30.5t-69 -27l-50 -55q-16 -20 -43.5 -52t-44.5 -52l-49 -60q-31 -37 -23.5 -73.5zM133 975q14 -285 14 -889q0 -51 31 -76.5t72 -25.5t71.5 25.5 t30.5 76.5q0 588 -14 901q-2 51 -35 74.5t-73 20.5t-69.5 -29.5t-27.5 -77.5z" />
<glyph unicode="&#xee;" horiz-adv-x="485" d="M-49 1265.5q2 -36.5 24.5 -62t57 -25.5t69.5 41l129 157q100 -123 129 -157q37 -41 71 -41t56.5 25.5t24.5 63.5t-27 70q-49 57 -100 119q-33 41 -70 78q-41 35 -84 35q-41 0 -75 -35q-18 -18 -50 -49l-126 -148q-31 -35 -29 -71.5zM123 983q0 -29 16 -465 q10 -248 -6 -418q-4 -51 23.5 -79.5t68.5 -31.5t75 19.5t38 71.5q16 178 6 446q-16 397 -16 457q0 51 -31 76.5t-72 25.5t-71.5 -25.5t-30.5 -76.5z" />
<glyph unicode="&#xef;" horiz-adv-x="442" d="M-50.5 1379q-15.5 -62 30.5 -111q33 -37 78.5 -40t85 22.5t51.5 72.5q10 43 -5 84q-14 41 -53 55q-18 10 -41 13q-12 2 -25.5 1t-31.5 -10q-74 -25 -89.5 -87zM113 975q14 -285 14 -889q0 -51 30.5 -76.5t71.5 -25.5t72 25.5t31 76.5q0 588 -15 901q-2 51 -34.5 74.5 t-72.5 20.5t-69.5 -29.5t-27.5 -77.5zM254 1366q-10 -53 31 -98q33 -37 80 -40t87 21.5t46 71.5q6 45 -4 72q-14 37 -31 53q-18 14 -37 20q-23 8 -49 9q-43 2 -70 -21q-43 -35 -53 -88z" />
<glyph unicode="&#xf0;" horiz-adv-x="1249" d="M119 559q0 -158 64.5 -291t181.5 -211q117 -80 264 -80t264 84t184 224q66 139 66 295q0 410 -410 837l84 47q53 29 53 86q0 43 -29.5 76t-70.5 33q-25 0 -51 -14q-72 -39 -139 -82l-101 88q-29 29 -65 28q-39 0 -71 -34.5t-32 -75.5q0 -43 37 -74l55 -49l-147 -111 q-41 -33 -41 -78q0 -41 30.5 -73.5t71.5 -32.5q33 0 62 20q98 76 178 132q109 -117 201 -250q-98 29 -172 28q-53 0 -101 -10q-106 -23 -190 -98.5t-129 -184.5q-47 -111 -47 -229zM326 537q0 213 131 311q53 37 114 37q29 0 62 -6q35 -8 96 -27q92 -31 121 -31q20 0 35 6 q27 -72 40 -135t13 -139q0 -90 -39 -178t-108 -144q-70 -57 -158 -57q-92 0 -162 51t-106 135q-39 84 -39 177z" />
<glyph unicode="&#xf1;" horiz-adv-x="1157" d="M129 989q4 -86 4 -278q0 -201 9 -355.5t36 -273.5q10 -49 45 -67.5t75 -11.5t65.5 38t15.5 82q-37 174 -41 487q6 4 12 11q109 125 191 188t170 59q53 -2 82 -55q37 -68 47 -205q8 -104 0 -270q-10 -231 -11 -250q0 -51 31 -75.5t72 -23.5t71.5 27.5t30.5 75.5 q0 23 10 236q8 180 0 295q-14 182 -71 286q-84 158 -254 164q-193 8 -383 -168q0 51 -6 96.5t-28.5 71t-74.5 23.5q-43 -2 -71.5 -33t-26.5 -74zM156.5 1237q11.5 -43 47.5 -59.5t83 24.5q78 80 143 82q39 4 129 -55q49 -31 97.5 -56.5t109.5 -21.5q131 6 217 162 q25 39 20.5 76.5t-27 62.5t-52 24t-54.5 -38q-43 -98 -112 -101q-41 -2 -133 58l-60 37q-20 14 -63 27.5t-80 10.5q-131 -6 -250 -147q-27 -43 -15.5 -86z" />
<glyph unicode="&#xf2;" horiz-adv-x="1140" d="M98.5 631.5q-20.5 -148.5 18.5 -279.5q43 -145 152.5 -245.5t273.5 -112.5q236 -18 377 137q123 135 129 348q2 127 -42 251t-131.5 224.5t-211.5 155.5q-20 29 -53 39t-68 -4q-115 -45 -199 -100.5t-147 -151.5q-78 -113 -98.5 -261.5zM298 599q11 97 67 179 q63 92 198 154q88 -35 151.5 -105.5t97.5 -159.5t32 -184q-4 -135 -76 -215q-74 -79 -209 -69q-94 6 -156.5 65.5t-89 148.5t-15.5 186zM411 1430.5q-3 -39.5 33 -70.5l134 -146q31 -37 70.5 -29.5t70.5 39t34 71.5t-40 73l-127 143q-37 35 -77 28t-67.5 -38t-30.5 -70.5z " />
<glyph unicode="&#xf3;" horiz-adv-x="1167" d="M95 637q-11 -117 14 -229q20 -84 59 -158t100 -135q59 -61 148 -95q86 -34 190 -28q152 8 260.5 79.5t157.5 176.5q49 104 51 227q2 119 -41 234.5t-125 209t-196 144.5q-29 12 -82 22q-45 47 -107 29q-6 -2 -37 -10q-31 -10 -51 -19l-49 -16q-29 -12 -54.5 -25.5 t-45.5 -29.5q-86 -61 -133.5 -160.5t-58.5 -216.5zM299 613.5q8 78.5 35.5 141t71.5 95.5q31 20 106 45q6 -2 12 -2q31 -6 62.5 -9t44.5 -10q100 -45 158.5 -124.5t76 -172t-7 -176.5t-91.5 -141t-173 -63q-109 -6 -182.5 63.5t-102.5 192.5q-18 82 -10 160.5zM333 1301.5 q3 -39.5 33.5 -71.5t70.5 -39t71 30l154 145q37 31 33.5 71t-31 70.5t-67.5 37.5t-77 -27l-147 -144q-43 -33 -40 -72.5z" />
<glyph unicode="&#xf4;" horiz-adv-x="1155" d="M90 671q-16 -120 16 -231q29 -121 94.5 -222t163 -164.5t220.5 -71.5q238 -16 372 151q115 143 107 361q-6 117 -51 228.5t-126 198.5t-194 134q-16 29 -46 43t-62 8l-111 -21q-96 -20 -133 -36q-106 -55 -170 -156.5t-80 -221.5zM242.5 1236q5.5 -34 31 -57.5t60 -24.5 t63.5 30l144 162l4 2l12 -13q96 -96 156 -149q33 -27 66.5 -21t56 31t23.5 59.5t-30 65.5q-55 47 -147 139q-33 33 -51 45q-39 31 -80 35q-45 2 -88 -29q-23 -16 -51 -49l-144 -159q-31 -33 -25.5 -67zM307 487q-31 127 4 230.5t123 146.5q10 6 80 21l16 4q4 -2 9 -2 q94 -16 164.5 -74.5t110.5 -144.5t44 -183q6 -139 -61 -223q-68 -86 -201 -76q-100 6 -180 90t-109 211z" />
<glyph unicode="&#xf5;" horiz-adv-x="1163" d="M98 465q31 -209 160 -342q162 -175 432 -109q94 25 177 98.5t130 170.5q47 94 66 204q12 49 6 119t-32.5 144.5t-71.5 141t-113 112.5q-27 16 -49.5 28t-46.5 21l-39 14q-16 4 -47 7t-63 5t-48 2q-31 12 -61 6q-6 -2 -17 -4q-27 -2 -28 -2q-49 -8 -82 -26 q-160 -90 -234 -279q-61 -147 -39 -311zM192.5 1298q11.5 -41 44.5 -58t76 17q72 74 131 76q37 4 121 -51q39 -25 89 -48.5t101 -21.5q121 4 201 148q25 41 20.5 77t-26 57.5t-50 21.5t-53.5 -33q-39 -90 -100 -92q-37 -2 -123 53l-53 33q-20 12 -60 24t-73 10 q-121 -4 -232 -135q-25 -37 -13.5 -78zM303 496q-14 76 4.5 150.5t60.5 135t101 92.5l14 5q2 0 25 2q8 -2 14 -2q12 0 43 -2.5t60.5 -4.5t42.5 -4q18 -6 32.5 -13t36.5 -24q61 -39 92 -108.5t33 -150t-24.5 -155.5t-79.5 -127.5t-131 -62.5q-139 -20 -224 58 q-78 72 -100 211z" />
<glyph unicode="&#xf6;" horiz-adv-x="1153" d="M101.5 656.5q-21.5 -121.5 0.5 -242.5q23 -125 91.5 -226.5t177.5 -154.5t250 -41q147 14 245.5 91t146.5 193.5t48 249.5q0 121 -38 238t-118 217q-82 98 -192 143q-10 4 -35 8.5t-51.5 8.5t-38.5 4h-10q-61 10 -99 -41q-76 -25 -125 -53q-104 -66 -167.5 -169.5 t-85 -225zM249.5 1383.5q-24.5 -52.5 29.5 -109.5q39 -45 93 -49t99 25.5t57 86.5q10 8 -4 56q-16 47 -61 69q-16 8 -41 6q-4 -2 -8 -2h-3h-3h-2q-16 0 -48 -10q-84 -20 -108.5 -72.5zM303 617.5q14 82.5 54 150.5t104 106q23 14 61 27l33 10q12 4 41 11.5t43 9.5 q76 -29 125 -91.5t72.5 -143.5t20.5 -166t-31.5 -158.5t-85 -121.5t-140.5 -54q-119 -12 -195.5 57.5t-99.5 196.5q-16 84 -2 166.5zM619.5 1382.5q-23.5 -51.5 29.5 -110.5q39 -45 93.5 -49t99.5 25.5t57 86.5q10 8 -4 56q-16 47 -61 69q-16 8 -41 6q-4 -2 -19 -2h-11h-5 h-2q-16 0 -27 -10q-86 -20 -109.5 -71.5z" />
<glyph unicode="&#xf7;" d="M164 540q2 -40 28.5 -70t77.5 -28q258 12 826 13q51 0 76.5 30.5t25.5 71.5t-25.5 71.5t-76.5 30.5q-604 0 -838 -12q-49 -2 -72.5 -34.5t-21.5 -72.5zM559 914q-4 -40 33 -74q35 -37 75 -33t68.5 33.5t32.5 68.5t-33 74q-35 37 -73.5 33t-68.5 -33t-34 -69zM561 179 q-4 -40 33 -75q35 -37 75 -32.5t68.5 34t32.5 68.5t-33 74q-35 37 -73.5 32.5t-68.5 -33t-34 -68.5z" />
<glyph unicode="&#xf8;" horiz-adv-x="1153" d="M59.5 2.5q3.5 -27.5 23 -45.5t46 -20.5t49.5 24.5l541 592l229 262l168 174q23 23 17.5 48.5t-27 44t-48 19.5t-46.5 -26l-160 -162l-211 -237l-565 -619q-20 -27 -16.5 -54.5zM101.5 656.5q-21.5 -121.5 0.5 -242.5q23 -125 91.5 -226.5t177.5 -154.5t250 -41 q147 14 245.5 91t146.5 193.5t48 249.5q0 121 -38 238t-118 217q-82 98 -192 143q-10 4 -35 8.5t-51.5 8.5t-38.5 4h-10q-61 10 -99 -41q-76 -25 -125 -53q-104 -66 -167.5 -169.5t-85 -225zM303 617.5q14 82.5 54 150.5t104 106q23 14 61 27l33 10q12 4 41 11.5t43 9.5 q76 -29 125 -91.5t72.5 -143.5t20.5 -166t-31.5 -158.5t-85 -121.5t-140.5 -54q-119 -12 -195.5 57.5t-99.5 196.5q-16 84 -2 166.5z" />
<glyph unicode="&#xf9;" horiz-adv-x="1124" d="M113 670q-2 -76 6 -197q36 -414 315 -473q186 -39 352 154v-54q0 -51 31 -76.5t72 -25.5t71.5 25.5t30.5 76.5q0 276 -12 893q0 51 -30.5 76t-71.5 24t-72 -28t-31 -76q8 -369 8 -487q-14 -10 -26 -27l-60 -94q-31 -51 -51 -78q-94 -119 -170 -102q-129 27 -153 291 q-2 37 0 99t5 136t3 143.5t-6.5 119.5t-20.5 67q-33 33 -74 30.5t-71.5 -30t-30.5 -70.5q0 -51 -6 -141t-8 -176zM355 1363q-3 -40 34 -71l154 -145q31 -37 70.5 -30t70.5 39t34 72t-40 72l-148 144q-37 35 -76.5 27.5t-67.5 -38t-31 -70.5z" />
<glyph unicode="&#xfa;" horiz-adv-x="1124" d="M113 670q-2 -76 6 -197q36 -414 315 -473q186 -39 352 154v-33q0 -61 31 -93t72 -32t71.5 31.5t30.5 93.5q0 256 -12 872q0 51 -30.5 76t-71.5 24t-72 -28t-31 -76q8 -369 8 -487q-14 -10 -26 -27l-60 -94q-31 -51 -51 -78q-94 -119 -170 -102q-129 27 -153 291 q-2 37 0 99t5 136t3 143.5t-6.5 119.5t-20.5 67q-33 33 -74 30.5t-71.5 -30t-30.5 -70.5q0 -51 -6 -141t-8 -176zM416.5 1261.5q7.5 -36.5 39 -61t71.5 -27t71 30.5q55 59 76 84q18 23 49 55q31 33 61 68q33 37 28 75t-32.5 64.5t-66.5 30.5t-74 -27l-51 -55 q-18 -20 -47 -52t-47 -52l-52 -60q-33 -37 -25.5 -73.5z" />
<glyph unicode="&#xfb;" horiz-adv-x="1148" d="M115 664q-12 -268 39 -408q53 -143 167.5 -217t247.5 -55q133 16 238 120v-14q0 -51 30.5 -76.5t71.5 -25.5t72 25.5t31 76.5q0 154 2 461t2 461q0 51 -31 76.5t-72 25.5t-71.5 -25.5t-30.5 -76.5q0 -154 -2 -465q-8 -14 -14 -29q-53 -176 -119 -254q-55 -63 -121 -75.5 t-123 22.5t-86 115q-37 102 -29 329q4 86 15.5 181.5t13.5 156.5q2 43 -27 76q-31 33 -71.5 33t-72.5 -25.5t-34 -70.5q-2 -51 -12 -177q-12 -90 -14 -165zM265 1252.5q5 -33.5 31 -57.5t60.5 -25t63.5 30l143 162l4 2l13 -12q96 -96 155 -150q33 -27 67 -20.5t56.5 31 t23.5 59.5t-30 65q-55 47 -147 140q-33 33 -52 45q-39 31 -80 34q-45 2 -88 -28q-23 -16 -51 -49l-143 -160q-31 -33 -26 -66.5z" />
<glyph unicode="&#xfc;" horiz-adv-x="1153" d="M115 618q10 -326 108 -468q47 -68 105.5 -101t138.5 -49q199 -41 336 109l4 2q4 -57 32.5 -82t67.5 -25q43 0 73 29.5t30 93.5q0 403 10 858q0 49 -31 75.5t-71.5 28t-71.5 -23.5t-31 -76q-6 -240 -8 -487q-31 -16 -43 -49q-59 -150 -111 -205q-59 -66 -145 -47 q-49 10 -74 24q-23 12 -43 43q-66 92 -72 355q-4 168 21 362q4 51 -23.5 80t-68.5 32t-75 -18.5t-38 -72.5q-27 -201 -20 -388zM280 1316q1 -46 35 -85q39 -45 88.5 -49t89.5 25.5t52 86.5q10 49 -4 97q-16 47 -62 69q-16 8 -41 6q-4 -2 -8 -2h-3h-3h-2q-16 0 -27 -10 q-57 -14 -86.5 -53t-28.5 -85zM630 1314q1 -46 36 -85q39 -45 88 -49t89 25.5t52 86.5q10 49 -4 97q-16 47 -62 69q-16 8 -41 6q-4 -2 -8 -2h-3h-3h-2q-16 0 -27 -10q-57 -14 -86.5 -53t-28.5 -85z" />
<glyph unicode="&#xfd;" horiz-adv-x="925" d="M-3 -319.5q3 -40.5 32 -68.5t80 -24q2 0 33.5 4.5t64.5 7.5t45 7q31 6 59.5 21.5t57.5 37.5q98 78 155 238q14 47 37 123q18 80 29 106q4 16 16 57q35 115 60.5 193t51 148.5t64.5 164.5q57 141 111 240q25 45 9.5 82t-50.5 56.5t-75 12t-64 -52.5q-119 -219 -262 -657 l-78 213q-109 291 -148 422q-14 49 -51 64.5t-76 4t-61.5 -44t-7.5 -82.5q49 -164 151 -436q115 -309 152 -467q8 -23 22 -39q-12 -14 -24 -49q-39 -113 -88 -137l-21 -12q-14 -10 -59 -14.5t-74 -6.5q-49 -4 -71.5 -38t-19.5 -74.5zM339 1261.5q7 -36.5 39 -61t71.5 -27 t70.5 30.5q55 59 76 84q18 23 49 55q31 33 62 68q33 37 27.5 75t-33 64.5t-66.5 30.5t-74 -27l-51 -55q-18 -20 -47 -52t-47 -52l-51 -60q-33 -37 -26 -73.5z" />
<glyph unicode="&#xfe;" horiz-adv-x="1105" d="M133 840q0 -139 1 -297t3 -314.5t3 -297t1 -244.5q0 -51 31 -77t72 -26t71.5 25.5t30.5 77.5q0 158 -2 385q59 -39 117 -54q244 -53 401 113q127 135 148 363q20 215 -68 389q-104 209 -307 237q-182 27 -295 -65q2 158 8 301q2 51 -27.5 77.5t-69.5 27.5t-73 -22.5 t-35 -74.5q-10 -248 -10 -524zM338 692q66 174 131 203q41 37 137 25q96 -14 154 -129q61 -121 47 -279q-14 -156 -94 -240q-78 -82 -207 -53q-12 2 -34.5 14.5t-35.5 24.5l-30 25l-37 32q-12 10 -29 17q-2 219 -2 360z" />
<glyph unicode="&#xff;" horiz-adv-x="884" d="M-23 983q131 -535 388 -985l-15 -39q-33 -84 -57 -131q-8 -14 -14 -25l-9 -12l-2 -2q-20 -14 -32 -12q-8 0 -35 7t-51 13q-49 10 -81 -14.5t-40.5 -63t9 -74.5t66.5 -48q111 -25 117 -25q82 -6 162 47q47 31 90 113q31 59 68 153q59 154 135 412l78 281l71 262 q29 104 41 141q16 47 -5 82t-60 47t-76 -1t-51 -62q-12 -37 -41 -144l-74 -266l-80 -281l-26 -88q-170 346 -275 764q-12 49 -48 66.5t-75 7.5t-63.5 -42t-14.5 -81zM91 1353q1 -46 36 -85q39 -45 93 -49.5t99.5 25.5t57.5 87q10 49 -4 96q-16 47 -62 70q-16 8 -41 6 q-4 -2 -8 -2h-3h-3h-2q-16 0 -47 -10q-57 -14 -87 -53t-29 -85zM462 1351q1 -46 36 -85q39 -45 93 -49.5t99.5 25.5t57.5 87q10 49 -5 96q-16 47 -61 70q-16 8 -41 6q-4 -2 -18 -2h-11.5h-5.5h-2q-16 0 -26 -10q-57 -14 -87 -53t-29 -85z" />
<glyph unicode="&#x152;" horiz-adv-x="2170" d="M102 606q0 -70 35 -151q47 -133 158 -258q117 -106 256 -170q104 -50 223 -56q102 -12 211 31t189 148l8 10v-6q-10 -23 -11 -48q0 -47 37 -77q16 -27 44 -41.5t61 -7.5q31 4 53 24q86 0 307 4q219 4 340 4q51 0 77 31t26 72t-26 71.5t-77 30.5q-59 0 -149 -1t-186.5 -2 t-176.5 -3t-119 -2q-27 207 -36 475q365 16 491 16q51 0 76.5 31t25.5 72t-25.5 71.5t-76.5 30.5q-129 0 -498 -18q0 47 -4 207q29 29 31 68.5t-25 70.5l-8 8q0 27 -2 51q84 2 281 13q197 8 301 10q51 0 75.5 30.5t23.5 71.5t-27.5 72t-75.5 31q-106 -2 -307 -11 q-201 -10 -293 -12q-33 45 -88 43q-66 -2 -91 -63q-18 -12 -30 -33q-135 63 -324 57q-154 -6 -280.5 -69.5t-208.5 -165.5q-82 -104 -129 -234q-47 -125 -56 -268q-6 -98 0 -158zM302 633.5q-1 46.5 5 118.5q14 233 142 387q127 152 335 157q168 6 265 -57q35 -23 81 -76 q6 -309 7 -332q-16 -25 -15 -55q2 -29 17 -53q4 -115 10 -213q-59 -14 -76 -72l-12 -45q-10 -37 -20.5 -65.5t-30.5 -55.5q-123 -163 -371 -61q-106 47 -199 129q-82 96 -114 192q-23 55 -24 101.5z" />
<glyph unicode="&#x153;" horiz-adv-x="2015" d="M117 446q16 -121 74.5 -217t146.5 -159.5t192 -83.5q123 -25 239 18t196 154q96 -109 256 -160q211 -68 385 -2q33 12 60.5 27.5t49.5 35.5l37 33q14 12 38 38t30 34q37 37 31.5 76t-35 66.5t-70.5 30.5t-74 -34q-20 -20 -44.5 -47t-37.5 -37q-14 -12 -26.5 -18 t-28.5 -13q-74 -27 -166 -14.5t-170 55.5t-113 107q-23 43 -28 110h4q14 0 362 -2h217q49 0 76 2q18 2 29 3q31 4 49 14q86 47 105 139q12 63 -15 141q-33 92 -110 185q-100 119 -245 171t-294 13q-152 -39 -250 -174q-72 82 -179.5 118t-221.5 25q-115 -8 -219.5 -59 t-165.5 -141q-57 -88 -78 -207t-6 -228zM322 475q-12 76 2 158t49 133q33 51 94 78.5t133 33t135.5 -13t98.5 -63.5q4 -6 10 -23q23 -59 22 -61q6 -12 13 -21q-39 -158 -21 -297l-8 -16q-39 -123 -116 -169t-163 -28q-92 18 -163.5 95t-85.5 194zM1079 651q23 90 62 150 q53 82 139 108.5t177 -1t163 -111.5q53 -63 72 -121q6 -14 6 -25q-20 -2 -58 -2h-213q-336 2 -348 2z" />
<glyph unicode="&#x178;" horiz-adv-x="1302" d="M12.5 1417q-12.5 -39 14.5 -80q92 -141 266 -387q180 -248 256 -362q0 -63 -2 -232q-2 -168 -2 -260q0 -51 30.5 -76.5t71.5 -25.5t72 25.5t31 76.5q0 86 2 252q2 164 2 189q23 35 14 75q199 250 514 752q27 43 14.5 81t-46 59.5t-73.5 16.5t-67 -46q-285 -453 -457 -678 l-204 288q-166 233 -250 363q-27 45 -67 49t-73.5 -18.5t-46 -61.5zM310.5 1709q-11.5 -56 33.5 -103q33 -39 83 -42t92 22.5t48 74.5q6 47 -4 76q-14 39 -33 55q-18 16 -38 23q-23 8 -52 8q-45 2 -73 -21q-45 -37 -56.5 -93zM652.5 1709q-11.5 -56 33.5 -103q33 -39 83 -42 t92 22.5t48 74.5q6 47 -4 76q-14 39 -33 55q-18 16 -38 23q-23 8 -52 8q-45 2 -73 -21q-45 -37 -56.5 -93z" />
<glyph unicode="&#x2c6;" horiz-adv-x="595" d="M0 1265.5q2 -36.5 26.5 -62t60.5 -25.5t73 41l137 157q106 -123 137 -157q39 -41 75 -41t59.5 25.5t25.5 63.5t-27 70q-53 57 -106 119q-35 41 -74 78q-45 35 -90 35q-43 0 -80 -35q-20 -18 -51 -49l-135 -148q-33 -35 -31 -71.5z" />
<glyph unicode="&#x2dc;" horiz-adv-x="788" d="M4.5 1298q11.5 -41 44.5 -58t76 17q72 74 131 76q37 4 121 -51q39 -25 89 -48.5t101 -21.5q121 4 201 148q25 41 20.5 77t-26 57.5t-50 21.5t-53.5 -33q-39 -90 -100 -92q-37 -2 -123 53l-53 33q-20 12 -60 24t-73 10q-121 -4 -232 -135q-25 -37 -13.5 -78z" />
<glyph unicode="&#x2000;" horiz-adv-x="971" />
<glyph unicode="&#x2001;" horiz-adv-x="1942" />
<glyph unicode="&#x2002;" horiz-adv-x="971" />
<glyph unicode="&#x2003;" horiz-adv-x="1942" />
<glyph unicode="&#x2004;" horiz-adv-x="647" />
<glyph unicode="&#x2005;" horiz-adv-x="485" />
<glyph unicode="&#x2006;" horiz-adv-x="323" />
<glyph unicode="&#x2007;" horiz-adv-x="323" />
<glyph unicode="&#x2008;" horiz-adv-x="242" />
<glyph unicode="&#x2009;" horiz-adv-x="388" />
<glyph unicode="&#x200a;" horiz-adv-x="107" />
<glyph unicode="&#x2010;" horiz-adv-x="749" d="M103 559q3 -37 29 -63.5t75 -24.5q70 4 186 8q117 4 158 6q45 2 71.5 32t25.5 69t-34 67q-35 27 -90 23t-141 -6q-123 -4 -193 -8q-47 -4 -68.5 -35t-18.5 -68z" />
<glyph unicode="&#x2011;" horiz-adv-x="749" d="M103 559q3 -37 29 -63.5t75 -24.5q70 4 186 8q117 4 158 6q45 2 71.5 32t25.5 69t-34 67q-35 27 -90 23t-141 -6q-123 -4 -193 -8q-47 -4 -68.5 -35t-18.5 -68z" />
<glyph unicode="&#x2012;" horiz-adv-x="749" d="M103 559q3 -37 29 -63.5t75 -24.5q70 4 186 8q117 4 158 6q45 2 71.5 32t25.5 69t-34 67q-35 27 -90 23t-141 -6q-123 -4 -193 -8q-47 -4 -68.5 -35t-18.5 -68z" />
<glyph unicode="&#x2013;" horiz-adv-x="1349" d="M102 553q0 -35 22.5 -59.5t57.5 -24.5q41 -2 494 2q295 2 479 -16q41 -2 63.5 20.5t24.5 54t-15.5 58t-56.5 30.5q-195 18 -497 17q-453 -2 -488 -2t-59.5 -22.5t-24.5 -57.5z" />
<glyph unicode="&#x2014;" horiz-adv-x="1783" d="M83 556q-1 -32 17.5 -58.5t57.5 -28.5q280 -18 735 -6q543 14 725 10q41 0 61.5 24.5t21.5 57.5t-19.5 57.5t-59.5 24.5q-186 4 -733 -10q-457 -12 -719 6q-41 2 -63.5 -21.5t-23.5 -55.5z" />
<glyph unicode="&#x2018;" horiz-adv-x="548" d="M117 1503l145 -356q14 -33 51 -48t72 -1q35 16 48 53t-3 74q-66 158 -139 346q-14 35 -50 50t-71 1q-35 -12 -51.5 -49t-1.5 -70z" />
<glyph unicode="&#x2019;" horiz-adv-x="378" d="M46 1151q13 -37 48 -53q35 -14 72 1t51 48l145 356q14 33 -2 70t-51 49q-35 14 -70.5 -1t-50.5 -50q-74 -188 -139 -346q-16 -37 -3 -74z" />
<glyph unicode="&#x201a;" horiz-adv-x="444" d="M108.5 -168q10.5 -31 37 -49.5t57 -15.5t53.5 38q53 80 69.5 147.5t12.5 168.5q-2 39 -28.5 58.5t-58.5 18.5t-55.5 -22.5t-21.5 -62.5q4 -76 -6 -119t-47 -98q-23 -33 -12.5 -64z" />
<glyph unicode="&#x201c;" horiz-adv-x="866" d="M115.5 1566.5q-17.5 -30.5 1.5 -69.5l145 -356q18 -43 53 -53.5t68 5t49.5 48.5t-2.5 76q-100 246 -139 346q-18 43 -53 53t-70 -4.5t-52.5 -45zM433.5 1575q-17.5 -31 0.5 -72l146 -356q18 -41 53 -51.5t68.5 4t50 47.5t-3.5 78q-100 246 -140 346q-18 43 -53 53 t-69.5 -4t-52 -45z" />
<glyph unicode="&#x201d;" horiz-adv-x="866" d="M115 1153q16 -33 50 -47t69 -4t53 51l145 356q18 41 1 72t-52 45t-70 4t-53 -53q-39 -100 -139 -346q-20 -45 -4 -78zM434.5 1147q16.5 -33 49 -48.5t67.5 -5t53 53.5l146 356q18 39 0.5 70t-52 45t-69.5 4t-54 -53q-39 -100 -139 -346q-18 -43 -1.5 -76z" />
<glyph unicode="&#x201e;" horiz-adv-x="724" d="M115 -188q-14 -37 1 -65t46 -39t60.5 -2t43.5 48q27 63 32 121.5t6 115t11 115.5q4 41 -17.5 65t-54 27t-60 -14.5t-31.5 -56.5q-10 -90 -11.5 -168t-25.5 -147zM386.5 -222.5q10.5 -29.5 38.5 -46t59.5 -12.5t54.5 37q39 61 57 112.5t21.5 110t-1.5 142.5 q-2 39 -28.5 58.5t-58 18.5t-55 -22.5t-21.5 -62.5q2 -72 0 -115t-14.5 -77t-39.5 -79q-23 -35 -12.5 -64.5z" />
<glyph unicode="&#x2022;" horiz-adv-x="532" d="M100 688q4 -51 52 -96q45 -47 96 -51t94 21.5t68.5 69.5t21.5 94t-51 95q-45 47 -95 51.5t-94.5 -21.5t-70 -69t-21.5 -94z" />
<glyph unicode="&#x2026;" horiz-adv-x="1581" d="M91 110q-5 -40 32 -77t78 -33t69.5 33.5t32.5 69.5t-35 75q-35 37 -74.5 33t-68.5 -32.5t-34 -68.5zM684 108.5q-4 -38.5 33 -75.5t78 -33t69.5 33.5t32.5 69.5t-35 75q-37 35 -77 31t-68.5 -33t-32.5 -67.5zM1278 108.5q-4 -38.5 33 -75.5t78 -33t69.5 33.5t32.5 69.5 t-35 75q-37 35 -77 31t-68.5 -33t-32.5 -67.5z" />
<glyph unicode="&#x202f;" horiz-adv-x="388" />
<glyph unicode="&#x2039;" horiz-adv-x="585" d="M117 578q-18 -76 47 -164q41 -55 166 -178q27 -31 59.5 -27t56 26.5t26.5 55.5t-28 59q-117 119 -149 162q-12 16 -16 27q8 14 40 47q98 94 146 149q25 33 18.5 63.5t-31 51t-56 20.5t-58.5 -28q-41 -49 -133 -140q-74 -74 -88 -124z" />
<glyph unicode="&#x203a;" horiz-adv-x="624" d="M102 778q-2 -33 27 -61q72 -63 182 -146l23 -16l-10 -10q-18 -20 -80 -76l-103 -94q-31 -29 -27.5 -59.5t26 -54t54 -28t62.5 22.5q39 39 100 96l84 76q35 37 52 64q29 47 18 94q-8 39 -45 73l-57 46q-104 76 -168 135q-31 27 -62 22.5t-52.5 -28t-23.5 -56.5z" />
<glyph unicode="&#x205f;" horiz-adv-x="485" />
<glyph unicode="&#x20ac;" horiz-adv-x="1550" d="M123 903q0 -41 25.5 -71.5t76.5 -30.5h47q-4 -45 -6 -90h-30q-49 0 -76 -30t-28 -70t23.5 -71.5t75.5 -33.5h45q35 -254 140 -375q82 -92 200.5 -121t243.5 -6q113 20 217.5 74.5t171.5 130.5q41 43 61.5 74.5t32 61.5t23.5 65.5t35 85.5q16 47 -3.5 81.5t-56 49t-74.5 2 t-59 -59.5l-28 -82q-16 -43 -31.5 -72.5t-50.5 -70.5q-43 -47 -117 -86t-158 -53q-172 -31 -252 61q-59 68 -88 238q160 2 473 14q51 2 75 35t23 73t-28 69.5t-78 27.5q-324 -12 -477 -14q2 45 8 92q242 2 453 6q51 0 75.5 30.5t23.5 71.5t-27.5 72t-75.5 31 q-193 -4 -406 -6q29 90 70 161q70 125 162 168q100 47 235 -4q88 -33 141 -96q55 -63 101 -172q18 -47 56 -59.5t76 4t57.5 51.5t-1.5 82q-55 139 -138 235.5t-218 147.5q-217 82 -397 -4q-152 -72 -254 -252q-63 -115 -103 -262h-84q-51 0 -76.5 -31t-25.5 -72z" />
<glyph unicode="&#x2122;" horiz-adv-x="1748" d="M105.5 1387.5q-3.5 -31.5 16 -58t60.5 -29.5q74 -4 158 -4q-7 -250 18 -520q4 -39 31 -56.5t58.5 -15t54 25t20.5 63.5q-25 262 -16 503q68 2 164 7q39 2 58.5 28.5t18 58t-23 55t-61.5 21.5q-299 -12 -472 -2q-39 2 -60 -21.5t-24.5 -55zM838 1376q-4 -117 4 -338 t8 -260t24.5 -59.5t57.5 -19.5t57.5 21.5t24.5 61.5q-2 72 -6 217q-6 143 -7 215q78 -84 164 -217q18 -29 51 -37t62 11q18 12 29 30q41 53 137 164l8 11l10 -111q21 -221 21 -301q0 -41 24.5 -61.5t57 -20.5t57.5 20.5t25 61.5q0 61 -23 317q-16 186 -8 295q2 25 -10 45 q-8 27 -31 43q-27 18 -60.5 13.5t-54.5 -33.5q-39 -55 -139 -170l-82 -94q-121 172 -274 286q-27 20 -61 15.5t-54 -31.5q-25 -33 -12 -74z" />
<glyph unicode="&#x25fc;" horiz-adv-x="1085" d="M0 0v1085h1085v-1085h-1085z" />
<glyph unicode="&#xfb03;" horiz-adv-x="1458" d="M16 926q0 -43 28 -73t71 -30h24l2 -121q2 -293 15 -600q4 -102 102 -102q45 0 71.5 33t24.5 90q-8 186 -10 510v196l315 -8v205l-307 8l2 70q2 88 33 124t109 36q84 0 174 -43l98 165q-63 39 -126.5 58.5t-143.5 19.5q-162 0 -256.5 -101t-94.5 -273v-60h-36 q-43 0 -69 -29.5t-26 -74.5zM489 926q0 -45 29 -74t78 -29h16l2 -121l2 -204q0 -184 11 -375q2 -63 26.5 -92t69.5 -31q51 -2 82 36t24 107q-12 135 -12 508v178h96q47 0 75 29t28 74t-27.5 73.5t-75.5 28.5h-90l-2 56q-4 111 32 163t118 52q68 0 114 -23l66 -33 q37 -16 66 -16q47 0 78.5 31.5t31.5 76.5q0 74 -90 119t-242 45q-172 0 -270 -106.5t-102 -290.5l-2 -78h-37q-43 0 -69 -29.5t-26 -74.5zM1126 266q0 -137 2 -168q2 -47 31 -73.5t68 -26.5q45 0 75.5 28.5t30.5 75.5l-2 168q0 33 2 58l2 194v49l2 211q2 68 2 203 q0 47 -29.5 74.5t-72.5 27.5t-72.5 -27.5t-29.5 -74.5q0 -137 -2 -205l-3 -211v-45l-2 -196q-2 -27 -2 -62z" />
</font>
</defs>
</svg>
