<svg width="127" height="22" viewBox="0 0 127 22" fill="none" xmlns="http://www.w3.org/2000/svg">
<path d="M2 9C0.89543 9 0 9.89543 0 11C0 12.1046 0.89543 13 2 13V9ZM105.333 11C105.333 16.891 110.109 21.6667 116 21.6667C121.891 21.6667 126.667 16.891 126.667 11C126.667 5.10896 121.891 0.333333 116 0.333333C110.109 0.333333 105.333 5.10896 105.333 11ZM6.75 13C7.85457 13 8.75 12.1046 8.75 11C8.75 9.89543 7.85457 9 6.75 9V13ZM16.25 9C15.1454 9 14.25 9.89543 14.25 11C14.25 12.1046 15.1454 13 16.25 13V9ZM25.75 13C26.8546 13 27.75 12.1046 27.75 11C27.75 9.89543 26.8546 9 25.75 9V13ZM35.25 9C34.1454 9 33.25 9.89543 33.25 11C33.25 12.1046 34.1454 13 35.25 13V9ZM44.75 13C45.8546 13 46.75 12.1046 46.75 11C46.75 9.89543 45.8546 9 44.75 9V13ZM54.25 9C53.1454 9 52.25 9.89543 52.25 11C52.25 12.1046 53.1454 13 54.25 13V9ZM63.75 13C64.8546 13 65.75 12.1046 65.75 11C65.75 9.89543 64.8546 9 63.75 9V13ZM73.25 9C72.1454 9 71.25 9.89543 71.25 11C71.25 12.1046 72.1454 13 73.25 13V9ZM82.75 13C83.8546 13 84.75 12.1046 84.75 11C84.75 9.89543 83.8546 9 82.75 9V13ZM92.25 9C91.1454 9 90.25 9.89543 90.25 11C90.25 12.1046 91.1454 13 92.25 13V9ZM101.75 13C102.855 13 103.75 12.1046 103.75 11C103.75 9.89543 102.855 9 101.75 9V13ZM111.25 9C110.145 9 109.25 9.89543 109.25 11C109.25 12.1046 110.145 13 111.25 13V9ZM2 13H6.75V9H2V13ZM16.25 13H25.75V9H16.25V13ZM35.25 13H44.75V9H35.25V13ZM54.25 13H63.75V9H54.25V13ZM73.25 13H82.75V9H73.25V13ZM92.25 13H101.75V9H92.25V13ZM111.25 13H116V9H111.25V13Z" fill="black"/>
</svg>
