<svg width="19" height="16" viewBox="0 0 19 16" fill="none" xmlns="http://www.w3.org/2000/svg">
<path fill-rule="evenodd" clip-rule="evenodd" d="M4.09184 9.6909C4.13197 9.70379 4.17324 9.71313 4.21513 9.7188C4.47937 10.3187 4.74213 10.9192 5.0034 11.5204C5.47319 12.602 5.94672 13.7161 6.05039 14.0365C6.18021 14.4306 6.31658 14.6988 6.46601 14.8824C6.54353 14.9759 6.63226 15.0587 6.73687 15.1217C6.79136 15.1546 6.84966 15.1812 6.91059 15.2009C7.20946 15.3089 7.48218 15.2639 7.6531 15.209C7.7534 15.176 7.84884 15.1307 7.93703 15.074L7.9417 15.0722L10.5811 13.4866L13.6306 15.7382C13.6754 15.7714 13.724 15.7993 13.7763 15.8218C14.1424 15.9748 14.4973 16.0288 14.8317 15.9856C15.1642 15.9406 15.4285 15.8065 15.6255 15.6545C15.8518 15.4787 16.0322 15.2544 16.1523 14.9993L16.1607 14.9795L16.1635 14.9723L16.1654 14.9687V14.9669L16.1663 14.966C16.1825 14.9273 16.1951 14.8873 16.2037 14.8464L18.9869 1.32554C18.9957 1.28226 19.0001 1.23826 19 1.19416C19 0.798209 18.845 0.421156 18.4816 0.193485C18.1697 -0.0017911 17.8232 -0.0107901 17.6037 0.00540789C17.3683 0.0234057 17.1498 0.0791987 17.0032 0.124193C16.9211 0.149259 16.8401 0.177479 16.7603 0.208783L16.75 0.213282L1.13954 6.11295L1.13767 6.11385C1.08485 6.13257 1.03282 6.15328 0.981693 6.17594C0.857906 6.22956 0.73916 6.29339 0.626781 6.36672C0.414768 6.5062 -0.0737022 6.88955 0.00942189 7.52307C0.0748004 8.02701 0.433448 8.33747 0.652933 8.48685C0.772482 8.56874 0.886427 8.62724 0.970485 8.66593C1.00784 8.68393 1.08817 8.71453 1.12272 8.72892L1.13206 8.73162L4.09184 9.6909ZM17.2964 1.45513H17.2946C17.2865 1.45857 17.2784 1.46187 17.2703 1.46503L1.64108 7.37279C1.63304 7.37592 1.62495 7.37892 1.6168 7.38179L1.60746 7.38449C1.57891 7.3953 1.55086 7.40731 1.5234 7.42049C1.5494 7.43483 1.57621 7.44775 1.60372 7.45918L4.53828 8.41126C4.59072 8.42829 4.64088 8.45125 4.68772 8.47965L14.3796 3.01283L14.3889 3.00833C14.4266 2.98629 14.4652 2.96587 14.5048 2.94714C14.572 2.91385 14.6794 2.86525 14.8008 2.82926C14.8849 2.80406 15.1343 2.73297 15.4032 2.81666C15.5459 2.85999 15.6731 2.9411 15.7702 3.05074C15.8673 3.16037 15.9304 3.29411 15.9524 3.43668C15.9872 3.56154 15.9882 3.69291 15.9552 3.81823C15.8899 4.0657 15.7105 4.25828 15.5471 4.40586C15.407 4.53185 13.5895 6.22004 11.7972 7.88663L9.35668 10.1543L8.92237 10.5593L14.4067 14.6106C14.4807 14.6405 14.5611 14.6529 14.6411 14.6466C14.6814 14.6413 14.7193 14.6251 14.7504 14.5998C14.7883 14.569 14.8207 14.5325 14.8466 14.4918L14.8485 14.4909L17.5477 1.37684C17.4626 1.39654 17.3793 1.42241 17.2983 1.45423L17.2964 1.45513ZM9.39403 12.6083L8.29941 11.8002L8.03416 13.4245L9.39403 12.6083ZM7.29538 10.1966L8.38347 9.18427L10.824 6.91475L11.7327 6.07065L5.64318 9.50553L5.67587 9.57932C6.05992 10.4535 6.43975 11.3294 6.81532 12.207L7.07964 10.5872C7.10355 10.437 7.17961 10.2999 7.29538 10.1966Z" fill="black"/>
</svg>
